<svg xmlns="http://www.w3.org/2000/svg" width="26.212" height="26.436" viewBox="0 0 26.212 26.436">
  <path id="active_comment" data-name="active comment" d="M11.844,21.016,6.487,26.154A.85.85,0,0,1,5,25.59V21.016H2.173A2.186,2.186,0,0,1,0,18.843V2.173A2.19,2.19,0,0,1,2.173,0H24.039a2.186,2.186,0,0,1,2.173,2.173v16.67a2.186,2.186,0,0,1-2.173,2.173ZM5.923,7.877a.848.848,0,0,1,0-1.693H20.289a.848.848,0,1,1,0,1.693Zm0,5.5a.848.848,0,0,1,0-1.693H17.642a.848.848,0,0,1,0,1.693Z" fill="#009bad" fill-rule="evenodd"/>
</svg>
