<svg xmlns="http://www.w3.org/2000/svg" width="26.482" height="23.9" viewBox="0 0 26.482 23.9">
  <g id="active_email_icon" data-name="active email icon" transform="translate(-688.545 -419)">
    <path id="Path_2561" data-name="Path 2561" d="M157.991,208.88,145.427,217a.333.333,0,0,1-.367,0L132.5,208.88a2.535,2.535,0,0,0-.493,1.505v12.643a2.524,2.524,0,0,0,.493,1.5l9.173-5.818a.331.331,0,0,1,.466.111.345.345,0,0,1-.105.473l-9.045,5.738a2.443,2.443,0,0,0,1.5.518H156a2.445,2.445,0,0,0,1.5-.518l-9.045-5.738a.345.345,0,0,1-.105-.473.331.331,0,0,1,.466-.111l9.173,5.821a2.527,2.527,0,0,0,.493-1.505V210.385a2.528,2.528,0,0,0-.493-1.505Z" transform="translate(556.543 217.348)" fill="#009bad"/>
    <path id="Path_2562" data-name="Path 2562" d="M319.155,91.423a.334.334,0,0,1,.365.24l.319,1.2,3.091-4.617-4.982-2.45.312,1.174a.325.325,0,0,1-.233.4,7.774,7.774,0,0,0-5.955,8.234,10.475,10.475,0,0,1,7.083-4.183Z" transform="translate(387.685 333.203)" fill="#009bad"/>
    <path id="Path_2563" data-name="Path 2563" d="M172.816,192.851a2.535,2.535,0,0,0-1.511-.493h-3.646l-1.235,1.776a.348.348,0,0,1-.614-.1l-.447-1.618a10.051,10.051,0,0,0-6.718,4.071l-.413.635a.344.344,0,0,1-.29.155.394.394,0,0,1-.085-.01.33.33,0,0,1-.256-.3l-.048-.746a9.558,9.558,0,0,1,.477-3.867h-8.294a2.526,2.526,0,0,0-1.5.493l12.288,7.544Z" transform="translate(541.265 233.228)" fill="#009bad"/>
  </g>
</svg>
