<svg xmlns="http://www.w3.org/2000/svg" width="26.16" height="25.518" viewBox="0 0 26.16 25.518">
  <g id="active_like" data-name="active like" transform="translate(-70 -69.603)">
    <path id="Path_1216" data-name="Path 1216" d="M237.709,79.118l3.282-4.137-.386-3.47c-.369-3.4,8.5-2.742,5.539,5.995l5.924-.076a3.771,3.771,0,0,1,1.851,1.249,1.966,1.966,0,0,1-.182,2.633,3.78,3.78,0,0,1-.772.635c1.384,1.179.878,2.341-.431,3.254.967,1.091.911,2.232-.31,2.984,1.079,1.352-.548,2.657-1.574,3.268a.623.623,0,0,1-.38.091L238.253,91.5a.673.673,0,0,1-.657-.685l-.05-11.244a.708.708,0,0,1,.162-.453Z" transform="translate(-158.181 0)" fill="#009bad"/>
    <path id="Path_1217" data-name="Path 1217" d="M126.66,247.18H130.1a.662.662,0,0,1,.66.663v10.82a.661.661,0,0,1-.66.66H126.66a.662.662,0,0,1-.663-.66v-10.82A.662.662,0,0,1,126.66,247.18Z" transform="translate(-53.201 -167.737)" fill="#009bad"/>
    <g id="Group_1640" data-name="Group 1640" transform="translate(70.001 95.093)">
      <path id="Path_1218" data-name="Path 1218" d="M.024-.194H.017a0,0,0,0,1,0,0s0,0,0,0l0,0h0v0H.019a0,0,0,0,0,0,0s0,0,0,0H.024Z" transform="translate(-0.016 0.203)" fill="#009bad"/>
    </g>
    <g id="Group_1641" data-name="Group 1641" transform="translate(70.011 95.095)">
      <path id="Path_1219" data-name="Path 1219" d="M.022-.154h0v.005h0V-.156h0v0h0Z" transform="translate(-0.016 0.156)" fill="#009bad"/>
    </g>
    <g id="Group_1642" data-name="Group 1642" transform="translate(70.018 95.095)">
      <path id="Path_1220" data-name="Path 1220" d="M.023-.152H.018v0H.023v0H.016a.006.006,0,0,1,0,0,0,0,0,0,1,0,0l0,0,0,0,0,0Zm0,0h0Z" transform="translate(-0.016 0.156)" fill="#009bad"/>
    </g>
    <g id="Group_1643" data-name="Group 1643" transform="translate(70.028 95.095)">
      <path id="Path_1221" data-name="Path 1221" d="M.02-.152h0v0Zm0,0v0H.016s0,0,0,0,0,0,0,0h0v0H.022Z" transform="translate(-0.016 0.156)" fill="#009bad"/>
    </g>
    <g id="Group_1644" data-name="Group 1644" transform="translate(70.036 95.093)">
      <path id="Path_1222" data-name="Path 1222" d="M0-.2v0h0v0H0v0h0v0H0V-.2H0v0H0v0Z" transform="translate(0 0.203)" fill="#009bad"/>
    </g>
    <g id="Group_1645" data-name="Group 1645" transform="translate(70.043 95.095)">
      <path id="Path_1223" data-name="Path 1223" d="M.023-.152H.018v0H.023v0H.016a.006.006,0,0,1,0,0,0,0,0,0,1,0,0l0,0,0,0,0,0Zm0,0h0Z" transform="translate(-0.016 0.156)" fill="#009bad"/>
    </g>
    <g id="Group_1646" data-name="Group 1646" transform="translate(70.053 95.092)">
      <path id="Path_1224" data-name="Path 1224" d="M.021-.214v0h0v.011H.016a.006.006,0,0,1,0,0,0,0,0,0,1,0,0l0,0h0Zm0,0h0a0,0,0,0,0,0,0v0h0v0Z" transform="translate(-0.016 0.219)" fill="#009bad"/>
    </g>
    <g id="Group_1647" data-name="Group 1647" transform="translate(70.068 95.092)">
      <path id="Path_1225" data-name="Path 1225" d="M.02-.209h0a0,0,0,0,0,0,0v0h0v0h0Zm0,0h0l0,0v0a.008.008,0,0,1,0,0H.016V-.219h0Z" transform="translate(-0.016 0.219)" fill="#009bad"/>
    </g>
    <g id="Group_1648" data-name="Group 1648" transform="translate(70.077 95.095)">
      <path id="Path_1226" data-name="Path 1226" d="M0-.156H0L0-.151l0-.005h0l0,.009v0H0v0H0Z" transform="translate(0 0.156)" fill="#009bad"/>
    </g>
    <g id="Group_1649" data-name="Group 1649" transform="translate(70.092 95.095)">
      <path id="Path_1227" data-name="Path 1227" d="M.02-.152h0v0Zm0,0v0H.016s0,0,0,0,0,0,0,0h0v0H.022Z" transform="translate(-0.016 0.156)" fill="#009bad"/>
    </g>
    <g id="Group_1650" data-name="Group 1650" transform="translate(70.101 95.092)">
      <path id="Path_1228" data-name="Path 1228" d="M.016-.219h0v.011h0Z" transform="translate(-0.016 0.219)" fill="#009bad"/>
    </g>
    <g id="Group_1651" data-name="Group 1651" transform="translate(70.106 95.092)">
      <path id="Path_1229" data-name="Path 1229" d="M.016-.216h0v.008h0Zm0,0h0v0h0Z" transform="translate(-0.016 0.219)" fill="#009bad"/>
    </g>
    <g id="Group_1652" data-name="Group 1652" transform="translate(70.11 95.092)">
      <path id="Path_1230" data-name="Path 1230" d="M.006-.219v0h0v0H0v.006H0V-.214H0v0H0a0,0,0,0,1,0,0H0Z" transform="translate(0 0.219)" fill="#009bad"/>
    </g>
    <g id="Group_1653" data-name="Group 1653" transform="translate(70.117 95.095)">
      <path id="Path_1231" data-name="Path 1231" d="M.022-.154h0v.005h0V-.156h0v0h0Z" transform="translate(-0.016 0.156)" fill="#009bad"/>
    </g>
    <g id="Group_1654" data-name="Group 1654" transform="translate(70.124 95.092)">
      <path id="Path_1232" data-name="Path 1232" d="M.016-.216h0v.008h0Zm0,0h0v0h0Z" transform="translate(-0.016 0.219)" fill="#009bad"/>
    </g>
    <g id="Group_1655" data-name="Group 1655" transform="translate(70.129 95.095)">
      <path id="Path_1233" data-name="Path 1233" d="M.02-.155h0v0h0a0,0,0,0,0,0,0v0Zm0,0,0,0v0a.008.008,0,0,1,0,0H.016a.006.006,0,0,1,0,0,0,0,0,0,1,0,0Z" transform="translate(-0.016 0.156)" fill="#009bad"/>
    </g>
    <g id="Group_1656" data-name="Group 1656" transform="translate(70 95.106)">
      <path id="Path_1234" data-name="Path 1234" d="M.006-.219v0h0v0H0v.006H0V-.214H0v0H0a0,0,0,0,1,0,0H0Z" transform="translate(0 0.219)" fill="#009bad"/>
    </g>
    <g id="Group_1657" data-name="Group 1657" transform="translate(70.007 95.109)">
      <path id="Path_1235" data-name="Path 1235" d="M.022-.154h0v.005h0V-.156h0v0h0Z" transform="translate(-0.016 0.156)" fill="#009bad"/>
    </g>
    <g id="Group_1658" data-name="Group 1658" transform="translate(70.014 95.109)">
      <path id="Path_1236" data-name="Path 1236" d="M.02-.155h0v0h0a0,0,0,0,0,0,0v0Zm0,0,0,0v0a.008.008,0,0,1,0,0H.016a.006.006,0,0,1,0,0,0,0,0,0,1,0,0Z" transform="translate(-0.016 0.156)" fill="#009bad"/>
    </g>
    <g id="Group_1659" data-name="Group 1659" transform="translate(70.023 95.109)">
      <path id="Path_1237" data-name="Path 1237" d="M.023-.155h0v.007h0v0h0v.005h0V-.154h0v.005h0V-.156h0v0h0Z" transform="translate(-0.016 0.156)" fill="#009bad"/>
    </g>
    <g id="Group_1660" data-name="Group 1660" transform="translate(70.042 95.107)">
      <path id="Path_1238" data-name="Path 1238" d="M0-.2v0h0v0H0v0h0v0H0V-.2H0v0H0v0Z" transform="translate(0 0.203)" fill="#009bad"/>
    </g>
    <g id="Group_1661" data-name="Group 1661" transform="translate(70.05 95.106)">
      <path id="Path_1239" data-name="Path 1239" d="M.023-.213v0h0v0h0v.005h0V-.219h0v0h0Z" transform="translate(-0.016 0.219)" fill="#009bad"/>
    </g>
    <g id="Group_1662" data-name="Group 1662" transform="translate(70.059 95.109)">
      <path id="Path_1240" data-name="Path 1240" d="M.023-.152H.018v0H.023v0H.016a.006.006,0,0,1,0,0,0,0,0,0,1,0,0l0,0,0,0,0,0Zm0,0h0Z" transform="translate(-0.016 0.156)" fill="#009bad"/>
    </g>
    <g id="Group_1663" data-name="Group 1663" transform="translate(70.074 95.107)">
      <path id="Path_1241" data-name="Path 1241" d="M.031-.2h0l0,.007V-.2h0v.01h0l0-.007v.007h0Z" transform="translate(-0.031 0.203)" fill="#009bad"/>
    </g>
    <g id="Group_1664" data-name="Group 1664" transform="translate(70.085 95.109)">
      <path id="Path_1242" data-name="Path 1242" d="M.02-.155h0v0h0a0,0,0,0,0,0,0v0Zm0,0,0,0v0a.008.008,0,0,1,0,0H.016a.006.006,0,0,1,0,0,0,0,0,0,1,0,0Z" transform="translate(-0.016 0.156)" fill="#009bad"/>
    </g>
    <g id="Group_1665" data-name="Group 1665" transform="translate(70.095 95.109)">
      <path id="Path_1243" data-name="Path 1243" d="M.016-.152v0h0v0h0V-.156h0v.008H.016S.016-.15.016-.152Z" transform="translate(-0.016 0.156)" fill="#009bad"/>
    </g>
    <g id="Group_1666" data-name="Group 1666" transform="translate(70.105 95.109)">
      <path id="Path_1244" data-name="Path 1244" d="M.023-.153v0h0v0h0v.005h0V-.156h0v0h0Z" transform="translate(-0.016 0.156)" fill="#009bad"/>
    </g>
    <g id="Group_1667" data-name="Group 1667" transform="translate(70.121 95.107)">
      <path id="Path_1245" data-name="Path 1245" d="M.031-.2H.038v0a.008.008,0,0,1,0,0h0v0h0Zm0,0v0h0v0h0Z" transform="translate(-0.031 0.203)" fill="#009bad"/>
    </g>
    <g id="Group_1668" data-name="Group 1668" transform="translate(70.13 95.109)">
      <path id="Path_1246" data-name="Path 1246" d="M.022-.154h0v.005h0V-.156h0v0h0Z" transform="translate(-0.016 0.156)" fill="#009bad"/>
    </g>
    <g id="Group_1669" data-name="Group 1669" transform="translate(70.137 95.109)">
      <path id="Path_1247" data-name="Path 1247" d="M.02-.155h0v0h0a0,0,0,0,0,0,0v0Zm0,0,0,0v0a.008.008,0,0,1,0,0H.016a.006.006,0,0,1,0,0,0,0,0,0,1,0,0Z" transform="translate(-0.016 0.156)" fill="#009bad"/>
    </g>
    <g id="Group_1670" data-name="Group 1670" transform="translate(70.145 95.106)">
      <path id="Path_1248" data-name="Path 1248" d="M-.014-.216h0v.01h0v0h0Zm0,0h0v0h0Z" transform="translate(0.016 0.219)" fill="#009bad"/>
    </g>
    <g id="Group_1671" data-name="Group 1671" transform="translate(70.151 95.109)">
      <path id="Path_1249" data-name="Path 1249" d="M.023-.152H.018v0H.023v0H.016a.006.006,0,0,1,0,0,0,0,0,0,1,0,0l0,0,0,0,0,0Zm0,0h0Z" transform="translate(-0.016 0.156)" fill="#009bad"/>
    </g>
    <g id="Group_1672" data-name="Group 1672" transform="translate(70.161 95.109)">
      <path id="Path_1250" data-name="Path 1250" d="M.023-.156v0h0v0h0v0H.016a.006.006,0,0,1,0,0,0,0,0,0,1,0,0l0,0h0Z" transform="translate(-0.016 0.156)" fill="#009bad"/>
    </g>
    <g id="Group_1673" data-name="Group 1673" transform="translate(70.168 95.107)">
      <path id="Path_1251" data-name="Path 1251" d="M0-.2v0h0v0H0v0h0v0H0V-.2H0v0H0v0Z" transform="translate(0 0.203)" fill="#009bad"/>
    </g>
  </g>
</svg>
