<svg xmlns="http://www.w3.org/2000/svg" width="31.577" height="32.721" viewBox="0 0 31.577 32.721">
  <g id="admin" transform="translate(-569 -395)">
    <g id="Group_169" data-name="Group 169" transform="translate(574.453 395)">
      <path id="Path_191" data-name="Path 191" d="M10.817,13.634a6.817,6.817,0,1,1,6.817-6.817A6.825,6.825,0,0,1,10.817,13.634Zm0-12.27A5.454,5.454,0,1,0,16.27,6.817,5.459,5.459,0,0,0,10.817,1.363Z" transform="translate(-4 0)" fill="#003863"/>
    </g>
    <g id="Group_170" data-name="Group 170" transform="translate(569 411.361)">
      <path id="Path_192" data-name="Path 192" d="M11.589,24.27H.682A.682.682,0,0,1,0,23.589V18.135A6.143,6.143,0,0,1,6.135,12h8.18a.682.682,0,0,1,0,1.363H6.135a4.777,4.777,0,0,0-4.772,4.772v4.772H11.589a.682.682,0,1,1,0,1.363Z" transform="translate(0 -12)" fill="#003863"/>
    </g>
    <g id="Group_173" data-name="Group 173" transform="translate(583.777 409.999)">
      <g id="Group_171" data-name="Group 171" transform="translate(4.993 5.452)">
        <path id="Path_193" data-name="Path 193" d="M17.908,21.817a3.408,3.408,0,1,1,3.408-3.408A3.413,3.413,0,0,1,17.908,21.817Zm0-5.454a2.045,2.045,0,1,0,2.045,2.045A2.048,2.048,0,0,0,17.908,16.363Z" transform="translate(-14.5 -15)" fill="#003863"/>
      </g>
      <g id="Group_172" data-name="Group 172">
        <path id="Path_194" data-name="Path 194" d="M20.326,28.724H18.151A1.359,1.359,0,0,1,16.795,27.5l-.173-1.733a6.4,6.4,0,0,1-1.179-.686L13.85,25.8a1.356,1.356,0,0,1-1.741-.562l-1.087-1.883a1.36,1.36,0,0,1,.384-1.789l1.4-1.009a5.177,5.177,0,0,1,0-1.382l-1.4-1.009a1.36,1.36,0,0,1-.384-1.789l1.087-1.883a1.359,1.359,0,0,1,1.741-.562l1.592.719a6.4,6.4,0,0,1,1.179-.686l.173-1.733A1.358,1.358,0,0,1,18.151,11h2.175a1.359,1.359,0,0,1,1.357,1.228l.173,1.733a6.39,6.39,0,0,1,1.179.686l1.592-.719a1.361,1.361,0,0,1,1.741.562l1.087,1.883a1.36,1.36,0,0,1-.384,1.789l-1.4,1.009a5.177,5.177,0,0,1,0,1.382l1.4,1.009a1.36,1.36,0,0,1,.384,1.789L26.37,25.233a1.358,1.358,0,0,1-1.741.562l-1.592-.719a6.4,6.4,0,0,1-1.179.686L21.682,27.5a1.358,1.358,0,0,1-1.357,1.227ZM15.538,23.6a.682.682,0,0,1,.438.16,5.077,5.077,0,0,0,1.517.882.682.682,0,0,1,.444.573l.215,2.142h2.175l.214-2.142a.682.682,0,0,1,.444-.573,5.107,5.107,0,0,0,1.517-.882.681.681,0,0,1,.717-.1l1.969.889,1.087-1.883L24.533,21.42a.686.686,0,0,1-.274-.672,4.318,4.318,0,0,0,0-1.767.684.684,0,0,1,.274-.672l1.742-1.252-1.087-1.883-1.969.888a.683.683,0,0,1-.719-.1,5.027,5.027,0,0,0-1.517-.882.682.682,0,0,1-.444-.573l-.214-2.146H18.151L17.937,14.5a.682.682,0,0,1-.444.573,5.106,5.106,0,0,0-1.517.882.677.677,0,0,1-.717.1l-1.969-.889L12.2,17.052,13.945,18.3a.686.686,0,0,1,.274.672,4.318,4.318,0,0,0,0,1.767.684.684,0,0,1-.274.672L12.2,22.666l1.087,1.883,1.969-.888A.712.712,0,0,1,15.538,23.6Z" transform="translate(-10.838 -11.001)" fill="#003863"/>
      </g>
    </g>
  </g>
</svg>
