<svg xmlns="http://www.w3.org/2000/svg" width="38.814" height="40.22" viewBox="0 0 38.814 40.22">
  <g id="admin-h" transform="translate(-569 -395)">
    <g id="Group_169" data-name="Group 169" transform="translate(575.703 395)">
      <path id="Path_191" data-name="Path 191" d="M12.379,16.758a8.379,8.379,0,1,1,8.379-8.379A8.389,8.389,0,0,1,12.379,16.758Zm0-15.083a6.7,6.7,0,1,0,6.7,6.7A6.71,6.71,0,0,0,12.379,1.676Z" transform="translate(-4)" fill="#009bad"/>
    </g>
    <g id="Group_170" data-name="Group 170" transform="translate(569 415.11)">
      <path id="Path_192" data-name="Path 192" d="M14.245,27.083H.838A.838.838,0,0,1,0,26.245v-6.7A7.55,7.55,0,0,1,7.541,12H17.6a.838.838,0,0,1,0,1.676H7.541a5.872,5.872,0,0,0-5.865,5.865v5.865H14.245a.838.838,0,0,1,0,1.676Z" transform="translate(0 -12)" fill="#009bad"/>
    </g>
    <g id="Group_173" data-name="Group 173" transform="translate(587.163 413.436)">
      <g id="Group_171" data-name="Group 171" transform="translate(6.137 6.702)">
        <path id="Path_193" data-name="Path 193" d="M18.69,23.379a4.19,4.19,0,1,1,4.19-4.19A4.2,4.2,0,0,1,18.69,23.379Zm0-6.7A2.514,2.514,0,1,0,21.2,19.19,2.517,2.517,0,0,0,18.69,16.676Z" transform="translate(-14.5 -15)" fill="#009bad"/>
      </g>
      <g id="Group_172" data-name="Group 172">
        <path id="Path_194" data-name="Path 194" d="M22.5,32.785H19.827a1.67,1.67,0,0,1-1.667-1.51l-.213-2.13A7.869,7.869,0,0,1,16.5,28.3l-1.957.883a1.667,1.667,0,0,1-2.14-.69l-1.336-2.314a1.672,1.672,0,0,1,.473-2.2l1.724-1.24a6.363,6.363,0,0,1,0-1.7L11.537,19.8a1.672,1.672,0,0,1-.473-2.2L12.4,15.289a1.67,1.67,0,0,1,2.14-.69l1.957.883a7.87,7.87,0,0,1,1.45-.843l.213-2.13A1.67,1.67,0,0,1,19.827,11H22.5a1.67,1.67,0,0,1,1.667,1.51l.213,2.13a7.855,7.855,0,0,1,1.45.843l1.957-.883a1.673,1.673,0,0,1,2.14.69l1.336,2.314a1.672,1.672,0,0,1-.473,2.2l-1.724,1.24a6.363,6.363,0,0,1,0,1.7l1.724,1.24a1.672,1.672,0,0,1,.473,2.2L29.929,28.5a1.669,1.669,0,0,1-2.14.69L25.832,28.3a7.869,7.869,0,0,1-1.45.843l-.215,2.132A1.67,1.67,0,0,1,22.5,32.785Zm-5.886-6.293a.838.838,0,0,1,.538.2,6.241,6.241,0,0,0,1.865,1.084.839.839,0,0,1,.546.7l.265,2.633H22.5l.263-2.633a.839.839,0,0,1,.546-.7,6.277,6.277,0,0,0,1.865-1.084.837.837,0,0,1,.881-.121l2.42,1.093,1.336-2.314-2.142-1.538a.843.843,0,0,1-.337-.826,5.308,5.308,0,0,0,0-2.172.841.841,0,0,1,.337-.826l2.142-1.538-1.336-2.314-2.42,1.091a.84.84,0,0,1-.883-.121,6.18,6.18,0,0,0-1.865-1.084.839.839,0,0,1-.546-.7L22.5,12.675H19.827l-.263,2.633a.839.839,0,0,1-.546.7A6.277,6.277,0,0,0,17.152,17.1a.833.833,0,0,1-.881.121l-2.42-1.093-1.336,2.314,2.142,1.538a.843.843,0,0,1,.337.826,5.308,5.308,0,0,0,0,2.172.841.841,0,0,1-.337.826l-2.142,1.538,1.336,2.314,2.42-1.091A.875.875,0,0,1,16.615,26.492Z" transform="translate(-10.838 -11.001)" fill="#009bad"/>
      </g>
    </g>
  </g>
</svg>
