<svg xmlns="http://www.w3.org/2000/svg" width="65.934" height="65.934" viewBox="0 0 65.934 65.934">
  <g id="announcement-h" transform="translate(0 0)">
    <g id="Group_1626" data-name="Group 1626" transform="translate(0 0)">
      <path id="Path_1162" data-name="Path 1162" d="M32.967,0A32.967,32.967,0,1,1,0,32.967,32.967,32.967,0,0,1,32.967,0Z" fill="#fff"/>
      <g id="noun-loudspeaker-3855290" transform="translate(14.652 16.486)">
        <path id="Path_1197" data-name="Path 1197" d="M105.07,224.7a2.756,2.756,0,0,0,2.5,2.735v-5.468A2.74,2.74,0,0,0,105.07,224.7Z" transform="translate(-105.07 -210.145)" fill="#009bad"/>
        <path id="Path_1198" data-name="Path 1198" d="M213.21,354.17v7.69a2.862,2.862,0,0,0,5.724,0V355l-1.829-.825Z" transform="translate(-204.634 -331.864)" fill="#009bad"/>
        <path id="Path_1199" data-name="Path 1199" d="M481.34,221.8a4.808,4.808,0,0,0,0-6.529Z" transform="translate(-451.501 -203.983)" fill="#009bad"/>
        <path id="Path_1200" data-name="Path 1200" d="M411.322,72.887a2.174,2.174,0,0,0-2.163,2.183V99.813a2.163,2.163,0,1,0,4.327,0V75.07A2.175,2.175,0,0,0,411.322,72.887Z" transform="translate(-385.044 -72.887)" fill="#009bad"/>
        <path id="Path_1201" data-name="Path 1201" d="M163.051,176.08h-5.724a3.172,3.172,0,0,0-3.147,3.167v6.412a3.156,3.156,0,0,0,3.147,3.147h5.724Z" transform="translate(-150.286 -167.897)" fill="#009bad"/>
        <path id="Path_1202" data-name="Path 1202" d="M283.4,136.467l8.576,3.934V118.529l-8.576,3.934Z" transform="translate(-269.258 -114.91)" fill="#009bad"/>
        <path id="Path_1203" data-name="Path 1203" d="M537.771,247.69h-4.229a.694.694,0,0,0,0,1.388h4.229a.694.694,0,1,0,0-1.388Z" transform="translate(-498.925 -233.828)" fill="#009bad"/>
        <path id="Path_1204" data-name="Path 1204" d="M502.542,139.95a.691.691,0,0,0,.489-.2l3.009-2.99a.694.694,0,1,0-.978-.984l-3.009,2.99a.694.694,0,0,0,.489,1.186Z" transform="translate(-470.383 -130.601)" fill="#009bad"/>
        <path id="Path_1205" data-name="Path 1205" d="M503.037,322.047a.694.694,0,0,0-.981.981l3.009,3.009a.694.694,0,1,0,.981-.981Z" transform="translate(-470.387 -302.101)" fill="#009bad"/>
      </g>
    </g>
  </g>
</svg>
