<svg xmlns="http://www.w3.org/2000/svg" width="18.035" height="18.035" viewBox="0 0 18.035 18.035">
  <path id="Attachment" d="M153.882,68.552a4.64,4.64,0,0,0-6.549,0l-8.78,8.8a4.54,4.54,0,0,0-1.353,3.251,4.618,4.618,0,0,0,4.627,4.627,4.677,4.677,0,0,0,3.275-1.353l5.98-5.98a2.936,2.936,0,0,0-.095-4.01,2.865,2.865,0,0,0-4.082,0l-4.936,4.936a1.2,1.2,0,0,0,0,1.661,1.16,1.16,0,0,0,1.637,0L148.5,75.6a.57.57,0,1,1,.807.807l-5.861,5.837a2.3,2.3,0,1,1-3.251-3.251l8.8-8.8a2.335,2.335,0,0,1,3.251,0,2.26,2.26,0,0,1,.664,1.614,2.358,2.358,0,0,1-.664,1.637,1.113,1.113,0,0,0-.356.831,1.175,1.175,0,0,0,1.993.831,4.64,4.64,0,0,0,0-6.549Z" transform="translate(-137.2 -67.199)" fill="#999"/>
</svg>
