<svg id="banner_view" data-name="banner view" xmlns="http://www.w3.org/2000/svg" width="16.315" height="13.348" viewBox="0 0 16.315 13.348">
  <path id="Path_1699" data-name="Path 1699" d="M193.238,142.175h-2.551l-.044-.208A2.484,2.484,0,0,0,188.2,140h-2.336a2.492,2.492,0,0,0-2.432,1.928l-.045.208h-2.551a1.965,1.965,0,0,0-1.958,1.995v7.119a2.062,2.062,0,0,0,2.054,2.1h12.207a2.061,2.061,0,0,0,2.054-2.091V144.14a1.965,1.965,0,0,0-1.958-1.965Zm-13.348,1.965a.979.979,0,0,1,.979-.979h2.966a.489.489,0,0,0,.475-.378l.134-.586a1.484,1.484,0,0,1,1.483-1.164h2.336a1.484,1.484,0,0,1,1.483,1.164l.134.586a.489.489,0,0,0,.475.378h2.966a.979.979,0,0,1,.979.979v7.119a1.075,1.075,0,0,1-1.075,1.075H180.935a1.075,1.075,0,0,1-1.075-1.075Z" transform="translate(-178.881 -140.002)" fill="#848484"/>
  <path id="Path_1700" data-name="Path 1700" d="M226.035,227.9a.63.63,0,1,1-.63-.63.63.63,0,0,1,.63.63" transform="translate(-222.586 -223.107)" fill="#848484"/>
  <path id="Path_1701" data-name="Path 1701" d="M280.521,236.866a3.478,3.478,0,1,0-2.459-1.019A3.478,3.478,0,0,0,280.521,236.866Zm-2.492-3.478h0a2.5,2.5,0,1,1,.732,1.76,2.491,2.491,0,0,1-.732-1.76Z" transform="translate(-272.363 -225.624)" fill="#848484"/>
</svg>
