<svg id="Group_3694" data-name="Group 3694" xmlns="http://www.w3.org/2000/svg" width="55" height="55" viewBox="0 0 55 55">
  <g id="Group_1627" data-name="Group 1627">
    <g id="Group_1626" data-name="Group 1626">
      <path id="Path_1162" data-name="Path 1162" d="M27.5,0A27.5,27.5,0,1,1,0,27.5,27.5,27.5,0,0,1,27.5,0Z" fill="#009bad" opacity="0.05"/>
    </g>
  </g>
  <g id="Group_1629" data-name="Group 1629" transform="translate(10.916 18.193)">
    <g id="noun-birthday-2870533">
      <path id="Path_1181" data-name="Path 1181" d="M149.172,110.934a.8.8,0,1,1,.8-.8A.8.8,0,0,1,149.172,110.934Z" transform="translate(-147.007 -104.311)" fill="#009bad"/>
      <path id="Path_1182" data-name="Path 1182" d="M224.552,229.394a.8.8,0,1,1,.8-.8A.8.8,0,0,1,224.552,229.394Z" transform="translate(-216.774 -213.951)" fill="#009bad"/>
      <path id="Path_1183" data-name="Path 1183" d="M547.632,197.084a.8.8,0,1,1,.8-.8A.8.8,0,0,1,547.632,197.084Z" transform="translate(-515.798 -184.047)" fill="#009bad"/>
      <path id="Path_1184" data-name="Path 1184" d="M483.012,67.857a.8.8,0,1,1,.8-.8A.8.8,0,0,1,483.012,67.857Z" transform="translate(-455.989 -64.442)" fill="#009bad"/>
      <path id="Path_1185" data-name="Path 1185" d="M495.974,231.908l-1.134-1.134,1.134-1.134,1.134,1.134Z" transform="translate(-467.679 -215.663)" fill="#009bad"/>
      <path id="Path_1186" data-name="Path 1186" d="M205.194,46.984,204.06,45.85l1.134-1.134,1.134,1.134Z" transform="translate(-198.55 -44.509)" fill="#009bad"/>
      <path id="Path_1187" data-name="Path 1187" d="M285.828,176.028H272.472a.561.561,0,0,1-.561-.561v-9.713a.561.561,0,0,1,.561-.561h13.356a.561.561,0,0,1,.561.561v9.713a.562.562,0,0,1-.562.561Zm-12.794-1.123h12.234v-8.591H273.034Z" transform="translate(-261.349 -156.014)" fill="#009bad"/>
      <path id="Path_1188" data-name="Path 1188" d="M265.921,121.035H249.082a.561.561,0,0,1-.561-.561v-3.643a.561.561,0,0,1,.561-.561h16.839a.561.561,0,0,1,.561.561v3.643A.561.561,0,0,1,265.921,121.035Zm-16.277-1.123H265.36v-2.52H249.644Z" transform="translate(-239.7 -110.735)" fill="#009bad"/>
      <path id="Path_1189" data-name="Path 1189" d="M294.323,53.912a.565.565,0,0,1-.128-.015c-.371-.087-.9-.166-1.466-.249-1.684-.25-2.92-.465-3.488-.96a2.967,2.967,0,0,1-1.016-1.974A2.759,2.759,0,0,1,291,47.683a2.988,2.988,0,0,1,1.96.741c.567.494.958,1.7,1.448,3.345.153.514.3,1,.427,1.343a.562.562,0,0,1-.5.8h-.007ZM291,48.806a1.666,1.666,0,0,0-1.26.56,1.649,1.649,0,0,0-.394,1.246,1.85,1.85,0,0,0,.636,1.229,9.411,9.411,0,0,0,2.915.7l.6.09c-.053-.174-.107-.355-.162-.539a9.639,9.639,0,0,0-1.11-2.819A1.864,1.864,0,0,0,291,48.806Z" transform="translate(-276.436 -47.255)" fill="#009bad"/>
      <path id="Path_1190" data-name="Path 1190" d="M363.313,48.588a.561.561,0,0,1-.546-.69c.084-.358.164-.877.249-1.428.261-1.7.484-2.944.978-3.511a2.971,2.971,0,0,1,2.236-1.029,2.755,2.755,0,0,1,2.766,2.651,2.969,2.969,0,0,1-.738,2.094c-.5.568-1.69.95-3.324,1.427-.547.16-1.064.311-1.419.447a.557.557,0,0,1-.2.038Zm2.916-5.535a1.849,1.849,0,0,0-1.39.644,9.636,9.636,0,0,0-.714,2.944c-.029.19-.058.377-.087.556.186-.056.381-.113.58-.171a9.4,9.4,0,0,0,2.793-1.087,1.851,1.851,0,0,0,.462-1.3,1.649,1.649,0,0,0-.561-1.181,1.624,1.624,0,0,0-1.083-.4Z" transform="translate(-345.425 -41.93)" fill="#009bad"/>
      <path id="Path_1191" data-name="Path 1191" d="M378.312,175.678a.561.561,0,0,1-.561-.561V165.4a.561.561,0,1,1,1.123,0v9.713A.562.562,0,0,1,378.312,175.678Z" transform="translate(-359.308 -155.69)" fill="#009bad"/>
      <path id="Path_1192" data-name="Path 1192" d="M346,175.678a.561.561,0,0,1-.561-.561V165.4a.561.561,0,0,1,1.123,0v9.713A.562.562,0,0,1,346,175.678Z" transform="translate(-329.404 -155.69)" fill="#009bad"/>
      <path id="Path_1193" data-name="Path 1193" d="M133.027,205.525a.56.56,0,0,1-.288-.08l-2.2-1.32a.986.986,0,0,1,0-1.691l1.84-1.1-1.443-1.082a.992.992,0,0,1,.151-1.677l1.165-.583a.561.561,0,0,1,.5,1l-.973.487,1.413,1.06a.991.991,0,0,1,.394.789v.028a.991.991,0,0,1-.479.845l-1.8,1.079,2,1.2a.561.561,0,0,1-.289,1.042Z" transform="translate(-130.06 -186.313)" fill="#009bad"/>
      <path id="Path_1194" data-name="Path 1194" d="M542.257,77.078a.56.56,0,0,1-.288-.08l-2.2-1.32a.986.986,0,0,1,0-1.691l1.84-1.1L540.166,71.8a.992.992,0,0,1,.151-1.677l1.165-.583a.561.561,0,1,1,.5,1l-.973.486,1.413,1.06a.991.991,0,0,1,.394.789v.028a.992.992,0,0,1-.478.846l-1.8,1.079,2,1.2a.561.561,0,0,1-.289,1.042Z" transform="translate(-508.819 -67.43)" fill="#009bad"/>
    </g>
  </g>
</svg>
