<svg xmlns="http://www.w3.org/2000/svg" width="65.934" height="65.934" viewBox="0 0 65.934 65.934">
  <g id="CEO" transform="translate(0.368 0.198)">
    <g id="Group_1626" data-name="Group 1626" transform="translate(0 0)">
      <path id="Path_1162" data-name="Path 1162" d="M32.967,0A32.967,32.967,0,1,1,0,32.967,32.967,32.967,0,0,1,32.967,0Z" transform="translate(-0.368 -0.198)" fill="#fff"/>
      <g id="Group_3279" data-name="Group 3279" transform="translate(1.123 0.674)">
        <path id="Path_2667" data-name="Path 2667" d="M141.615,200.219l2.141,1.537a.3.3,0,0,0,.255,0l2.145-1.54a1.665,1.665,0,0,1,1.874,0l2.141,1.537a.3.3,0,0,0,.254,0l2.145-1.54a1.665,1.665,0,0,1,1.874,0l2.141,1.537a.3.3,0,0,0,.254,0l2.145-1.54a1.665,1.665,0,0,1,1.874,0l3.183,2.284v-4.1a2.077,2.077,0,0,0-2.08-2.08H138.634a2.077,2.077,0,0,0-2.08,2.08v4.1l3.186-2.288a1.665,1.665,0,0,1,1.875,0Z" transform="translate(-118.611 -169.944)" fill="#009bad"/>
        <path id="Path_2668" data-name="Path 2668" d="M207.8,128.332a2.421,2.421,0,0,0-.053-.5,3.824,3.824,0,0,1-4.8,0,2.429,2.429,0,0,0-.052.5v2.524h4.9Z" transform="translate(-180.678 -105.861)" fill="#009bad"/>
        <path id="Path_2669" data-name="Path 2669" d="M205.338,28.042a2.453,2.453,0,0,0,2.454-2.448c0-1.123-1.463-3.037-1.914-3.592a.711.711,0,0,0-1.082,0c-.444.555-1.907,2.468-1.907,3.592A2.452,2.452,0,0,0,205.338,28.042Z" transform="translate(-180.675 -6.611)" fill="#009bad"/>
        <path id="Path_2670" data-name="Path 2670" d="M316.888,128.354a2.426,2.426,0,0,0-.052-.5,3.818,3.818,0,0,1-4.79,0,2.422,2.422,0,0,0-.052.5v2.524h4.9Z" transform="translate(-282.754 -105.883)" fill="#009bad"/>
        <path id="Path_2671" data-name="Path 2671" d="M314.433,27.842a2.447,2.447,0,0,0,2.448-2.448c0-1.123-1.456-3.037-1.907-3.592a.683.683,0,0,0-.541-.263.693.693,0,0,0-.541.264c-.444.555-1.907,2.468-1.907,3.592a2.447,2.447,0,0,0,2.448,2.447Z" transform="translate(-282.747 -6.411)" fill="#009bad"/>
        <path id="Path_2672" data-name="Path 2672" d="M425.974,128.35a2.426,2.426,0,0,0-.052-.5,3.818,3.818,0,0,1-4.791,0,2.428,2.428,0,0,0-.052.5v2.524h4.9Z" transform="translate(-384.816 -105.879)" fill="#009bad"/>
        <path id="Path_2673" data-name="Path 2673" d="M423.523,27.842a2.447,2.447,0,0,0,2.448-2.448c0-1.123-1.463-3.037-1.907-3.592a.694.694,0,0,0-.541-.263.683.683,0,0,0-.541.264c-.451.555-1.907,2.468-1.907,3.592a2.447,2.447,0,0,0,2.448,2.447Z" transform="translate(-384.813 -6.411)" fill="#009bad"/>
        <path id="Path_2674" data-name="Path 2674" d="M164.033,276.72l-3.993-2.866a.3.3,0,0,0-.255,0l-2.146,1.541a1.669,1.669,0,0,1-1.873,0l-2.141-1.538a.3.3,0,0,0-.254,0l-2.146,1.541a1.669,1.669,0,0,1-1.873,0l-2.141-1.538a.3.3,0,0,0-.254,0l-2.146,1.541a1.669,1.669,0,0,1-1.873,0l-2.141-1.538a.3.3,0,0,0-.256,0l-4,2.87v2.283h27.485Z" transform="translate(-118.604 -242.454)" fill="#009bad"/>
        <path id="Path_2675" data-name="Path 2675" d="M143.922,375.849H114.953a.7.7,0,0,0-.693.693V377.6a2.777,2.777,0,0,0,2.773,2.774H126.8v1.394a2.142,2.142,0,0,1-.4,1.234l-1.588,2.219a.709.709,0,0,0-.049.721.69.69,0,0,0,.617.375h8.133a.7.7,0,0,0,.693-.693.7.7,0,0,0-.215-.5L132.475,383a2.135,2.135,0,0,1-.388-1.234v-1.393h9.755a2.777,2.777,0,0,0,2.774-2.774v-1.061a.691.691,0,0,0-.693-.693Z" transform="translate(-97.751 -337.91)" fill="#009bad"/>
      </g>
    </g>
  </g>
</svg>
