<svg xmlns="http://www.w3.org/2000/svg" width="27.694" height="20.068" viewBox="0 0 27.694 20.068">
  <g id="birthday" transform="translate(-72.078 -100.258)">
    <path id="Path_563" data-name="Path 563" d="M489.921,333.982a.906.906,0,1,0-.906-.906A.907.907,0,0,0,489.921,333.982Zm0-1.216a.315.315,0,1,1-.315.315A.314.314,0,0,1,489.921,332.766Z" transform="translate(-393.604 -218.653)" fill="#fff"/>
    <path id="Path_564" data-name="Path 564" d="M170.441,333.982a.906.906,0,1,0-.906-.906A.907.907,0,0,0,170.441,333.982Zm0-1.216a.315.315,0,1,1-.315.315A.314.314,0,0,1,170.441,332.766Z" transform="translate(-94.951 -218.653)" fill="#fff"/>
    <path id="Path_565" data-name="Path 565" d="M250.281,333.982a.906.906,0,1,0-.906-.906A.907.907,0,0,0,250.281,333.982Zm0-1.216a.315.315,0,1,1-.315.315A.314.314,0,0,1,250.281,332.766Z" transform="translate(-169.174 -218.653)" fill="#fff"/>
    <path id="Path_566" data-name="Path 566" d="M330.121,333.982a.906.906,0,1,0-.906-.906A.907.907,0,0,0,330.121,333.982Zm0-1.216a.315.315,0,1,1-.315.315A.314.314,0,0,1,330.121,332.766Z" transform="translate(-244.228 -218.653)" fill="#fff"/>
    <path id="Path_567" data-name="Path 567" d="M410.081,333.982a.906.906,0,1,0-.906-.906A.907.907,0,0,0,410.081,333.982Zm0-1.216a.315.315,0,1,1-.315.315A.314.314,0,0,1,410.081,332.766Z" transform="translate(-319.396 -218.653)" fill="#fff"/>
    <path id="Path_568" data-name="Path 568" d="M140.386,116.572h-.4V107.72a1.626,1.626,0,0,0-1.668-1.587l-4.671.006v-1.758a1.6,1.6,0,0,0,1.213-1.953,1.644,1.644,0,0,0-.237-.5l-1.078-1.508a.4.4,0,0,0-.533-.1.382.382,0,0,0-.1.1l-1.078,1.508a1.554,1.554,0,0,0,.449,2.228,1.748,1.748,0,0,0,.6.244v1.74l-4.78.006v-1.758a1.6,1.6,0,0,0,1.213-1.953,1.644,1.644,0,0,0-.237-.5l-1.078-1.508a.4.4,0,0,0-.533-.1.381.381,0,0,0-.1.1l-1.078,1.5a1.554,1.554,0,0,0,.449,2.228,1.749,1.749,0,0,0,.6.244v1.746l-4.78.006v-1.764a1.6,1.6,0,0,0,1.213-1.953,1.644,1.644,0,0,0-.237-.5l-1.078-1.508a.4.4,0,0,0-.533-.1.382.382,0,0,0-.1.1l-1.078,1.5a1.554,1.554,0,0,0,.449,2.228,1.749,1.749,0,0,0,.6.244v1.752l-4.671.006a1.634,1.634,0,0,0-1.668,1.587v8.833h-.411a1.121,1.121,0,1,0,0,2.24h.841a1.949,1.949,0,0,0,1.931,1.508h19.814a1.955,1.955,0,0,0,1.931-1.508h.841a1.151,1.151,0,0,0,1.168-1.129,1.136,1.136,0,0,0-1.161-1.117Zm-7.925-13.252a.84.84,0,0,1,0-.983l.757-1.062.757,1.062a.846.846,0,0,1-.244,1.209A.939.939,0,0,1,132.462,103.319Zm-5.55,0a.84.84,0,0,1,0-.983l.757-1.062.757,1.062a.846.846,0,0,1-.244,1.209.946.946,0,0,1-1.27-.226Zm-5.544,0a.84.84,0,0,1,0-.983l.757-1.062.757,1.062a.846.846,0,0,1-.244,1.209A.945.945,0,0,1,121.368,103.319Zm-5.165,4.42a.88.88,0,0,1,.9-.855l21.213-.018a.88.88,0,0,1,.9.855v.61a2.35,2.35,0,0,1-3.118.824,2.246,2.246,0,0,1-.911-.9.382.382,0,0,0-.34-.2.388.388,0,0,0-.34.2,2.347,2.347,0,0,1-3.086.934,2.248,2.248,0,0,1-.982-.934.383.383,0,0,0-.34-.2.4.4,0,0,0-.34.2,2.347,2.347,0,0,1-3.086.934,2.215,2.215,0,0,1-.982-.934c0-.006-.006-.012-.013-.018a.4.4,0,0,0-.526-.134.368.368,0,0,0-.148.146,2.347,2.347,0,0,1-3.086.934,2.215,2.215,0,0,1-.982-.934.4.4,0,0,0-.52-.159.408.408,0,0,0-.167.159,2.347,2.347,0,0,1-3.086.934,2.243,2.243,0,0,1-.943-.861v-.592Zm2,2.43a3.143,3.143,0,0,0,2.381-1.074,3.174,3.174,0,0,0,4.312.427,3.135,3.135,0,0,0,.443-.421,3.093,3.093,0,0,0,2.381,1.074,3.143,3.143,0,0,0,2.381-1.074,3.174,3.174,0,0,0,4.312.427,2.9,2.9,0,0,0,.449-.427,3.167,3.167,0,0,0,4.312.421c.019-.018.038-.031.058-.049v7.105H116.2v-7.105a3.205,3.205,0,0,0,2,.7Zm19.416,9.419H117.8a1.2,1.2,0,0,1-1.136-.775H138.75a1.2,1.2,0,0,1-1.136.775Zm2.772-1.508H115.028a.388.388,0,1,1,0-.775h25.365a.4.4,0,0,1,.4.391.4.4,0,0,1-.411.385Z" transform="translate(-41.776)" fill="#fff"/>
  </g>
</svg>
