<svg xmlns="http://www.w3.org/2000/svg" width="20.632" height="20.632" viewBox="0 0 20.632 20.632">
  <g id="calendar_" data-name="calendar " transform="translate(-12.2 0)">
    <g id="Group_181" data-name="Group 181" transform="translate(12.2 0)">
      <path id="Path_148" data-name="Path 148" d="M32.76,4.027A3.274,3.274,0,0,0,31.8,2.339a2.86,2.86,0,0,0-.506-.383l-.024-.022c-.024-.022-.048-.022-.073-.045a1,1,0,0,0-.217-.113h-.024a3.773,3.773,0,0,0-1.687-.383H27.771V.427a.459.459,0,0,0-.916,0V1.35H18.2V.427A.459.459,0,0,0,17.741,0a.443.443,0,0,0-.458.427V1.35H15.791a3.734,3.734,0,0,0-1.326.248,3.782,3.782,0,0,0-1.2.742,3.907,3.907,0,0,0-.506.585,3.881,3.881,0,0,0-.361.7,2.58,2.58,0,0,0-.118.4A3.214,3.214,0,0,0,12.2,4.7V17.324a3.209,3.209,0,0,0,1.036,2.34,3.667,3.667,0,0,0,2.507.968H29.289a3.683,3.683,0,0,0,2.506-.967,3.194,3.194,0,0,0,1.037-2.34V4.7A3.214,3.214,0,0,0,32.76,4.027ZM13.14,4.68a3.153,3.153,0,0,1,.048-.5,3.537,3.537,0,0,1,.144-.472,3.057,3.057,0,0,1,.337-.54c.073-.09.144-.157.217-.248a3.725,3.725,0,0,1,.482-.36,2.822,2.822,0,0,1,1.374-.36h1.494v.922a.459.459,0,0,0,.916,0V2.2h8.773v.923a.459.459,0,0,0,.916,0V2.2h1.494a2.753,2.753,0,0,1,1.374.36,3.724,3.724,0,0,1,.482.36,2.339,2.339,0,0,1,.723,1.26,3.441,3.441,0,0,1,.048.5V6.525H13.14ZM31.989,17.3a2.417,2.417,0,0,1-.771,1.777,2.761,2.761,0,0,1-1.88.72H15.791a2.761,2.761,0,0,1-1.882-.72,2.4,2.4,0,0,1-.771-1.755V7.357h18.85Z" transform="translate(-12.2 0)" fill="#fff"/>
    </g>
  </g>
</svg>
