<svg xmlns="http://www.w3.org/2000/svg" width="15.328" height="14.971" viewBox="0 0 15.328 14.971">
  <g id="calendar" transform="translate(0 0)">
    <g id="Group_2860" data-name="Group 2860" transform="translate(0 0)">
      <g id="Group_2843" data-name="Group 2843">
        <g id="noun-schedule-4670466">
          <path id="Path_2369" data-name="Path 2369" d="M336.6,256.67a4.1,4.1,0,1,0,4.1,4.1A4.1,4.1,0,0,0,336.6,256.67Zm0,1.069a3.03,3.03,0,1,1-3.03,3.03A3.031,3.031,0,0,1,336.6,257.739Z" transform="translate(-325.371 -249.897)" fill="#00345d" fill-rule="evenodd"/>
          <path id="Path_2370" data-name="Path 2370" d="M437.5,327.2v1.782a.535.535,0,0,0,.535.535h1.782a.535.535,0,1,0,0-1.069h-1.248V327.2a.535.535,0,1,0-1.069,0Z" transform="translate(-427.163 -317.759)" fill="#00345d" fill-rule="evenodd"/>
          <path id="Path_2371" data-name="Path 2371" d="M114.491,75.517V71.953a1.96,1.96,0,0,0-1.961-1.961H101.125a1.96,1.96,0,0,0-1.961,1.961v9.624a1.96,1.96,0,0,0,1.961,1.961h4.99a.535.535,0,0,0,0-1.069h-4.99a.891.891,0,0,1-.891-.891V71.953a.891.891,0,0,1,.891-.891h11.406a.891.891,0,0,1,.891.891v3.565a.535.535,0,0,0,1.069,0Z" transform="translate(-99.164 -68.923)" fill="#00345d" fill-rule="evenodd"/>
          <path id="Path_2372" data-name="Path 2372" d="M113.953,175H99.695a.535.535,0,0,0,0,1.069h14.258a.535.535,0,0,0,0-1.069Z" transform="translate(-99.16 -170.723)" fill="#00345d" fill-rule="evenodd"/>
          <path id="Path_2373" data-name="Path 2373" d="M449.17,35.535v2.139a.535.535,0,1,0,1.069,0V35.535a.535.535,0,1,0-1.069,0Z" transform="translate(-438.476 -35)" fill="#00345d" fill-rule="evenodd"/>
          <path id="Path_2374" data-name="Path 2374" d="M215.83,35.535v2.139a.535.535,0,0,0,1.069,0V35.535a.535.535,0,0,0-1.069,0Z" transform="translate(-212.265 -35)" fill="#00345d" fill-rule="evenodd"/>
        </g>
        <path id="Path_2375" data-name="Path 2375" d="M410.336,215h.441a.4.4,0,0,0,0-.8h-.441a.4.4,0,0,0,0,.8Z" transform="translate(-400.654 -208.505)" fill="#00345d"/>
        <path id="Path_2376" data-name="Path 2376" d="M492.506,215h.449a.4.4,0,0,0,0-.8h-.449a.4.4,0,1,0,0,.8Z" transform="translate(-480.313 -208.505)" fill="#00345d"/>
        <path id="Path_2377" data-name="Path 2377" d="M164.119,214.2h-.446a.4.4,0,0,0,0,.8h.446a.4.4,0,1,0,0-.8Z" transform="translate(-161.527 -208.505)" fill="#00345d"/>
        <path id="Path_2378" data-name="Path 2378" d="M246.286,214.2h-.449a.4.4,0,1,0,0,.8h.449a.4.4,0,0,0,0-.8Z" transform="translate(-241.181 -208.505)" fill="#00345d"/>
        <path id="Path_2379" data-name="Path 2379" d="M328.963,214.2h-.433a.4.4,0,0,0,0,.8h.446a.4.4,0,0,0,0-.8Z" transform="translate(-321.348 -208.505)" fill="#00345d"/>
        <path id="Path_2380" data-name="Path 2380" d="M164.119,214.2h-.446a.4.4,0,0,0,0,.8h.446a.4.4,0,1,0,0-.8Z" transform="translate(-161.527 -206.978)" fill="#00345d"/>
        <path id="Path_2381" data-name="Path 2381" d="M246.286,214.2h-.449a.4.4,0,1,0,0,.8h.449a.4.4,0,0,0,0-.8Z" transform="translate(-241.181 -206.978)" fill="#00345d"/>
        <path id="Path_2382" data-name="Path 2382" d="M328.963,214.2h-.433a.4.4,0,0,0,0,.8h.446a.4.4,0,0,0,0-.8Z" transform="translate(-321.348 -206.978)" fill="#00345d"/>
        <path id="Path_2383" data-name="Path 2383" d="M164.119,214.2h-.446a.4.4,0,0,0,0,.8h.446a.4.4,0,1,0,0-.8Z" transform="translate(-161.527 -205.328)" fill="#00345d"/>
        <path id="Path_2384" data-name="Path 2384" d="M246.286,214.2h-.449a.4.4,0,1,0,0,.8h.449a.4.4,0,0,0,0-.8Z" transform="translate(-241.181 -205.328)" fill="#00345d"/>
        <path id="Path_2385" data-name="Path 2385" d="M164.119,214.2h-.446a.4.4,0,0,0,0,.8h.446a.4.4,0,1,0,0-.8Z" transform="translate(-161.527 -203.8)" fill="#00345d"/>
        <path id="Path_2386" data-name="Path 2386" d="M246.286,214.2h-.449a.4.4,0,1,0,0,.8h.449a.4.4,0,0,0,0-.8Z" transform="translate(-241.181 -203.8)" fill="#00345d"/>
        <path id="Path_2387" data-name="Path 2387" d="M164.119,214.2h-.446a.4.4,0,0,0,0,.8h.446a.4.4,0,1,0,0-.8Z" transform="translate(-161.527 -202.272)" fill="#00345d"/>
        <path id="Path_2388" data-name="Path 2388" d="M246.286,214.2h-.449a.4.4,0,1,0,0,.8h.449a.4.4,0,0,0,0-.8Z" transform="translate(-241.181 -202.272)" fill="#00345d"/>
      </g>
    </g>
  </g>
</svg>
