<svg xmlns="http://www.w3.org/2000/svg" width="19.65" height="19.652" viewBox="0 0 19.65 19.652">
  <g id="Group_3354" data-name="Group 3354" transform="translate(-1052.349 -521)">
    <path id="Path_2706" data-name="Path 2706" d="M107.705,27.883a9.826,9.826,0,1,0,9.825,9.826A9.837,9.837,0,0,0,107.705,27.883Zm0,17.688a7.862,7.862,0,1,1,7.861-7.862A7.871,7.871,0,0,1,107.705,45.571Z" transform="translate(954.469 493.117)" fill="#999"/>
    <path id="Path_2707" data-name="Path 2707" d="M326.748,139.117a.973.973,0,0,0,.016-.153v-4.283a.982.982,0,1,0-1.964,0v4.284c0,.084-.01,1.034.3,1.311L328.136,143a.982.982,0,0,0,1.311-1.463Z" transform="translate(736.393 391.424)" fill="#999"/>
  </g>
</svg>
