<svg xmlns="http://www.w3.org/2000/svg" width="17" height="17" viewBox="0 0 17 17">
  <g id="clock_4_" data-name="clock (4)" opacity="0.26">
    <path id="Path_345" data-name="Path 345" d="M8.5,17A8.5,8.5,0,1,1,17,8.5,8.509,8.509,0,0,1,8.5,17Zm0-15.937A7.438,7.438,0,1,0,15.938,8.5,7.446,7.446,0,0,0,8.5,1.063Zm0,0"/>
    <path id="Path_346" data-name="Path 346" d="M244.25,111.072a.527.527,0,0,1-.375-.156l-3.719-3.719a.531.531,0,0,1-.156-.375v-4.958a.531.531,0,1,1,1.063,0V106.6l3.563,3.563a.532.532,0,0,1-.375.907Zm0,0" transform="translate(-232.031 -97.967)"/>
  </g>
</svg>
