<svg id="cloud" xmlns="http://www.w3.org/2000/svg" width="32.851" height="29.834" viewBox="0 0 32.851 29.834">
  <g id="noun-rainy-4336158">
    <path id="Path_1465" data-name="Path 1465" d="M225.239,104.3a.882.882,0,0,1-.77-.451l-1.227-2.188h0a.882.882,0,1,1,1.538-.863l1.227,2.188a.882.882,0,0,1-.768,1.314Z" transform="translate(-216.931 -98.799)" fill="#fdd020"/>
    <path id="Path_1466" data-name="Path 1466" d="M170.446,157.755a.879.879,0,0,1-.45-.123l-2.156-1.281a.882.882,0,1,1,.9-1.517l2.157,1.281a.882.882,0,0,1-.451,1.64Z" transform="translate(-165.703 -148.776)" fill="#fdd020"/>
    <path id="Path_1467" data-name="Path 1467" d="M149.663,231.457h-.011l-2.508-.031a.882.882,0,0,1,.01-1.764h.011l2.508.031h0a.882.882,0,0,1-.011,1.764Z" transform="translate(-146.267 -217.685)" fill="#fdd020"/>
    <path id="Path_1468" data-name="Path 1468" d="M358.513,106.126a.882.882,0,0,1-.758-1.332l1.281-2.157a.882.882,0,0,1,1.517.9l-1.281,2.157A.882.882,0,0,1,358.513,106.126Z" transform="translate(-340.588 -100.505)" fill="#fdd020"/>
    <path id="Path_1469" data-name="Path 1469" d="M299.07,85.4h-.011a.883.883,0,0,1-.871-.893L298.219,82h0a.882.882,0,0,1,.882-.871h.011a.882.882,0,0,1,.871.893l-.031,2.508A.882.882,0,0,1,299.07,85.4Z" transform="translate(-285.937 -81.13)" fill="#fdd020"/>
    <path id="Path_1470" data-name="Path 1470" d="M220.116,158.009a6.971,6.971,0,0,1,2.436.437.177.177,0,0,0,.144-.012.175.175,0,0,0,.087-.115,8.747,8.747,0,0,1,4.019-5.457.176.176,0,0,0,0-.3,6.609,6.609,0,0,0-9.925,5.723c0,.083,0,.166.006.248h0a.177.177,0,0,0,.251.152A6.944,6.944,0,0,1,220.116,158.009Z" transform="translate(-211.181 -145.979)" fill="#fdd020"/>
    <path id="Path_1471" data-name="Path 1471" d="M215.381,182.056q-.118,0-.234.006a.176.176,0,0,1-.184-.177v-.056h0a7.442,7.442,0,0,0-14.851-.687.176.176,0,0,1-.266.134A5.771,5.771,0,1,0,196.891,192h18.489a4.974,4.974,0,0,0,0-9.948Z" transform="translate(-187.503 -166.867)" fill="#a3d4f7"/>
  </g>
  <path id="Path_1510" data-name="Path 1510" d="M3.512,3.051V0L.876,1.507A1.76,1.76,0,1,0,3.512,3.051Z" transform="translate(10.625 25.669) rotate(-30)" fill="#60a2d7"/>
  <path id="Path_1511" data-name="Path 1511" d="M3.512,3.051V0L.876,1.507A1.76,1.76,0,1,0,3.512,3.051Z" transform="matrix(0.899, -0.438, 0.438, 0.899, 15.424, 20.784)" fill="#60a2d7"/>
  <path id="Path_1512" data-name="Path 1512" d="M.876,4.558A1.75,1.75,0,0,0,3.512,3.051V0L.876,1.507A1.767,1.767,0,0,0,.876,4.558Z" transform="matrix(0.848, -0.53, 0.53, 0.848, 20.002, 25.764)" fill="#60a2d7"/>
</svg>
