<svg xmlns="http://www.w3.org/2000/svg" width="25.54" height="25.763" viewBox="0 0 25.54 25.763">
  <path id="comment-icon" d="M6.348,23.081l4-3.839a.805.805,0,0,1,.551-.222H23.481a.451.451,0,0,0,.453-.453V2.059A.453.453,0,0,0,23.8,1.74a.459.459,0,0,0-.319-.134H2.059a.47.47,0,0,0-.455.453V18.565a.459.459,0,0,0,.455.453H5.547a.8.8,0,0,1,.8.8v3.26Zm-.384-9.755a.8.8,0,1,1,0-1.606H17.076a.8.8,0,1,1,0,1.606Zm0-5.212a.8.8,0,1,1,0-1.6H19.592a.8.8,0,0,1,0,1.6Zm5.26,12.508L6.137,25.5a.8.8,0,0,1-1.392-.543V20.622H2.059A2.069,2.069,0,0,1,0,18.565V2.059A2.076,2.076,0,0,1,2.059,0H23.481A2.069,2.069,0,0,1,25.54,2.059V18.565a2.065,2.065,0,0,1-2.059,2.057Z" fill="#686868"/>
</svg>
