<svg xmlns="http://www.w3.org/2000/svg" width="33.116" height="33.121" viewBox="0 0 33.116 33.121">
  <g id="content_editor" opacity="0.8">
    <g id="Group_126" data-name="Group 126" transform="translate(27.362 11.586)">
      <g id="Group_125" data-name="Group 125">
        <path id="Path_113" data-name="Path 113" d="M427.74,179.779a2.913,2.913,0,0,0-4.1.355l-.629.744,4.46,3.742.6-.742A2.9,2.9,0,0,0,427.74,179.779Z" transform="translate(-423.012 -179.099)" fill="#fff"/>
      </g>
    </g>
    <g id="Group_128" data-name="Group 128" transform="translate(17.633 22.676)">
      <g id="Group_127" data-name="Group 127">
        <path id="Path_114" data-name="Path 114" d="M274.478,350.534l-.332.393a2.934,2.934,0,0,0-.6,1.194l-.9,3.775a.971.971,0,0,0,1.33,1.116l3.562-1.545a2.936,2.936,0,0,0,1.07-.8l.333-.394Z" transform="translate(-272.617 -350.534)" fill="#fff"/>
      </g>
    </g>
    <g id="Group_130" data-name="Group 130" transform="translate(20.746 14.847)">
      <g id="Group_129" data-name="Group 129">
        <path id="Path_115" data-name="Path 115" d="M326.1,229.517l-5.364,6.347,4.46,3.743,5.364-6.347Z" transform="translate(-320.733 -229.517)" fill="#fff"/>
      </g>
    </g>
    <g id="Group_132" data-name="Group 132" transform="translate(19.407 0.148)">
      <g id="Group_131" data-name="Group 131">
        <path id="Path_116" data-name="Path 116" d="M304.954,6.448l-3.686-3.5a2.864,2.864,0,0,0-1.229-.651V7.968H305.8A2.923,2.923,0,0,0,304.954,6.448Z" transform="translate(-300.039 -2.294)" fill="#fff"/>
      </g>
    </g>
    <g id="Group_134" data-name="Group 134" transform="translate(0)">
      <g id="Group_133" data-name="Group 133">
        <path id="Path_117" data-name="Path 117" d="M16.712,23.812a4.891,4.891,0,0,1,1-1.987l7.556-8.941V7.763H18.475a.97.97,0,0,1-.97-.97V0H2.949A2.914,2.914,0,0,0,.038,2.911v27.3a2.914,2.914,0,0,0,2.911,2.911H22.356a2.914,2.914,0,0,0,2.911-2.911V27.916l-.126.149a4.872,4.872,0,0,1-1.777,1.324L19.8,30.935a2.911,2.911,0,0,1-3.989-3.348ZM4.89,5.822h9.7a.97.97,0,1,1,0,1.941H4.89a.97.97,0,1,1,0-1.941Zm0,5.887H20.415a.97.97,0,0,1,0,1.941H4.89a.97.97,0,1,1,0-1.941Zm7.763,13.585H4.89a.97.97,0,0,1,0-1.941h7.763a.97.97,0,0,1,0,1.941ZM4.89,19.472a.97.97,0,1,1,0-1.941H16.534a.97.97,0,0,1,0,1.941Z" transform="translate(-0.038)" fill="#fff"/>
      </g>
    </g>
  </g>
</svg>
