<svg xmlns="http://www.w3.org/2000/svg" width="77.943" height="98.246" viewBox="0 0 77.943 98.246">
  <path id="delete-blue" d="M284.92,120.767H268.182a16.159,16.159,0,0,0-31.691,0H219.756a6.4,6.4,0,0,0-6.39,6.39v8.507a6.4,6.4,0,0,0,6.39,6.39h49.533a3.195,3.195,0,0,0,0-6.39H219.756v-8.507h65.163v8.507H282.53a3.183,3.183,0,0,0-1.232.248,3.113,3.113,0,0,0-.483.321,1.661,1.661,0,0,0-.864.84,3.132,3.132,0,0,0-.35.518,3.341,3.341,0,0,0-.119.542,3.051,3.051,0,0,0-.147.661l-1.2,57.718h0a3.2,3.2,0,0,1-3.189,3.122h-.007l-22.6,0-22.6,0h-.007a3.2,3.2,0,0,1-3.188-3.125l-.974-46.626a3.2,3.2,0,0,0-3.194-3.129h-.069a3.2,3.2,0,0,0-3.125,3.26l.974,46.623h0a9.625,9.625,0,0,0,9.578,9.387h.007l22.6,0,22.6,0h.007a9.625,9.625,0,0,0,9.577-9.385l1.142-54.735h0a6.326,6.326,0,0,0,5.647-6.239v-8.507a6.4,6.4,0,0,0-6.39-6.39Zm-32.582-6.6a9.756,9.756,0,0,1,9.2,6.6H243.135a9.759,9.759,0,0,1,9.2-6.6Zm-13.352,74.592-.262-34.712a3.193,3.193,0,0,1,3.17-3.22,3.289,3.289,0,0,1,3.219,3.17l.262,34.712a3.192,3.192,0,0,1-3.169,3.219h-.026A3.193,3.193,0,0,1,238.986,188.759Zm23.485,3.17h0a3.192,3.192,0,0,1-3.169-3.219L259.563,154a3.193,3.193,0,0,1,3.194-3.17h.025a3.194,3.194,0,0,1,3.17,3.22l-.262,34.712a3.192,3.192,0,0,1-3.194,3.169Z" transform="translate(-213.366 -107.777)" fill="#009bad"/>
</svg>
