<svg xmlns="http://www.w3.org/2000/svg" width="15" height="18.472" viewBox="0 0 15 18.472">
  <g id="delete_-permanant" data-name="delete -permanant" transform="translate(-2.996 -22.002)">
    <path id="Path_1101" data-name="Path 1101" d="M1.225,5.5v10.66A2.387,2.387,0,0,0,1.86,17.8a2.131,2.131,0,0,0,1.545.669h8.186a2.13,2.13,0,0,0,1.545-.669,2.387,2.387,0,0,0,.635-1.646V5.5a1.652,1.652,0,0,0-.424-3.248H11.133V1.708A1.7,1.7,0,0,0,9.419,0H5.575a1.7,1.7,0,0,0-1.71,1.708v.543H1.649A1.652,1.652,0,0,0,1.225,5.5ZM11.591,17.608H3.406a1.37,1.37,0,0,1-1.313-1.45V5.533H12.907V16.158a1.37,1.37,0,0,1-1.313,1.45ZM4.73,1.708A.834.834,0,0,1,5.574.864H9.419a.834.834,0,0,1,.844.844v.543H4.73ZM1.649,3.113h11.7a.779.779,0,0,1,0,1.558H1.649a.779.779,0,1,1,0-1.558Zm0,0" transform="translate(3.003 22.002)" fill="#009bad"/>
    <g id="Group_1624" data-name="Group 1624" transform="translate(8.607 28.879)">
      <path id="Path_1099" data-name="Path 1099" d="M222.676,154.7a.321.321,0,0,0-.278.351V161.7a.286.286,0,1,0,.556,0v-6.643A.321.321,0,0,0,222.676,154.7Zm0,0" transform="translate(-219.173 -154.7)" fill="#009bad"/>
      <path id="Path_1100" data-name="Path 1100" d="M104.676,154.7a.321.321,0,0,0-.278.351V161.7a.286.286,0,1,0,.556,0v-6.643a.321.321,0,0,0-.278-.357Zm0,0" transform="translate(-104.39 -154.7)" fill="#009bad"/>
      <path id="Path_1102" data-name="Path 1102" d="M163.676,154.7a.321.321,0,0,0-.278.351V161.7a.286.286,0,1,0,.556,0v-6.643A.321.321,0,0,0,163.676,154.7Zm0,0" transform="translate(-161.807 -154.7)" fill="#009bad"/>
    </g>
  </g>
</svg>
