<svg xmlns="http://www.w3.org/2000/svg" width="35.069" height="33.122" viewBox="0 0 35.069 33.122">
  <g id="department" opacity="0.8">
    <path id="Path_106" data-name="Path 106" d="M335.23,127.856a2.386,2.386,0,1,0-2.386-2.386A2.388,2.388,0,0,0,335.23,127.856Z" transform="translate(-310.014 -115.617)" fill="#fff"/>
    <path id="Path_107" data-name="Path 107" d="M224.421,21.192a9.856,9.856,0,0,0,13.215,11.94,9.886,9.886,0,0,0,2.542-1.534c.052-.044.105-.088.157-.133l.02-.017A9.852,9.852,0,1,0,224.483,21c-.02.062-.04.123-.059.185Zm3.767,1.831h1.341a4.416,4.416,0,0,1,.539-1.3l-.949-.949,1.455-1.455.949.949a4.417,4.417,0,0,1,1.3-.539V18.389h2.058V19.73a4.415,4.415,0,0,1,1.3.539l.949-.949,1.455,1.455-.949.949a4.417,4.417,0,0,1,.539,1.3h1.341v2.058h-1.341a4.417,4.417,0,0,1-.539,1.3l.949.949-1.455,1.455-.949-.949a4.415,4.415,0,0,1-1.3.539v1.341h-2.058V28.374a4.416,4.416,0,0,1-1.3-.539l-.949.949-1.455-1.455.949-.949a4.416,4.416,0,0,1-.539-1.3h-1.341Z" transform="translate(-208.636 -14.198)" fill="#fff"/>
    <path id="Path_108" data-name="Path 108" d="M2.151,393.143H1.657a1.655,1.655,0,0,0-1.48,2.4l1.068,2.135a4.676,4.676,0,0,0,4.205,2.6H26.512a4.676,4.676,0,0,0,4.205-2.6l1.068-2.136a1.655,1.655,0,0,0-1.48-2.4H2.151Z" transform="translate(-0.001 -367.151)" fill="#fff"/>
    <path id="Path_109" data-name="Path 109" d="M58.992,143.826A11.919,11.919,0,0,1,42.651,131h-11.3v15.922H59.013v-3.108Z" transform="translate(-29.204 -122.991)" fill="#fff"/>
  </g>
</svg>
