<svg id="department-h" xmlns="http://www.w3.org/2000/svg" width="30.223" height="28.544" viewBox="0 0 30.223 28.544">
  <path id="Path_106" data-name="Path 106" d="M334.9,127.2a2.056,2.056,0,1,0-2.056-2.056A2.058,2.058,0,0,0,334.9,127.2Z" transform="translate(-313.169 -116.649)" fill="#009bad"/>
  <path id="Path_107" data-name="Path 107" d="M224.363,20.225a8.494,8.494,0,0,0,11.389,10.29,8.52,8.52,0,0,0,2.191-1.322c.045-.038.091-.076.135-.115l.017-.015a8.49,8.49,0,1,0-13.678-9.008c-.017.053-.034.106-.051.16Zm3.246,1.578h1.156a3.807,3.807,0,0,1,.465-1.119l-.818-.818,1.254-1.254.818.818a3.806,3.806,0,0,1,1.119-.464V17.81h1.773v1.156a3.806,3.806,0,0,1,1.119.464l.818-.818,1.254,1.254-.818.818a3.807,3.807,0,0,1,.465,1.119h1.156v1.773h-1.156a3.807,3.807,0,0,1-.465,1.119l.818.818-1.254,1.254-.818-.818a3.805,3.805,0,0,1-1.119.464V27.57H231.6V26.415a3.806,3.806,0,0,1-1.119-.464l-.818.818-1.254-1.254.818-.818a3.807,3.807,0,0,1-.465-1.119h-1.156Z" transform="translate(-210.759 -14.198)" fill="#009bad"/>
  <path id="Path_108" data-name="Path 108" d="M1.854,393.143H1.428a1.426,1.426,0,0,0-1.276,2.064l.92,1.84a4.03,4.03,0,0,0,3.624,2.24H22.848a4.03,4.03,0,0,0,3.624-2.24l.92-1.84a1.426,1.426,0,0,0-1.276-2.064H1.854Z" transform="translate(-0.001 -370.743)" fill="#009bad"/>
  <path id="Path_109" data-name="Path 109" d="M55.172,142.054A10.272,10.272,0,0,1,41.09,131H31.354v13.722H55.191v-2.679Z" transform="translate(-29.501 -124.099)" fill="#009bad"/>
</svg>
