<svg xmlns="http://www.w3.org/2000/svg" width="14.473" height="18.001" viewBox="0 0 14.473 18.001">
  <path id="document" d="M176.868,39.2a.481.481,0,0,0-.467.419V56.785a.462.462,0,0,0,.467.419h13.539a.462.462,0,0,0,.467-.419v-13.4a.406.406,0,0,0-.139-.3l-4.2-3.768a.5.5,0,0,0-.328-.118Zm.467.837h8.4v3.349a.462.462,0,0,0,.467.419h3.735V56.366H177.335Zm9.337.589,2.611,2.342h-2.611Zm-7.236,5.691a.421.421,0,1,0,0,.837h8.4a.421.421,0,1,0,0-.837Zm0,3.349a.421.421,0,1,0,0,.837h8.4a.421.421,0,1,0,0-.837Zm0,3.349a.421.421,0,1,0,0,.837h8.4a.421.421,0,1,0,0-.837Z" transform="translate(-176.401 -39.202)" fill="#6e6e6e"/>
</svg>
