<svg xmlns="http://www.w3.org/2000/svg" width="15.6" height="17.446" viewBox="0 0 15.6 17.446">
  <g id="DOWLOAD" transform="translate(-586.977 -324.398)">
    <g id="noun-download-4595382" transform="translate(586.977 326.398)">
      <path id="Path_159" data-name="Path 159" d="M224.948,315a.721.721,0,0,0-.65.775v3.874a.721.721,0,0,1-.65.775h-11.7a.721.721,0,0,1-.65-.775v-3.874a.66.66,0,1,0-1.3,0v3.874a2.162,2.162,0,0,0,1.95,2.324h11.7a2.161,2.161,0,0,0,1.95-2.324v-3.874a.721.721,0,0,0-.65-.775Z" transform="translate(-209.997 -306.527)" fill="#686868"/>
      <path id="Path_160" data-name="Path 160" d="M306.488,150.8l1.386,1.474a.6.6,0,0,0,.885,0l1.386-1.474.87-.929h0a.612.612,0,0,0-.45-1.025h-1.548v-8.11a.737.737,0,1,0-1.475,0v8.11h-1.474a.612.612,0,0,0-.442,1.025Z" transform="translate(-300.86 -142.004)" fill="#686868"/>
    </g>
  </g>
</svg>
