<svg xmlns="http://www.w3.org/2000/svg" width="25.67" height="22.377" viewBox="0 0 25.67 22.377">
  <g id="dragdrop_icon" data-name="dragdrop icon" transform="translate(-957.6 -205.623)">
    <path id="Path_554" data-name="Path 554" d="M44.454,31.3a.344.344,0,0,1-.345.345h-8.1a.345.345,0,1,1,0-.689h8.1a.344.344,0,0,1,.345.345Z" transform="translate(930.924 180.301)" fill="#707070"/>
    <path id="Path_555" data-name="Path 555" d="M44.454,36.135a.344.344,0,0,1-.345.345h-8.1a.345.345,0,1,1,0-.689h8.1a.344.344,0,0,1,.345.345Z" transform="translate(930.924 177.135)" fill="#707070"/>
    <g id="Group_530" data-name="Group 530" transform="translate(957.6 205.623)">
      <rect id="Rectangle_618" data-name="Rectangle 618" width="0.919" height="1.281" transform="translate(13.568 18.437)" fill="#707070"/>
      <path id="Path_550" data-name="Path 550" d="M48.059,75.714H47.6v.919h1.378V75.255h-.919Z" transform="translate(-34.491 -54.256)" fill="#707070"/>
      <rect id="Rectangle_619" data-name="Rectangle 619" width="1.676" height="0.919" transform="translate(9.757 21.458)" fill="#707070"/>
      <rect id="Rectangle_620" data-name="Rectangle 620" width="1.676" height="0.919" transform="translate(3.054 21.458)" fill="#707070"/>
      <rect id="Rectangle_621" data-name="Rectangle 621" width="1.676" height="0.919" transform="translate(6.405 21.458)" fill="#707070"/>
      <path id="Path_551" data-name="Path 551" d="M10.519,75.255H9.6v1.378h1.378v-.919h-.459Z" transform="translate(-9.6 -54.256)" fill="#707070"/>
      <rect id="Rectangle_622" data-name="Rectangle 622" width="0.919" height="1.676" transform="translate(0 10.944)" fill="#707070"/>
      <rect id="Rectangle_623" data-name="Rectangle 623" width="0.919" height="1.676" transform="translate(0 14.296)" fill="#707070"/>
      <rect id="Rectangle_624" data-name="Rectangle 624" width="0.919" height="1.676" transform="translate(0 17.647)" fill="#707070"/>
      <path id="Path_552" data-name="Path 552" d="M9.6,38.633h.919v-.459h.459v-.919H9.6Z" transform="translate(-9.6 -29.365)" fill="#707070"/>
      <rect id="Rectangle_625" data-name="Rectangle 625" width="1.551" height="0.919" transform="translate(2.929 7.89)" fill="#707070"/>
      <path id="Path_553" data-name="Path 553" d="M46.71,28.135A.465.465,0,0,0,46.4,27.8L41.51,26.341V18.43a.452.452,0,0,0-.136-.324l-3.586-3.588a.452.452,0,0,0-.324-.136H28a.461.461,0,0,0-.459.459v7.431h-.459v.919h.459v7.888h7.077v.459h.919v-.459h3.273l1,3.076a.466.466,0,0,0,.326.3.453.453,0,0,0,.11.014.466.466,0,0,0,.319-.129L42.5,32.49l1.732,1.732a.46.46,0,0,0,.65,0l1.47-1.47a.461.461,0,0,0,.136-.326.452.452,0,0,0-.136-.324l-1.686-1.688,1.916-1.84A.458.458,0,0,0,46.71,28.135ZM37.86,15.887,40,18.033H37.86Zm2.731,10.178-2.94-.88a.459.459,0,0,0-.567.583l1.431,4.392H28.463V15.3h8.478v3.19a.461.461,0,0,0,.459.459h3.19v7.114Z" transform="translate(-21.053 -14.383)" fill="#707070"/>
      <path id="Path_556" data-name="Path 556" d="M44.454,40.975a.344.344,0,0,1-.345.345h-8.1a.345.345,0,1,1,0-.689h8.1a.344.344,0,0,1,.345.345Z" transform="translate(-26.676 -31.576)" fill="#707070"/>
    </g>
  </g>
</svg>
