<svg xmlns="http://www.w3.org/2000/svg" width="20.016" height="19.622" viewBox="0 0 20.016 19.622">
  <path id="icons8-dropbox" d="M6.2.995a.394.394,0,0,0-.175.063L.18,4.822A.4.4,0,0,0,0,5.141a.4.4,0,0,0,.155.331L3.732,8.187.155,10.876a.4.4,0,0,0,.038.675l3.4,2v2.689a.4.4,0,0,0,.175.338l6,3.965a.4.4,0,0,0,.45,0l6-3.927a.4.4,0,0,0,.175-.338v-2.7l3.4-2.039a.4.4,0,0,0,.191-.3.4.4,0,0,0-.128-.335L16.5,8.049,19.854,5.31a.4.4,0,0,0-.038-.65l-5.678-3.6a.406.406,0,0,0-.275-.063.4.4,0,0,0-.2.088L10.01,4.122,6.5,1.095A.4.4,0,0,0,6.2.995Zm.013.9L9.335,4.584,4.407,7.711,1.093,5.185Zm7.742,0,4.965,3.139L15.839,7.549,10.7,4.572ZM10,5.11l5.1,2.939-5.115,3.2L5.145,8.2Zm5.841,3.414,3.089,2.627-3.052,1.826-.038.013a.412.412,0,0,0-.1.063l-1.864,1.113L10.7,11.751ZM4.42,8.687,9.3,11.751,6.208,14.165l-5.091-3Zm5.591,3.54,3.59,2.739a.4.4,0,0,0,.45.025l1.551-.926v2L10,19.718l-5.6-3.7V14.028l1.638.963a.4.4,0,0,0,.45-.038Z" transform="translate(0.013 -0.991)" fill="#009bad"/>
</svg>
