<svg xmlns="http://www.w3.org/2000/svg" width="28" height="28" viewBox="0 0 28 28">
  <g id="edit-delete" transform="translate(-302 -255)">
    <g id="Group_3401" data-name="Group 3401" transform="translate(0 -197)">
      <circle id="Ellipse_159" data-name="Ellipse 159" cx="14" cy="14" r="14" transform="translate(302 452)" fill="#009bad"/>
    </g>
    <path id="delete-blue" d="M224.785,109.85h-2.671a2.579,2.579,0,0,0-5.058,0h-2.671a1.021,1.021,0,0,0-1.02,1.02v1.358a1.021,1.021,0,0,0,1.02,1.02h7.9a.51.51,0,0,0,0-1.02h-7.9V110.87h10.4v1.358H224.4a.508.508,0,0,0-.2.04.5.5,0,0,0-.077.051.265.265,0,0,0-.138.134.5.5,0,0,0-.056.083.533.533,0,0,0-.019.086.485.485,0,0,0-.023.105l-.192,9.211h0a.511.511,0,0,1-.509.5h-7.215a.511.511,0,0,1-.509-.5l-.155-7.441a.51.51,0,0,0-.51-.5h-.011a.51.51,0,0,0-.5.52l.155,7.441h0a1.536,1.536,0,0,0,1.529,1.5h7.215a1.536,1.536,0,0,0,1.528-1.5l.182-8.735h0a1.01,1.01,0,0,0,.9-1V110.87a1.021,1.021,0,0,0-1.02-1.02Zm-5.2-1.053a1.557,1.557,0,0,1,1.469,1.053h-2.937a1.558,1.558,0,0,1,1.469-1.053Zm-2.131,11.9-.042-5.54a.51.51,0,0,1,.506-.514.525.525,0,0,1,.514.506l.042,5.54a.509.509,0,0,1-.506.514h0A.509.509,0,0,1,217.454,120.7Zm3.748.506h0a.509.509,0,0,1-.506-.514l.042-5.54a.51.51,0,0,1,.51-.506h0a.51.51,0,0,1,.506.514l-.042,5.54a.509.509,0,0,1-.51.506Z" transform="translate(96.634 153.223)" fill="#fff"/>
  </g>
</svg>
