<svg xmlns="http://www.w3.org/2000/svg" width="19.187" height="16.464" viewBox="0 0 19.187 16.464">
  <path id="files" d="M101.732,54.052H95.211l-1.559-2.108a.5.5,0,0,0-.406-.2H88.181a1.456,1.456,0,0,0-1.454,1.454v1.272H85.455A1.456,1.456,0,0,0,84,55.921V66.749A1.456,1.456,0,0,0,85.455,68.2H99a1.456,1.456,0,0,0,1.455-1.455V65.477h1.273a1.456,1.456,0,0,0,1.454-1.454V55.506a1.456,1.456,0,0,0-1.454-1.454Zm-2.282,12.7a.445.445,0,0,1-.445.445H85.455a.445.445,0,0,1-.445-.445V60.827H99.45Zm0-6.932H85.01v-3.9a.445.445,0,0,1,.445-.445h4.81l1.559,2.107a.5.5,0,0,0,.406.2h6.776a.445.445,0,0,1,.445.445Zm2.727,4.205a.445.445,0,0,1-.444.444H100.46V58.232c0-.044,0-.088-.006-.131h1.723Zm0-6.931h-2.27a1.448,1.448,0,0,0-.9-.314H92.484L90.925,54.67a.5.5,0,0,0-.406-.2H87.737V53.193a.445.445,0,0,1,.444-.444h4.811l1.559,2.108a.505.505,0,0,0,.406.2h6.776a.445.445,0,0,1,.444.444Z" transform="translate(-84 -51.739)" fill="#6e6e6e"/>
</svg>
