<svg xmlns="http://www.w3.org/2000/svg" width="21.804" height="15.634" viewBox="0 0 21.804 15.634">
  <path id="folder" d="M130.74,116.379h-17.6a.656.656,0,0,0-.6.4l-2.81,6.479h19.031l2.586-5.955a.657.657,0,0,0-.6-.92Zm-5.524,6.367h-3.9a.254.254,0,0,1,0-.508h3.9a.254.254,0,1,1,0,.508Zm3.043,0h-1.6a.254.254,0,1,1,0-.508h1.6a.254.254,0,1,1,0,.508Zm-15.117-6.875h15.53V111a.66.66,0,0,0-.659-.66h-7.225a2.394,2.394,0,0,1-1.77-.781l-1.323-1.453h0a1.468,1.468,0,0,0-1.089-.483h-6.353a.66.66,0,0,0-.659.661v14l2.477-5.711a1.164,1.164,0,0,1,1.07-.7Zm-2.531-1.061a.254.254,0,0,1-.508,0V110.87a.254.254,0,1,1,.508,0Zm0-5.342h0a.254.254,0,1,1-.508,0v-1.084a.254.254,0,0,1,.508,0Z" transform="translate(-109.594 -107.62)" fill="#ffc107"/>
</svg>
