<svg id="gallery" xmlns="http://www.w3.org/2000/svg" width="65.934" height="65.934" viewBox="0 0 65.934 65.934">
  <g id="Group_1626" data-name="Group 1626" transform="translate(0 0)">
    <path id="Path_1162" data-name="Path 1162" d="M32.967,0A32.967,32.967,0,1,1,0,32.967,32.967,32.967,0,0,1,32.967,0Z" fill="#009bad"/>
    <g id="Group_2954" data-name="Group 2954" transform="translate(0 -1)">
      <path id="Path_2458" data-name="Path 2458" d="M259.545,237.208a.65.65,0,0,0-.572-.286.73.73,0,0,0-.573.358l-3.863,6.01L251.1,239.5a.813.813,0,0,0-.572-.215.883.883,0,0,0-.572.286l-8.585,12.019a.546.546,0,0,0-.143.358v.358a.739.739,0,0,0,.787.787h21.464a2.108,2.108,0,0,0,2.146-2.146V244.5a.769.769,0,0,0-.143-.429Z" transform="translate(-215.489 -205.36)" fill="#fff"/>
      <path id="Path_2459" data-name="Path 2459" d="M123.012,82.917a2.108,2.108,0,0,0-2.146-2.146H93.678a2.2,2.2,0,0,0-2.146,2.146v19.317a2.108,2.108,0,0,0,2.146,2.146V86.495a3.543,3.543,0,0,1,3.577-3.577Z" transform="translate(-75.736 -59.584)" fill="#fff"/>
      <path id="Path_2460" data-name="Path 2460" d="M174,134.62H147.527a2.2,2.2,0,0,0-2.146,2.146v18.6a2.153,2.153,0,0,0,2.146,2.146h2.933a2.115,2.115,0,0,1-.143-.93l.072-.358a2.406,2.406,0,0,1,.358-1l8.585-12.019a2.411,2.411,0,0,1,1.646-.93h.072a2.3,2.3,0,0,1,1.574.715l2.146,2.433,2.862-4.436a2.253,2.253,0,0,1,1.646-1h.143a2.139,2.139,0,0,1,1.646.787l5.008,5.724v-9.731A2.048,2.048,0,0,0,174,134.62Zm-21.463,10.732a3.543,3.543,0,0,1-3.577-3.577,3.577,3.577,0,0,1,7.155,0A3.543,3.543,0,0,1,152.536,145.352Z" transform="translate(-126.008 -109.855)" fill="#fff"/>
    </g>
  </g>
</svg>
