<svg xmlns="http://www.w3.org/2000/svg" width="20.016" height="17.418" viewBox="0 0 20.016 17.418">
  <g id="Group_200" data-name="Group 200" transform="translate(-4.999 -1026.362)">
    <path id="Path_148" data-name="Path 148" d="M11.527,6,11.5,6l-.041,0-.032.007-.02,0-.012,0-.022.009-.034.015-.012.005-.029.015-.005,0-.034.024-.019.015-.022.019-.019.022,0,0-.012.015q-.013.016-.024.032l0,.005-.01.015L5.058,16.736a.435.435,0,0,0,0,.435L8.539,23.2a.435.435,0,0,0,.478.206H21.031a.435.435,0,0,0,.376-.216L24.957,17.1A.435.435,0,0,0,25,16.993L25,16.976a.435.435,0,0,0-.014-.24l-.005-.015-.01-.025,0,0-.017-.031-.01-.019,0-.005L18.881,6.218A.435.435,0,0,0,18.5,6H11.527Zm.758.87h5.968l5.572,9.573H17.869Zm-.758.435,2.961,5.128-2.359,4.1a.435.435,0,0,0-.17.294L8.916,22.111,5.938,16.954Zm3.485,5.966,1.849,3.172H13.184Zm-2.329,4.042H23.825l-3.044,5.222H9.676Z" transform="translate(0 1020.362)"/>
  </g>
</svg>
