<svg xmlns="http://www.w3.org/2000/svg" width="65.934" height="65.934" viewBox="0 0 65.934 65.934">
  <g id="Group_2937" data-name="Group 2937" transform="translate(0.368 0.198)">
    <g id="herobanner" transform="translate(0 0)">
      <path id="Path_1162" data-name="Path 1162" d="M32.967,0A32.967,32.967,0,1,1,0,32.967,32.967,32.967,0,0,1,32.967,0Z" transform="translate(-0.368 -0.198)" fill="#009bad"/>
      <g id="noun-banner-4732100" transform="translate(-61.376 -55.034)">
        <path id="Path_2461" data-name="Path 2461" d="M403.43,350.76h11.289v6.609H403.43Z" transform="translate(-305.281 -257.462)" fill="#fff"/>
        <path id="Path_2462" data-name="Path 2462" d="M149.85,202.88h30.8v7.029h-30.8Z" transform="translate(-71.213 -120.961)" fill="#fff"/>
        <path id="Path_2463" data-name="Path 2463" d="M89.688,187.553a1.853,1.853,0,0,0,1.851,1.851H127.9a1.853,1.853,0,0,0,1.851-1.851V164.5H89.688Zm20.03-1.1h-8.933a.5.5,0,1,1,0-1.01h8.933a.5.5,0,1,1,0,1.01Zm0-3.809h-4.633a.5.5,0,0,1,0-1.01h4.633a.5.5,0,0,1,0,1.01Zm16.41,3.3a.505.505,0,0,1-.5.5h-12.3a.505.505,0,0,1-.5-.5v-7.619a.505.505,0,0,1,.5-.5h12.3a.505.505,0,0,1,.5.5Zm-32.821-19a.505.505,0,0,1,.5-.5h31.811a.505.505,0,0,1,.5.5v8.039a.505.505,0,0,1-.5.5H93.812a.505.505,0,0,1-.5-.5v-8.039Zm.5,10.874h15.905a.5.5,0,0,1,0,1.01H93.812a.5.5,0,0,1,0-1.01Zm0,3.809h7.953a.5.5,0,0,1,0,1.01H93.812a.5.5,0,0,1,0-1.01Zm0,3.809h3.976a.5.5,0,1,1,0,1.01H93.812a.5.5,0,1,1,0-1.01Z" transform="translate(-15.68 -85.534)" fill="#fff"/>
        <path id="Path_2464" data-name="Path 2464" d="M127.9,71.836H91.539a1.853,1.853,0,0,0-1.851,1.851v4.269h40.059V73.687a1.853,1.853,0,0,0-1.851-1.851ZM93.061,75.909a.513.513,0,0,1-.5-.5.629.629,0,0,1,.034-.2.551.551,0,0,1,.276-.276.511.511,0,0,1,.7.471A.518.518,0,0,1,93.061,75.909Zm3.447,0a.517.517,0,0,1-.5-.5.487.487,0,0,1,.04-.2.459.459,0,0,1,.108-.162.508.508,0,0,1,.714,0,.5.5,0,0,1,.148.357.515.515,0,0,1-.5.5Zm3.447,0a.508.508,0,0,1-.5-.5.477.477,0,0,1,.034-.2.459.459,0,0,1,.108-.162.516.516,0,0,1,.72,0,.5.5,0,0,1,.141.357.508.508,0,0,1-.5.5Zm26.422,0H112.658a.5.5,0,0,1,0-1.01h13.719a.5.5,0,1,1,0,1.01Z" transform="translate(-15.68)" fill="#fff"/>
      </g>
    </g>
  </g>
</svg>
