<svg id="highlights-h" xmlns="http://www.w3.org/2000/svg" width="65.934" height="65.934" viewBox="0 0 65.934 65.934">
  <g id="Group_1626" data-name="Group 1626" transform="translate(0 0)">
    <path id="Path_1162" data-name="Path 1162" d="M32.967,0A32.967,32.967,0,1,1,0,32.967,32.967,32.967,0,0,1,32.967,0Z" fill="#fff"/>
    <g id="highlights-h-2" data-name="highlights-h" transform="translate(-63.598 -22.615)">
      <path id="Path_2465" data-name="Path 2465" d="M219.536,144.292a.858.858,0,0,1,.254-.857l7.108-6.406h0a.856.856,0,0,0-.492-1.487l-8.687-.826h0a.853.853,0,0,1-.7-.5l-3.816-8.333a.856.856,0,0,0-1.562.014l-3.7,8.451h0a.855.855,0,0,1-.716.51l-8.778.705a.855.855,0,0,0-.5,1.488l7.078,6.38h0a.858.858,0,0,1,.254.857l-2.154,8.045a.855.855,0,0,0,1.285.944l7.538-4.779a.854.854,0,0,1,.916,0l7.538,4.783a.855.855,0,0,0,1.285-.944Z" transform="translate(-115.213 -84.456)" fill="#009bad"/>
      <path id="Path_2466" data-name="Path 2466" d="M339.945,35.572V33.09a1.207,1.207,0,1,0-2.413,0v2.482a1.207,1.207,0,1,0,2.413,0Z" transform="translate(-241.542)" fill="#009bad"/>
      <path id="Path_2467" data-name="Path 2467" d="M338.738,477.49a1.205,1.205,0,0,0-1.207,1.211v2.486a1.207,1.207,0,1,0,2.413,0V478.7a1.205,1.205,0,0,0-1.207-1.211Z" transform="translate(-241.542 -402.483)" fill="#009bad"/>
      <path id="Path_2468" data-name="Path 2468" d="M551.222,267.53H548.74a1.207,1.207,0,1,0,0,2.413h2.486a1.207,1.207,0,1,0,0-2.413Z" transform="translate(-431.22 -212.842)" fill="#009bad"/>
      <path id="Path_2469" data-name="Path 2469" d="M105.572,267.53H103.09a1.207,1.207,0,0,0,0,2.413h2.482a1.207,1.207,0,0,0,0-2.413Z" transform="translate(-28.699 -212.842)" fill="#009bad"/>
      <path id="Path_2470" data-name="Path 2470" d="M488.262,104.934l1.758-1.758h0a1.208,1.208,0,0,0-1.708-1.708l-1.758,1.758a1.208,1.208,0,0,0,1.707,1.707Z" transform="translate(-375.845 -62.553)" fill="#009bad"/>
      <path id="Path_2471" data-name="Path 2471" d="M173.227,416.114l-1.758,1.758a1.208,1.208,0,0,0,1.708,1.708l1.758-1.758h0a1.208,1.208,0,1,0-1.707-1.707Z" transform="translate(-91.252 -346.705)" fill="#009bad"/>
      <path id="Path_2472" data-name="Path 2472" d="M488.262,416.555a1.208,1.208,0,0,0-1.707,1.707l1.758,1.758h0a1.208,1.208,0,1,0,1.708-1.708Z" transform="translate(-375.845 -347.147)" fill="#009bad"/>
      <path id="Path_2473" data-name="Path 2473" d="M173.228,104.934a1.208,1.208,0,1,0,1.707-1.707l-1.758-1.758a1.208,1.208,0,0,0-1.708,1.708Z" transform="translate(-91.252 -62.553)" fill="#009bad"/>
      <g id="Group_2955" data-name="Group 2955" transform="translate(70.125 84.187)">
        <path id="Path_2474" data-name="Path 2474" d="M.594-3.69a.275.275,0,0,1-.057.021.243.243,0,0,1-.06.008.217.217,0,0,1-.154-.053.2.2,0,0,1-.056-.147.192.192,0,0,1,.056-.147.215.215,0,0,1,.154-.054.243.243,0,0,1,.06.008.3.3,0,0,1,.057.021v.08a.229.229,0,0,0-.054-.027A.169.169,0,0,0,.483-3.99.109.109,0,0,0,.4-3.955a.134.134,0,0,0-.03.094.136.136,0,0,0,.03.094.111.111,0,0,0,.085.033.191.191,0,0,0,.056-.008.2.2,0,0,0,.054-.029Z" transform="translate(-0.266 4.062)" fill="#009bad"/>
      </g>
      <g id="Group_2956" data-name="Group 2956" transform="translate(70.531 84.284)">
        <path id="Path_2475" data-name="Path 2475" d="M.669-2.976.645-2.985l-.024,0a.068.068,0,0,0-.056.024A.1.1,0,0,0,.547-2.9v.133H.453v-.289H.547v.047a.105.105,0,0,1,.039-.041.112.112,0,0,1,.056-.014H.653l.015,0Z" transform="translate(-0.453 3.063)" fill="#009bad"/>
      </g>
      <g id="Group_2957" data-name="Group 2957" transform="translate(70.771 84.284)">
        <path id="Path_2476" data-name="Path 2476" d="M.544-2.911v.026H.328a.075.075,0,0,0,.024.05.089.089,0,0,0,.056.015.239.239,0,0,0,.06-.008.3.3,0,0,0,.062-.027v.071a.292.292,0,0,1-.065.02A.389.389,0,0,1,.4-2.759.175.175,0,0,1,.278-2.8a.146.146,0,0,1-.044-.113.146.146,0,0,1,.042-.11.166.166,0,0,1,.118-.041A.147.147,0,0,1,.5-3.022a.15.15,0,0,1,.041.11ZM.451-2.943a.053.053,0,0,0-.017-.041A.052.052,0,0,0,.395-3a.064.064,0,0,0-.044.015.07.07,0,0,0-.021.042Z" transform="translate(-0.234 3.063)" fill="#009bad"/>
      </g>
      <g id="Group_2958" data-name="Group 2958" transform="translate(71.13 84.284)">
        <path id="Path_2477" data-name="Path 2477" d="M.386-2.9a.077.077,0,0,0-.044.011.032.032,0,0,0-.014.029.036.036,0,0,0,.011.027.054.054,0,0,0,.033.009.06.06,0,0,0,.044-.018.063.063,0,0,0,.018-.047V-2.9Zm.142-.035v.165H.434v-.042a.114.114,0,0,1-.042.038.12.12,0,0,1-.056.012.105.105,0,0,1-.074-.026.092.092,0,0,1-.027-.068.086.086,0,0,1,.035-.076.2.2,0,0,1,.11-.024H.434v-.006A.032.032,0,0,0,.416-2.99.1.1,0,0,0,.363-3a.256.256,0,0,0-.056.006.227.227,0,0,0-.047.017v-.07a.417.417,0,0,1,.059-.011.4.4,0,0,1,.06,0,.167.167,0,0,1,.113.032.127.127,0,0,1,.035.1Z" transform="translate(-0.234 3.063)" fill="#009bad"/>
      </g>
      <g id="Group_2959" data-name="Group 2959" transform="translate(71.472 84.208)">
        <path id="Path_2478" data-name="Path 2478" d="M.216-3.844v.083h.1V-3.7h-.1v.124a.037.037,0,0,0,.008.027.063.063,0,0,0,.033.006H.3v.067H.225a.109.109,0,0,1-.079-.023.107.107,0,0,1-.023-.077V-3.7H.078v-.065H.123v-.083Z" transform="translate(-0.078 3.844)" fill="#009bad"/>
      </g>
      <g id="Group_2960" data-name="Group 2960" transform="translate(71.74 84.284)">
        <path id="Path_2479" data-name="Path 2479" d="M.544-2.911v.026H.328a.075.075,0,0,0,.024.05.089.089,0,0,0,.056.015.239.239,0,0,0,.06-.008.3.3,0,0,0,.062-.027v.071a.292.292,0,0,1-.065.02A.389.389,0,0,1,.4-2.759.175.175,0,0,1,.278-2.8a.146.146,0,0,1-.044-.113.146.146,0,0,1,.042-.11.166.166,0,0,1,.118-.041A.147.147,0,0,1,.5-3.022a.15.15,0,0,1,.041.11ZM.451-2.943a.053.053,0,0,0-.017-.041A.052.052,0,0,0,.395-3a.064.064,0,0,0-.044.015.07.07,0,0,0-.021.042Z" transform="translate(-0.234 3.063)" fill="#009bad"/>
      </g>
      <g id="Group_2961" data-name="Group 2961" transform="translate(72.101 84.178)">
        <path id="Path_2480" data-name="Path 2480" d="M.468-4v-.156H.56v.4H.468V-3.8a.13.13,0,0,1-.042.038.113.113,0,0,1-.053.012.11.11,0,0,1-.089-.042A.172.172,0,0,1,.25-3.9a.171.171,0,0,1,.033-.109A.111.111,0,0,1,.372-4.05a.11.11,0,0,1,.051.012A.136.136,0,0,1,.468-4Zm-.062.188a.052.052,0,0,0,.045-.021A.109.109,0,0,0,.468-3.9a.1.1,0,0,0-.017-.062.051.051,0,0,0-.045-.023.053.053,0,0,0-.045.023A.106.106,0,0,0,.345-3.9a.116.116,0,0,0,.015.065A.054.054,0,0,0,.406-3.813Z" transform="translate(-0.25 4.156)" fill="#009bad"/>
      </g>
      <g id="Group_2962" data-name="Group 2962" transform="translate(72.683 84.178)">
        <path id="Path_2481" data-name="Path 2481" d="M.607-3.813a.052.052,0,0,0,.045-.021A.109.109,0,0,0,.669-3.9a.1.1,0,0,0-.017-.062.051.051,0,0,0-.045-.023.053.053,0,0,0-.045.023A.106.106,0,0,0,.547-3.9a.116.116,0,0,0,.015.065A.054.054,0,0,0,.607-3.813ZM.547-4a.124.124,0,0,1,.041-.038A.12.12,0,0,1,.642-4.05a.11.11,0,0,1,.088.042A.167.167,0,0,1,.765-3.9a.169.169,0,0,1-.035.11.109.109,0,0,1-.088.042.12.12,0,0,1-.054-.012A.116.116,0,0,1,.547-3.8v.042H.453v-.4H.547Z" transform="translate(-0.453 4.156)" fill="#009bad"/>
      </g>
      <g id="Group_2963" data-name="Group 2963" transform="translate(73.024 84.291)">
        <path id="Path_2482" data-name="Path 2482" d="M.063-2.984H.155l.079.2.067-.2H.392L.27-2.668A.162.162,0,0,1,.227-2.6a.1.1,0,0,1-.065.02H.109v-.062H.138A.063.063,0,0,0,.173-2.65.053.053,0,0,0,.19-2.676l0-.009Z" transform="translate(-0.063 2.984)" fill="#009bad"/>
      </g>
      <g id="Group_2964" data-name="Group 2964" transform="translate(73.596 84.194)">
        <path id="Path_2483" data-name="Path 2483" d="M.5-3.984H.627l.088.206L.8-3.984H.929V-3.6H.836v-.283l-.089.209H.683L.6-3.882V-3.6H.5Z" transform="translate(-0.5 3.984)" fill="#009bad"/>
      </g>
      <g id="Group_2965" data-name="Group 2965" transform="translate(74.097 84.284)">
        <path id="Path_2484" data-name="Path 2484" d="M.386-2.9a.077.077,0,0,0-.044.011.032.032,0,0,0-.014.029.036.036,0,0,0,.011.027.054.054,0,0,0,.033.009.06.06,0,0,0,.044-.018.063.063,0,0,0,.018-.047V-2.9Zm.142-.035v.165H.434v-.042a.114.114,0,0,1-.042.038.12.12,0,0,1-.056.012.105.105,0,0,1-.074-.026.092.092,0,0,1-.027-.068.086.086,0,0,1,.035-.076.2.2,0,0,1,.11-.024H.434v-.006A.032.032,0,0,0,.416-2.99.1.1,0,0,0,.363-3a.256.256,0,0,0-.056.006.227.227,0,0,0-.047.017v-.07a.417.417,0,0,1,.059-.011.4.4,0,0,1,.06,0,.167.167,0,0,1,.113.032.127.127,0,0,1,.035.1Z" transform="translate(-0.234 3.063)" fill="#009bad"/>
      </g>
      <g id="Group_2966" data-name="Group 2966" transform="translate(74.439 84.291)">
        <path id="Path_2485" data-name="Path 2485" d="M.189-2.844l-.1-.141h.1l.06.085L.3-2.984H.4l-.1.141L.4-2.7h-.1L.242-2.786.177-2.7h-.1Z" transform="translate(-0.078 2.984)" fill="#009bad"/>
      </g>
      <g id="Group_2967" data-name="Group 2967" transform="translate(74.816 84.178)">
        <path id="Path_2486" data-name="Path 2486" d="M.453-4.043H.547v.289H.453Zm0-.113H.547v.076H.453Z" transform="translate(-0.453 4.156)" fill="#009bad"/>
      </g>
      <g id="Group_2968" data-name="Group 2968" transform="translate(74.977 84.284)">
        <path id="Path_2487" data-name="Path 2487" d="M.49-3.046v.074A.158.158,0,0,0,.452-2.99.144.144,0,0,0,.413-3a.078.078,0,0,0-.06.023.086.086,0,0,0-.021.062.088.088,0,0,0,.021.064.078.078,0,0,0,.06.023.135.135,0,0,0,.041-.006.107.107,0,0,0,.036-.02v.076a.18.18,0,0,1-.044.012.231.231,0,0,1-.045,0A.175.175,0,0,1,.278-2.8a.146.146,0,0,1-.044-.113.14.14,0,0,1,.044-.11A.172.172,0,0,1,.4-3.062a.231.231,0,0,1,.045,0,.18.18,0,0,1,.044.012Z" transform="translate(-0.234 3.062)" fill="#009bad"/>
      </g>
      <g id="Group_2969" data-name="Group 2969" transform="translate(75.29 84.284)">
        <path id="Path_2488" data-name="Path 2488" d="M.393-3a.054.054,0,0,0-.047.023.106.106,0,0,0-.015.062.116.116,0,0,0,.015.065.055.055,0,0,0,.047.021A.056.056,0,0,0,.44-2.846a.109.109,0,0,0,.017-.065A.1.1,0,0,0,.44-2.973.055.055,0,0,0,.393-3Zm0-.067a.158.158,0,0,1,.116.041.145.145,0,0,1,.042.11A.151.151,0,0,1,.51-2.8a.16.16,0,0,1-.116.039A.163.163,0,0,1,.277-2.8a.15.15,0,0,1-.042-.113.143.143,0,0,1,.042-.11A.16.16,0,0,1,.393-3.062Z" transform="translate(-0.234 3.063)" fill="#009bad"/>
      </g>
      <g id="Group_2970" data-name="Group 2970" transform="translate(75.675 84.284)">
        <path id="Path_2489" data-name="Path 2489" d="M.745-2.943v.177H.651V-2.9c0-.025,0-.042,0-.051a.047.047,0,0,0-.006-.021.03.03,0,0,0-.015-.014.037.037,0,0,0-.02-.006.054.054,0,0,0-.047.023.11.11,0,0,0-.015.062v.142H.453v-.289H.547v.042A.128.128,0,0,1,.591-3.05a.114.114,0,0,1,.051-.012.092.092,0,0,1,.076.032.128.128,0,0,1,.027.088Z" transform="translate(-0.453 3.062)" fill="#009bad"/>
      </g>
      <g id="Group_2971" data-name="Group 2971" transform="translate(76.035 84.284)">
        <path id="Path_2490" data-name="Path 2490" d="M.525-3.046v.07a.414.414,0,0,0-.057-.018A.261.261,0,0,0,.414-3a.1.1,0,0,0-.039.006.02.02,0,0,0-.012.02.02.02,0,0,0,.009.018.1.1,0,0,0,.036.009l.015,0a.192.192,0,0,1,.1.03.077.077,0,0,1,.026.065.08.08,0,0,1-.035.07.182.182,0,0,1-.1.023.427.427,0,0,1-.06,0,.481.481,0,0,1-.062-.014v-.07a.328.328,0,0,0,.056.02.3.3,0,0,0,.06.006.083.083,0,0,0,.041-.008.023.023,0,0,0,.014-.021.022.022,0,0,0-.011-.02A.1.1,0,0,0,.41-2.878l-.017,0a.169.169,0,0,1-.088-.029.079.079,0,0,1-.024-.064A.076.076,0,0,1,.313-3.04a.167.167,0,0,1,.1-.023.323.323,0,0,1,.053,0,.434.434,0,0,1,.062.012Z" transform="translate(-0.281 3.062)" fill="#009bad"/>
      </g>
      <g id="Group_2972" data-name="Group 2972" transform="translate(70.109 84.707)">
        <path id="Path_2491" data-name="Path 2491" d="M.333-4.156v.06H.283a.045.045,0,0,0-.029.008.033.033,0,0,0-.008.024v.021h.08v.065H.247v.224H.155v-.224H.109v-.065H.155v-.021a.088.088,0,0,1,.026-.07.128.128,0,0,1,.083-.023Z" transform="translate(-0.109 4.156)" fill="#009bad"/>
      </g>
      <g id="Group_2973" data-name="Group 2973" transform="translate(70.373 84.813)">
        <path id="Path_2492" data-name="Path 2492" d="M.669-2.976.645-2.985l-.024,0a.068.068,0,0,0-.056.024A.1.1,0,0,0,.547-2.9v.133H.453v-.289H.547v.047a.105.105,0,0,1,.039-.041.112.112,0,0,1,.056-.014H.653l.015,0Z" transform="translate(-0.453 3.063)" fill="#009bad"/>
      </g>
      <g id="Group_2974" data-name="Group 2974" transform="translate(70.613 84.813)">
        <path id="Path_2493" data-name="Path 2493" d="M.393-3a.054.054,0,0,0-.047.023.106.106,0,0,0-.015.062.116.116,0,0,0,.015.065.055.055,0,0,0,.047.021A.056.056,0,0,0,.44-2.846a.109.109,0,0,0,.017-.065A.1.1,0,0,0,.44-2.973.055.055,0,0,0,.393-3Zm0-.067a.158.158,0,0,1,.116.041.145.145,0,0,1,.042.11A.151.151,0,0,1,.51-2.8a.16.16,0,0,1-.116.039A.163.163,0,0,1,.277-2.8a.15.15,0,0,1-.042-.113.143.143,0,0,1,.042-.11A.16.16,0,0,1,.393-3.062Z" transform="translate(-0.234 3.063)" fill="#009bad"/>
      </g>
      <g id="Group_2975" data-name="Group 2975" transform="translate(70.997 84.813)">
        <path id="Path_2494" data-name="Path 2494" d="M.722-3.008a.116.116,0,0,1,.041-.039.1.1,0,0,1,.054-.015.09.09,0,0,1,.074.032.128.128,0,0,1,.027.088v.177H.825v-.151a.016.016,0,0,0,0-.006v-.011a.085.085,0,0,0-.009-.045.032.032,0,0,0-.029-.014.048.048,0,0,0-.042.023.116.116,0,0,0-.014.062v.142H.639v-.151A.133.133,0,0,0,.63-2.979.03.03,0,0,0,.6-2.993a.046.046,0,0,0-.041.023.116.116,0,0,0-.014.062v.142H.453v-.289H.547v.042A.113.113,0,0,1,.585-3.05a.106.106,0,0,1,.05-.012.1.1,0,0,1,.053.015.091.091,0,0,1,.035.039Z" transform="translate(-0.453 3.063)" fill="#009bad"/>
      </g>
      <g id="Group_2976" data-name="Group 2976" transform="translate(71.697 84.737)">
        <path id="Path_2495" data-name="Path 2495" d="M.216-3.844v.083h.1V-3.7h-.1v.124a.037.037,0,0,0,.008.027.063.063,0,0,0,.033.006H.3v.067H.225a.109.109,0,0,1-.079-.023.107.107,0,0,1-.023-.077V-3.7H.078v-.065H.123v-.083Z" transform="translate(-0.078 3.844)" fill="#009bad"/>
      </g>
      <g id="Group_2977" data-name="Group 2977" transform="translate(71.986 84.707)">
        <path id="Path_2496" data-name="Path 2496" d="M.745-3.931v.177H.651v-.135c0-.025,0-.042,0-.051a.047.047,0,0,0-.006-.021.03.03,0,0,0-.015-.014.037.037,0,0,0-.02-.006.054.054,0,0,0-.047.023A.11.11,0,0,0,.547-3.9v.142H.453v-.4H.547V-4a.128.128,0,0,1,.044-.038A.114.114,0,0,1,.642-4.05a.092.092,0,0,1,.076.032.128.128,0,0,1,.027.088Z" transform="translate(-0.453 4.156)" fill="#009bad"/>
      </g>
      <g id="Group_2978" data-name="Group 2978" transform="translate(72.342 84.813)">
        <path id="Path_2497" data-name="Path 2497" d="M.544-2.911v.026H.328a.075.075,0,0,0,.024.05.089.089,0,0,0,.056.015.239.239,0,0,0,.06-.008.3.3,0,0,0,.062-.027v.071a.292.292,0,0,1-.065.02A.389.389,0,0,1,.4-2.759.175.175,0,0,1,.278-2.8a.146.146,0,0,1-.044-.113.146.146,0,0,1,.042-.11.166.166,0,0,1,.118-.041A.147.147,0,0,1,.5-3.022a.15.15,0,0,1,.041.11ZM.451-2.943a.053.053,0,0,0-.017-.041A.052.052,0,0,0,.395-3a.064.064,0,0,0-.044.015.07.07,0,0,0-.021.042Z" transform="translate(-0.234 3.063)" fill="#009bad"/>
      </g>
      <g id="Group_2979" data-name="Group 2979" transform="translate(72.911 84.724)">
        <path id="Path_2498" data-name="Path 2498" d="M.5-3.984H.612l.139.265v-.265h.1V-3.6H.734L.6-3.863V-3.6H.5Z" transform="translate(-0.5 3.984)" fill="#009bad"/>
      </g>
      <g id="Group_2980" data-name="Group 2980" transform="translate(73.328 84.813)">
        <path id="Path_2499" data-name="Path 2499" d="M.393-3a.054.054,0,0,0-.047.023.106.106,0,0,0-.015.062.116.116,0,0,0,.015.065.055.055,0,0,0,.047.021A.056.056,0,0,0,.44-2.846a.109.109,0,0,0,.017-.065A.1.1,0,0,0,.44-2.973.055.055,0,0,0,.393-3Zm0-.067a.158.158,0,0,1,.116.041.145.145,0,0,1,.042.11A.151.151,0,0,1,.51-2.8a.16.16,0,0,1-.116.039A.163.163,0,0,1,.277-2.8a.15.15,0,0,1-.042-.113.143.143,0,0,1,.042-.11A.16.16,0,0,1,.393-3.062Z" transform="translate(-0.234 3.063)" fill="#009bad"/>
      </g>
      <g id="Group_2981" data-name="Group 2981" transform="translate(73.71 84.82)">
        <path id="Path_2500" data-name="Path 2500" d="M.422-2.809v-.175H.516v.135c0,.023,0,.04,0,.051a.04.04,0,0,0,.006.021.048.048,0,0,0,.015.015.046.046,0,0,0,.021,0A.054.054,0,0,0,.6-2.78a.1.1,0,0,0,.017-.062v-.142H.714V-2.7H.621v-.042A.142.142,0,0,1,.576-2.7a.11.11,0,0,1-.051.012.1.1,0,0,1-.077-.03.139.139,0,0,1-.026-.091Z" transform="translate(-0.422 2.984)" fill="#009bad"/>
      </g>
      <g id="Group_2982" data-name="Group 2982" transform="translate(74.09 84.813)">
        <path id="Path_2501" data-name="Path 2501" d="M.745-2.943v.177H.651V-2.9c0-.025,0-.042,0-.051a.047.047,0,0,0-.006-.021.03.03,0,0,0-.015-.014.037.037,0,0,0-.02-.006.054.054,0,0,0-.047.023.11.11,0,0,0-.015.062v.142H.453v-.289H.547v.042A.128.128,0,0,1,.591-3.05a.114.114,0,0,1,.051-.012.092.092,0,0,1,.076.032.128.128,0,0,1,.027.088Z" transform="translate(-0.453 3.062)" fill="#009bad"/>
      </g>
      <g id="Group_2983" data-name="Group 2983" transform="translate(74.655 84.724)">
        <path id="Path_2502" data-name="Path 2502" d="M.5-3.984H.665a.173.173,0,0,1,.113.033.112.112,0,0,1,.039.092.116.116,0,0,1-.039.094.178.178,0,0,1-.113.032H.6V-3.6H.5Zm.1.073V-3.8H.654A.064.064,0,0,0,.7-3.818a.052.052,0,0,0,.017-.041A.048.048,0,0,0,.7-3.9a.064.064,0,0,0-.044-.014Z" transform="translate(-0.5 3.984)" fill="#009bad"/>
      </g>
      <g id="Group_2984" data-name="Group 2984" transform="translate(75.039 84.813)">
        <path id="Path_2503" data-name="Path 2503" d="M.669-2.976.645-2.985l-.024,0a.068.068,0,0,0-.056.024A.1.1,0,0,0,.547-2.9v.133H.453v-.289H.547v.047a.105.105,0,0,1,.039-.041.112.112,0,0,1,.056-.014H.653l.015,0Z" transform="translate(-0.453 3.063)" fill="#009bad"/>
      </g>
      <g id="Group_2985" data-name="Group 2985" transform="translate(75.278 84.813)">
        <path id="Path_2504" data-name="Path 2504" d="M.393-3a.054.054,0,0,0-.047.023.106.106,0,0,0-.015.062.116.116,0,0,0,.015.065.055.055,0,0,0,.047.021A.056.056,0,0,0,.44-2.846a.109.109,0,0,0,.017-.065A.1.1,0,0,0,.44-2.973.055.055,0,0,0,.393-3Zm0-.067a.158.158,0,0,1,.116.041.145.145,0,0,1,.042.11A.151.151,0,0,1,.51-2.8a.16.16,0,0,1-.116.039A.163.163,0,0,1,.277-2.8a.15.15,0,0,1-.042-.113.143.143,0,0,1,.042-.11A.16.16,0,0,1,.393-3.062Z" transform="translate(-0.234 3.063)" fill="#009bad"/>
      </g>
      <g id="Group_2986" data-name="Group 2986" transform="translate(75.601 84.707)">
        <path id="Path_2505" data-name="Path 2505" d="M-.126-4.043h.094v.284a.124.124,0,0,1-.029.088.1.1,0,0,1-.08.032H-.188V-3.7h.017a.042.042,0,0,0,.035-.012.069.069,0,0,0,.011-.045Zm0-.113h.094v.076H-.126Z" transform="translate(0.188 4.156)" fill="#009bad"/>
      </g>
      <g id="Group_2987" data-name="Group 2987" transform="translate(75.823 84.813)">
        <path id="Path_2506" data-name="Path 2506" d="M.544-2.911v.026H.328a.075.075,0,0,0,.024.05.089.089,0,0,0,.056.015.239.239,0,0,0,.06-.008.3.3,0,0,0,.062-.027v.071a.292.292,0,0,1-.065.02A.389.389,0,0,1,.4-2.759.175.175,0,0,1,.278-2.8a.146.146,0,0,1-.044-.113.146.146,0,0,1,.042-.11.166.166,0,0,1,.118-.041A.147.147,0,0,1,.5-3.022a.15.15,0,0,1,.041.11ZM.451-2.943a.053.053,0,0,0-.017-.041A.052.052,0,0,0,.395-3a.064.064,0,0,0-.044.015.07.07,0,0,0-.021.042Z" transform="translate(-0.234 3.063)" fill="#009bad"/>
      </g>
      <g id="Group_2988" data-name="Group 2988" transform="translate(76.182 84.813)">
        <path id="Path_2507" data-name="Path 2507" d="M.49-3.046v.074A.158.158,0,0,0,.452-2.99.144.144,0,0,0,.413-3a.078.078,0,0,0-.06.023.086.086,0,0,0-.021.062.088.088,0,0,0,.021.064.078.078,0,0,0,.06.023.135.135,0,0,0,.041-.006.107.107,0,0,0,.036-.02v.076a.18.18,0,0,1-.044.012.231.231,0,0,1-.045,0A.175.175,0,0,1,.278-2.8a.146.146,0,0,1-.044-.113.14.14,0,0,1,.044-.11A.172.172,0,0,1,.4-3.062a.231.231,0,0,1,.045,0,.18.18,0,0,1,.044.012Z" transform="translate(-0.234 3.062)" fill="#009bad"/>
      </g>
      <g id="Group_2989" data-name="Group 2989" transform="translate(76.481 84.737)">
        <path id="Path_2508" data-name="Path 2508" d="M.216-3.844v.083h.1V-3.7h-.1v.124a.037.037,0,0,0,.008.027.063.063,0,0,0,.033.006H.3v.067H.225a.109.109,0,0,1-.079-.023.107.107,0,0,1-.023-.077V-3.7H.078v-.065H.123v-.083Z" transform="translate(-0.078 3.844)" fill="#009bad"/>
      </g>
    </g>
  </g>
</svg>
