<svg xmlns="http://www.w3.org/2000/svg" width="39.054" height="24.032" viewBox="0 0 39.054 24.032">
  <g id="Group_2104" data-name="Group 2104" transform="translate(-80 -71.104)" opacity="0.8">
    <path id="Path_521" data-name="Path 521" d="M24,13.157c.164.028.565-.226.751-.277a16.792,16.792,0,0,1,1.965-.525,11.293,11.293,0,0,1,5.647.141c.728.237,1.395.627,2.1.909.39.158.785.311,1.18.457a54.7,54.7,0,0,0,9.4,2.468,58.688,58.688,0,0,0,6.973.779,54.2,54.2,0,0,0,7.1-.09c-.034,0-.1.085-.13.107-.124.1-.254.186-.384.277a14.448,14.448,0,0,1-1.5.9,17.222,17.222,0,0,1-2.422,1.067,18.069,18.069,0,0,1-3.264.785,19.294,19.294,0,0,1-4.037.158c-.367-.028-.728-.062-1.1-.1a1.338,1.338,0,0,0-.565.04c-.051,0-.141.034-.147.1s.141.141.2.164a1.53,1.53,0,0,0,.356.073l.689.079c.5.056,1.005.119,1.5.186.762.1,1.53.181,2.259.322a1.033,1.033,0,0,1,.322.079.615.615,0,0,1-.062.034l-.192.107-.3.158-.412.2-.5.232c-.2.085-.39.169-.565.248l-.661.26-.734.248c-.26.085-.525.164-.791.237s-.565.141-.83.2-.565.119-.875.164-.6.085-.9.107-.61.045-.92.051a7.128,7.128,0,0,1-.92-.034l-.367-.04h-.186c-.068,0-.164-.051-.215,0a.045.045,0,0,0,0,.062c.056.107.192.119.3.136l.39.079.531.113.6.124.61.136.565.124.412.107.13.04.073.034a18.222,18.222,0,0,1-1.971.971,10.209,10.209,0,0,1-1.654.565,3.106,3.106,0,0,1-.966.119,1.3,1.3,0,0,1-.683-.384,37.431,37.431,0,0,1-5.918-6.386,17.008,17.008,0,0,0-1.214-1.412,12.637,12.637,0,0,0-2.823-2.36A18.56,18.56,0,0,0,24,13.157Z" transform="translate(59.933 59.041)" fill="#fff"/>
    <path id="Path_522" data-name="Path 522" d="M20.539,15.765a.819.819,0,0,1,.2,0l.2.028a3.18,3.18,0,0,1,.565.09c.186.034.514.1.768.164s.615.164.926.26.7.243,1.045.378.768.333,1.129.519.807.435,1.191.683a14.116,14.116,0,0,1,1.2.864,13.117,13.117,0,0,1,2.259,2.259q.847,1.118,1.694,2.259a25.794,25.794,0,0,0,2.987,3.241c.892.807,1.824,1.57,2.739,2.355.486.418.977.824,1.468,1.237l.4.322.412.339.418.339.435.35.418.333s6.968,5.082,9.108,5.822a17.922,17.922,0,0,1-13.145-3.89L40.6,36.866s1.078.8-.294.508c0,0-6.471-1.541-8.876-3.286l.169.169.44.423.565.565.6.565.508.5a3.147,3.147,0,0,0,.288.26c.1.079.215.124.316.2s.073.056.062.1-.124.062-.169.068H33.7a8.714,8.714,0,0,1-6.584-2.823l1.5,2.417s.672.9-.7.615c0,0-7.267-.463-10.728-11.892a1.321,1.321,0,0,1,0-.147l-.051-.423c0-.209-.04-.423-.056-.638s-.04-.565-.045-.819,0-.632,0-.949a7.116,7.116,0,0,1,.051-1.028c.051-.339.068-.711.13-1.067a8.6,8.6,0,0,1,.232-1.056,6.917,6.917,0,0,1,.333-.971,5.319,5.319,0,0,1,.5-.892,3.953,3.953,0,0,1,.666-.74,3.388,3.388,0,0,1,.853-.565c.124-.056.248-.1.373-.147A1.846,1.846,0,0,1,20.539,15.765Z" transform="translate(62.965 57.431)" fill="#fff"/>
  </g>
</svg>
