<svg xmlns="http://www.w3.org/2000/svg" width="40.84" height="40.84" viewBox="0 0 40.84 40.84">
  <g id="hub" opacity="0.4">
    <path id="Path_198" data-name="Path 198" d="M108.5,60.427a3.448,3.448,0,1,1,3.449-3.448A3.453,3.453,0,0,1,108.5,60.427Zm0-5.579a2.131,2.131,0,1,0,2.132,2.131A2.134,2.134,0,0,0,108.5,54.848Z" transform="translate(-71.113 -36.559)" fill="#333"/>
    <path id="Path_199" data-name="Path 199" d="M82.654,63.317H71.329a.659.659,0,0,1,0-1.317H82.654a.659.659,0,0,1,0,1.317Z" transform="translate(-48.053 -42.239)" fill="#333"/>
    <path id="Path_200" data-name="Path 200" d="M56.342,60.257a3.612,3.612,0,1,1,3.613-3.612A3.617,3.617,0,0,1,56.342,60.257Zm0-5.907a2.295,2.295,0,1,0,2.3,2.295A2.3,2.3,0,0,0,56.342,54.35Z" transform="translate(-36.021 -36.225)" fill="#333"/>
    <path id="Path_201" data-name="Path 201" d="M5.449,60.427A3.448,3.448,0,1,1,8.9,56.979,3.453,3.453,0,0,1,5.449,60.427Zm0-5.579a2.131,2.131,0,1,0,2.132,2.131A2.134,2.134,0,0,0,5.449,54.848Z" transform="translate(-2 -36.559)" fill="#333"/>
    <path id="Path_202" data-name="Path 202" d="M30.731,63.317H19.6A.659.659,0,0,1,19.6,62H30.731a.659.659,0,1,1,0,1.317Z" transform="translate(-13.364 -42.239)" fill="#333"/>
    <path id="Path_203" data-name="Path 203" d="M56.677,8.9a3.448,3.448,0,1,1,3.449-3.448A3.452,3.452,0,0,1,56.677,8.9Zm0-5.579a2.131,2.131,0,1,0,2.132,2.131A2.133,2.133,0,0,0,56.677,3.317Z" transform="translate(-36.356 -2)" fill="#333"/>
    <path id="Path_204" data-name="Path 204" d="M62.359,31.485a.659.659,0,0,1-.659-.659V19.6a.659.659,0,0,1,1.317,0v11.23A.659.659,0,0,1,62.359,31.485Z" transform="translate(-42.038 -13.359)" fill="#333"/>
    <path id="Path_205" data-name="Path 205" d="M56.677,111.958a3.448,3.448,0,1,1,3.449-3.448A3.452,3.452,0,0,1,56.677,111.958Zm0-5.578a2.13,2.13,0,1,0,2.132,2.13A2.133,2.133,0,0,0,56.677,106.38Z" transform="translate(-36.356 -71.118)" fill="#333"/>
    <path id="Path_206" data-name="Path 206" d="M62.359,83.514a.659.659,0,0,1-.659-.659V71.626a.659.659,0,0,1,1.317,0v11.23A.659.659,0,0,1,62.359,83.514Z" transform="translate(-42.038 -48.252)" fill="#333"/>
  </g>
</svg>
