<svg xmlns="http://www.w3.org/2000/svg" width="16.813" height="16.813" viewBox="0 0 16.813 16.813">
  <g id="noun-internet-326743" transform="translate(-70)">
    <path id="Path_1256" data-name="Path 1256" d="M78.407,16.813a8.407,8.407,0,1,1,8.407-8.407A8.418,8.418,0,0,1,78.407,16.813Zm0-16.288a7.881,7.881,0,1,0,7.881,7.881A7.891,7.891,0,0,0,78.407.525Z"/>
    <path id="Path_1257" data-name="Path 1257" d="M341.25,20.3h.525V35.885h-.525Z" transform="translate(-263.106 -19.691)"/>
    <path id="Path_1258" data-name="Path 1258" d="M79.273,271.07H95.545v.525H79.273Z" transform="translate(-8.995 -262.931)"/>
    <path id="Path_1259" data-name="Path 1259" d="M144.755,110.308a12.281,12.281,0,0,1-6.5-1.723l.294-.436a11.941,11.941,0,0,0,6.21,1.634,10.285,10.285,0,0,0,5.9-1.624l.321.415a10.582,10.582,0,0,1-6.216,1.734Z" transform="translate(-66.201 -104.902)"/>
    <path id="Path_1260" data-name="Path 1260" d="M144.273,110.474a11.463,11.463,0,0,1-6.374-1.729l.3-.426a11.162,11.162,0,0,0,6.063,1.629,11.013,11.013,0,0,0,6.037-1.629l.315.426a11.331,11.331,0,0,1-6.347,1.729Z" transform="translate(-65.861 -105.068)"/>
    <path id="Path_1261" data-name="Path 1261" d="M138.387,379.1l-.3-.426a11.512,11.512,0,0,1,6.373-1.729,11.283,11.283,0,0,1,6.347,1.729l-.31.426a11.015,11.015,0,0,0-6.037-1.629,11.169,11.169,0,0,0-6.068,1.629Z" transform="translate(-66.038 -365.632)"/>
    <path id="Path_1262" data-name="Path 1262" d="M220.337,21.254c-.158-.1-3.867-2.538-3.867-8.349s3.7-8.081,3.857-8.176l.268.452c-.037.021-3.6,2.222-3.6,7.724a9.489,9.489,0,0,0,3.62,7.9Z" transform="translate(-142.072 -4.588)"/>
    <path id="Path_1263" data-name="Path 1263" d="M345.035,21.419l-.284-.441a9.474,9.474,0,0,0,3.62-7.9c0-5.506-3.567-7.7-3.6-7.724l.268-.452c.158.095,3.857,2.359,3.857,8.176s-3.7,8.244-3.857,8.344Z" transform="translate(-266.502 -4.753)"/>
  </g>
</svg>
