
<svg xmlns="http://www.w3.org/2000/svg" width="31.093" height="30" viewBox="0 0 31.093 30">
  <g id="IT_service" data-name="IT service" transform="translate(-876 -461)">
    <path id="Path_184" data-name="Path 184" d="M29.044,9H2.05A2.051,2.051,0,0,0,0,11.048V30.883a2.051,2.051,0,0,0,2.05,2.048h9.444l-.393,2H9.278a2.04,2.04,0,0,0-2.039,2.036v1.281A.757.757,0,0,0,8,39H23.726a.756.756,0,0,0,.755-.755V36.964a2.04,2.04,0,0,0-2.039-2.036H20.619l-.392-2h8.816a2.051,2.051,0,0,0,2.05-2.048V11.048A2.051,2.051,0,0,0,29.044,9ZM19.69,34.928H16.9a.455.455,0,1,0,0,.911h5.543a1.128,1.128,0,0,1,1.128,1.125v1.125H8.15V36.964a1.128,1.128,0,0,1,1.128-1.125H14.8a.455.455,0,1,0,0-.911H12.03l.393-2H19.3Zm10.492-4.045a1.139,1.139,0,0,1-1.139,1.137H2.05A1.139,1.139,0,0,1,.911,30.883V11.048A1.139,1.139,0,0,1,2.05,9.911H29.044a1.139,1.139,0,0,1,1.139,1.137Z" transform="translate(876 452)" fill="#01375b"/>
    <path id="Path_185" data-name="Path 185" d="M66.012,49.95H41.442a.793.793,0,0,0-.793.791V68.114a.794.794,0,0,0,.793.793l11.534,0a.455.455,0,0,0,0-.911L41.56,68V50.861H65.892V68l-10.813,0h0a.455.455,0,0,0,0,.911l10.933,0a.793.793,0,0,0,.791-.793V50.741a.792.792,0,0,0-.791-.791Z" transform="translate(837.819 413.537)" fill="#01375b"/>
    <g id="Group_167" data-name="Group 167" transform="translate(885.762 467.131)">
      <path id="Path_189" data-name="Path 189" d="M96.92,118.036q.088-.185.16-.375h.226a1.008,1.008,0,0,0,1.008-1.006v-1.464a1.009,1.009,0,0,0-1.008-1.008h-.2q-.073-.2-.164-.4l.139-.139a1.01,1.01,0,0,0,0-1.424l-1.038-1.035a1.011,1.011,0,0,0-1.424,0l-.138.138q-.2-.091-.4-.164v-.2a1.008,1.008,0,0,0-1.008-1.006H91.611a1.008,1.008,0,0,0-1.008,1.006v.227q-.189.072-.374.159l-.165-.165a1.01,1.01,0,0,0-1.422,0l-1.036,1.035a1.006,1.006,0,0,0,0,1.423l.192.193q-.077.171-.14.346h-.276a1.009,1.009,0,0,0-1.008,1.008v1.464a1.008,1.008,0,0,0,1.008,1.006h.3q.062.163.135.322l-.216.216a1.006,1.006,0,0,0,0,1.424l1.035,1.034a1,1,0,0,0,.71.3,1.008,1.008,0,0,0,.714-.295l.217-.216q.158.073.321.135v.3a1.008,1.008,0,0,0,1.008,1.006h1.465a1.008,1.008,0,0,0,1.008-1.006v-.275q.174-.063.346-.14l.192.192a1,1,0,0,0,.712.295h0a1,1,0,0,0,.709-.294l1.038-1.036a1.009,1.009,0,0,0,0-1.423Zm-.88.409.4.4a.1.1,0,0,1,0,.136l-1.04,1.037a.091.091,0,0,1-.066.027.1.1,0,0,1-.069-.028l-.422-.421a.456.456,0,0,0-.535-.08,4.054,4.054,0,0,1-.8.323.456.456,0,0,0-.333.439v.607a.1.1,0,0,1-.1.095H91.611a.1.1,0,0,1-.1-.095v-.629a.456.456,0,0,0-.322-.436,4.184,4.184,0,0,1-.781-.329.455.455,0,0,0-.54.077l-.449.449a.1.1,0,0,1-.069.028.084.084,0,0,1-.067-.028l-1.038-1.037a.09.09,0,0,1-.027-.065.1.1,0,0,1,.028-.068l.449-.449a.455.455,0,0,0,.078-.541,4.159,4.159,0,0,1-.329-.781.455.455,0,0,0-.436-.322h-.63a.1.1,0,0,1-.1-.095v-1.464a.1.1,0,0,1,.1-.1h.608a.455.455,0,0,0,.439-.332,3.991,3.991,0,0,1,.323-.8.455.455,0,0,0-.079-.536L88.248,113a.09.09,0,0,1-.027-.065.1.1,0,0,1,.028-.068l1.036-1.035a.1.1,0,0,1,.136,0l.4.4a.456.456,0,0,0,.545.075,4.046,4.046,0,0,1,.823-.351.455.455,0,0,0,.325-.436v-.554a.1.1,0,0,1,.1-.095h1.465a.1.1,0,0,1,.1.095v.53a.456.456,0,0,0,.331.438,4.2,4.2,0,0,1,.852.349.456.456,0,0,0,.54-.079l.368-.369a.1.1,0,0,1,.138,0l1.036,1.034a.1.1,0,0,1,0,.136l-.372.371a.456.456,0,0,0-.078.54,4.19,4.19,0,0,1,.349.851.455.455,0,0,0,.438.33h.529a.1.1,0,0,1,.1.1v1.464a.1.1,0,0,1-.1.095h-.553a.456.456,0,0,0-.436.325,4.024,4.024,0,0,1-.351.823A.456.456,0,0,0,96.041,118.445Z" transform="translate(-86.374 -109.959)" fill="#01375b"/>
      <path id="Path_190" data-name="Path 190" d="M156.109,177.785a1.846,1.846,0,1,0,1.846,1.845A1.849,1.849,0,0,0,156.109,177.785Zm0,2.781a.935.935,0,1,1,.935-.936A.938.938,0,0,1,156.109,180.566Z" transform="translate(-150.138 -173.666)" fill="#01375b"/>
    </g>
  </g>
</svg>

