<svg xmlns="http://www.w3.org/2000/svg" width="42.41" height="40.919" viewBox="0 0 42.41 40.919">
  <g id="IT_service" data-name="IT service" transform="translate(-876 -461)" opacity="0.4">
    <path id="Path_184" data-name="Path 184" d="M39.615,9H2.8A2.8,2.8,0,0,0,0,11.793V38.847a2.8,2.8,0,0,0,2.8,2.793H15.677l-.536,2.724H12.655a2.782,2.782,0,0,0-2.781,2.777V48.89a1.032,1.032,0,0,0,1.032,1.029H32.362a1.031,1.031,0,0,0,1.03-1.029V47.142a2.782,2.782,0,0,0-2.781-2.777H28.123l-.534-2.724H39.615a2.8,2.8,0,0,0,2.8-2.793V11.793A2.8,2.8,0,0,0,39.615,9ZM26.857,44.365H23.049a.621.621,0,0,0,0,1.242H30.61a1.538,1.538,0,0,1,1.539,1.535v1.535H11.116V47.142a1.538,1.538,0,0,1,1.539-1.535H20.18a.621.621,0,1,0,0-1.242H16.408l.536-2.724h9.379Zm14.31-5.518A1.554,1.554,0,0,1,39.615,40.4H2.8a1.554,1.554,0,0,1-1.553-1.551V11.793A1.554,1.554,0,0,1,2.8,10.242H39.615a1.554,1.554,0,0,1,1.553,1.551Z" transform="translate(876 452)" fill="#333"/>
    <path id="Path_185" data-name="Path 185" d="M75.244,49.95H41.73a1.081,1.081,0,0,0-1.081,1.079v23.7a1.083,1.083,0,0,0,1.082,1.081l15.732,0a.621.621,0,0,0,0-1.242l-15.571,0V51.192H75.08V74.564l-14.749,0h0a.621.621,0,0,0,0,1.242l14.912,0a1.081,1.081,0,0,0,1.079-1.081v-23.7a1.08,1.08,0,0,0-1.079-1.079Z" transform="translate(838.718 414.442)" fill="#333"/>
    <g id="Group_167" data-name="Group 167" transform="translate(889.315 469.362)">
      <path id="Path_189" data-name="Path 189" d="M100.759,120.976q.12-.252.218-.511h.308a1.375,1.375,0,0,0,1.375-1.372v-2a1.376,1.376,0,0,0-1.375-1.374h-.269q-.1-.276-.224-.544l.19-.19a1.377,1.377,0,0,0,0-1.942l-1.415-1.412a1.379,1.379,0,0,0-1.943,0l-.188.189q-.269-.124-.544-.223v-.271a1.375,1.375,0,0,0-1.375-1.372h-2a1.375,1.375,0,0,0-1.375,1.372v.31q-.258.1-.51.217l-.225-.225a1.378,1.378,0,0,0-1.94,0l-1.413,1.412a1.372,1.372,0,0,0,0,1.941l.262.263q-.1.233-.191.472h-.376a1.376,1.376,0,0,0-1.375,1.374v2a1.375,1.375,0,0,0,1.375,1.372h.416q.085.223.185.439l-.3.295a1.372,1.372,0,0,0,0,1.942l1.412,1.41a1.36,1.36,0,0,0,.969.4,1.375,1.375,0,0,0,.975-.4l.3-.3q.215.1.438.184v.415a1.375,1.375,0,0,0,1.375,1.372h2a1.375,1.375,0,0,0,1.375-1.372v-.375q.238-.086.472-.191l.262.262a1.365,1.365,0,0,0,.972.4h0a1.358,1.358,0,0,0,.967-.4l1.416-1.413a1.377,1.377,0,0,0,0-1.942Zm-1.2.558.543.542a.135.135,0,0,1,0,.185l-1.418,1.414a.124.124,0,0,1-.09.036.133.133,0,0,1-.094-.038l-.575-.575a.621.621,0,0,0-.73-.109,5.528,5.528,0,0,1-1.1.441.621.621,0,0,0-.454.6v.828a.133.133,0,0,1-.132.129h-2a.134.134,0,0,1-.132-.129V124a.621.621,0,0,0-.439-.594,5.706,5.706,0,0,1-1.065-.448.621.621,0,0,0-.737.106l-.613.612a.13.13,0,0,1-.094.038.114.114,0,0,1-.092-.038L88.93,122.26a.123.123,0,0,1-.036-.089.129.129,0,0,1,.038-.093l.613-.612a.621.621,0,0,0,.106-.738,5.673,5.673,0,0,1-.449-1.065.621.621,0,0,0-.594-.44h-.859a.134.134,0,0,1-.132-.13v-2a.134.134,0,0,1,.132-.132h.829a.621.621,0,0,0,.6-.453,5.443,5.443,0,0,1,.44-1.092.621.621,0,0,0-.108-.731l-.578-.58a.123.123,0,0,1-.036-.089.129.129,0,0,1,.038-.093l1.413-1.412a.136.136,0,0,1,.186,0l.545.544a.621.621,0,0,0,.744.1,5.519,5.519,0,0,1,1.123-.479.621.621,0,0,0,.443-.6v-.755a.134.134,0,0,1,.132-.129h2a.133.133,0,0,1,.132.129v.723a.621.621,0,0,0,.451.6,5.723,5.723,0,0,1,1.163.476A.622.622,0,0,0,98,113.02l.5-.5a.137.137,0,0,1,.188,0l1.414,1.41a.135.135,0,0,1,0,.185l-.507.507a.621.621,0,0,0-.107.736,5.716,5.716,0,0,1,.477,1.161.621.621,0,0,0,.6.451h.721a.132.132,0,0,1,.132.132v2a.133.133,0,0,1-.132.129h-.754a.621.621,0,0,0-.6.444,5.489,5.489,0,0,1-.479,1.123A.622.622,0,0,0,99.559,121.534Z" transform="translate(-86.374 -109.959)" fill="#333"/>
      <path id="Path_190" data-name="Path 190" d="M156.782,177.785A2.518,2.518,0,1,0,159.3,180.3,2.522,2.522,0,0,0,156.782,177.785Zm0,3.793a1.275,1.275,0,1,1,1.276-1.277A1.279,1.279,0,0,1,156.782,181.578Z" transform="translate(-148.638 -172.167)" fill="#333"/>
    </g>
  </g>
</svg>
