<svg xmlns="http://www.w3.org/2000/svg" width="16.748" height="16.656" viewBox="0 0 16.748 16.656">
  <path id="Path_2397" data-name="Path 2397" d="M163.473,88.061a1.939,1.939,0,0,0-.647-1.432,1.841,1.841,0,0,0,.346-1.294,2,2,0,0,0-1.987-1.756h-3l.185-1.432a3.28,3.28,0,0,0-3.28-3.742,1.348,1.348,0,0,0-.947.393,1.3,1.3,0,0,0-.393.924v1.894a4.415,4.415,0,0,1-.67,2.333l-.809,1.294a1.14,1.14,0,0,1-.462.416,1.241,1.241,0,0,0-1.178-.878h-2.657a1.242,1.242,0,0,0-1.247,1.247v7.785a1.242,1.242,0,0,0,1.247,1.247h2.7a1.242,1.242,0,0,0,1.247-1.247v-.185a3.376,3.376,0,0,0,2.241.855h5.868a2.069,2.069,0,0,0,1.432-.6,1.791,1.791,0,0,0,.531-1.363,1.432,1.432,0,0,0-.092-.531,1.922,1.922,0,0,0,1.04-1.71,2,2,0,0,0-.139-.739,2.054,2.054,0,0,0,.67-1.478ZM150.744,93.79a.1.1,0,0,1-.092.092h-2.68a.1.1,0,0,1-.092-.092V86.005a.1.1,0,0,1,.092-.092h2.7a.1.1,0,0,1,.092.092v7.785Zm11.135-5.036a.681.681,0,0,0-.37.462.653.653,0,0,0,.139.578.706.706,0,0,1,.162.462.789.789,0,0,1-.647.762A.7.7,0,0,0,160.7,92.1a.711.711,0,0,1,.139.439.771.771,0,0,1-.208.531.892.892,0,0,1-.624.254H154.14a2.243,2.243,0,0,1-2.241-2.241V86.837a2.246,2.246,0,0,0,1.386-.993l.809-1.294a5.5,5.5,0,0,0,.855-2.934V79.722a.158.158,0,0,1,.162-.162,2.153,2.153,0,0,1,2.1,1.663,2.038,2.038,0,0,1,.023.762l-.208,1.617a1,1,0,0,0,.231.785,1.019,1.019,0,0,0,.739.346h3.188a.867.867,0,0,1,.832.693.809.809,0,0,1-.346.716.705.705,0,0,0-.3.647.645.645,0,0,0,.439.554.751.751,0,0,1,.485.716.7.7,0,0,1-.416.693Z" transform="translate(-146.724 -78.405)" fill="#333"/>
</svg>
