<svg xmlns="http://www.w3.org/2000/svg" width="23.844" height="23.259" viewBox="0 0 23.844 23.259">
  <g id="like" transform="translate(-70 -69.603)">
    <path id="Path_1216" data-name="Path 1216" d="M237.694,78.275l2.992-3.771-.352-3.163c-.336-3.1,7.747-2.5,5.048,5.464l5.4-.069a3.438,3.438,0,0,1,1.687,1.139,1.792,1.792,0,0,1-.166,2.4,3.445,3.445,0,0,1-.7.579c1.261,1.075.8,2.134-.392,2.966.882.995.831,2.035-.283,2.72.984,1.232-.5,2.422-1.435,2.979a.567.567,0,0,1-.347.083l-10.953-.04a.614.614,0,0,1-.6-.624l-.046-10.249a.646.646,0,0,1,.148-.413Z" transform="translate(-159.01 0)" fill="rgba(0,0,0,0.4)"/>
    <path id="Path_1217" data-name="Path 1217" d="M126.6,247.18h3.137a.6.6,0,0,1,.6.6v9.862a.6.6,0,0,1-.6.6H126.6a.6.6,0,0,1-.6-.6v-9.862A.6.6,0,0,1,126.6,247.18Z" transform="translate(-53.449 -168.608)" fill="rgba(0,0,0,0.4)"/>
    <g id="Group_1640" data-name="Group 1640" transform="translate(70.001 92.836)">
      <path id="Path_1218" data-name="Path 1218" d="M.023-.195H.017a0,0,0,0,1,0,0s0,0,0,0h0a0,0,0,0,0,0,0s0,0,0,0h0Z" transform="translate(-0.016 0.203)" fill="rgba(0,0,0,0.4)"/>
    </g>
    <g id="Group_1641" data-name="Group 1641" transform="translate(70.01 92.839)">
      <path id="Path_1219" data-name="Path 1219" d="M.021-.154h0v0h0V-.156H.021Z" transform="translate(-0.016 0.156)" fill="rgba(0,0,0,0.4)"/>
    </g>
    <g id="Group_1642" data-name="Group 1642" transform="translate(70.016 92.839)">
      <path id="Path_1220" data-name="Path 1220" d="M.023-.153H.016a.005.005,0,0,1,0,0,0,0,0,0,1,0,0h0v0Zm0,0h0Z" transform="translate(-0.016 0.156)" fill="rgba(0,0,0,0.4)"/>
    </g>
    <g id="Group_1643" data-name="Group 1643" transform="translate(70.025 92.839)">
      <path id="Path_1221" data-name="Path 1221" d="M.019-.152h0Zm0,0v0H.016s0,0,0,0,0,0,0,0h0v0h0Z" transform="translate(-0.016 0.156)" fill="rgba(0,0,0,0.4)"/>
    </g>
    <g id="Group_1644" data-name="Group 1644" transform="translate(70.033 92.836)">
      <path id="Path_1222" data-name="Path 1222" d="M0-.2v0H0v0H0v0H0v0Z" transform="translate(0 0.203)" fill="rgba(0,0,0,0.4)"/>
    </g>
    <g id="Group_1645" data-name="Group 1645" transform="translate(70.04 92.839)">
      <path id="Path_1223" data-name="Path 1223" d="M.023-.153H.016a.005.005,0,0,1,0,0,0,0,0,0,1,0,0h0v0Zm0,0h0Z" transform="translate(-0.016 0.156)" fill="rgba(0,0,0,0.4)"/>
    </g>
    <g id="Group_1646" data-name="Group 1646" transform="translate(70.048 92.836)">
      <path id="Path_1224" data-name="Path 1224" d="M.021-.214v0h0v.01H.016a.005.005,0,0,1,0,0,0,0,0,0,1,0,0h0Zm0,0h0a0,0,0,0,0,0,0h0v0Z" transform="translate(-0.016 0.219)" fill="rgba(0,0,0,0.4)"/>
    </g>
    <g id="Group_1647" data-name="Group 1647" transform="translate(70.062 92.836)">
      <path id="Path_1225" data-name="Path 1225" d="M.02-.21h0a0,0,0,0,0,0,0h0Zm0,0h0v0a.007.007,0,0,1,0,0H.016v-.01h0Z" transform="translate(-0.016 0.219)" fill="rgba(0,0,0,0.4)"/>
    </g>
    <g id="Group_1648" data-name="Group 1648" transform="translate(70.07 92.839)">
      <path id="Path_1226" data-name="Path 1226" d="M0-.156H0l0,0v0h0L0-.148H0Z" transform="translate(0 0.156)" fill="rgba(0,0,0,0.4)"/>
    </g>
    <g id="Group_1649" data-name="Group 1649" transform="translate(70.084 92.839)">
      <path id="Path_1227" data-name="Path 1227" d="M.019-.152h0Zm0,0v0H.016s0,0,0,0,0,0,0,0h0v0h0Z" transform="translate(-0.016 0.156)" fill="rgba(0,0,0,0.4)"/>
    </g>
    <g id="Group_1650" data-name="Group 1650" transform="translate(70.092 92.836)">
      <path id="Path_1228" data-name="Path 1228" d="M.016-.219h0v.01h0Z" transform="translate(-0.016 0.219)" fill="rgba(0,0,0,0.4)"/>
    </g>
    <g id="Group_1651" data-name="Group 1651" transform="translate(70.097 92.836)">
      <path id="Path_1229" data-name="Path 1229" d="M.016-.216h0v.007h0Zm0,0h0v0h0Z" transform="translate(-0.016 0.219)" fill="rgba(0,0,0,0.4)"/>
    </g>
    <g id="Group_1652" data-name="Group 1652" transform="translate(70.1 92.836)">
      <path id="Path_1230" data-name="Path 1230" d="M.006-.219v0H0v.006H0V-.214H0a0,0,0,0,1,0,0H0Z" transform="translate(0 0.219)" fill="rgba(0,0,0,0.4)"/>
    </g>
    <g id="Group_1653" data-name="Group 1653" transform="translate(70.107 92.839)">
      <path id="Path_1231" data-name="Path 1231" d="M.021-.154h0v0h0V-.156H.021Z" transform="translate(-0.016 0.156)" fill="rgba(0,0,0,0.4)"/>
    </g>
    <g id="Group_1654" data-name="Group 1654" transform="translate(70.113 92.836)">
      <path id="Path_1232" data-name="Path 1232" d="M.016-.216h0v.007h0Zm0,0h0v0h0Z" transform="translate(-0.016 0.219)" fill="rgba(0,0,0,0.4)"/>
    </g>
    <g id="Group_1655" data-name="Group 1655" transform="translate(70.117 92.839)">
      <path id="Path_1233" data-name="Path 1233" d="M.019-.155h0v0h0a0,0,0,0,0,0,0h0Zm0,0h0v0a.007.007,0,0,1,0,0H.016a.005.005,0,0,1,0,0,0,0,0,0,1,0,0Z" transform="translate(-0.016 0.156)" fill="rgba(0,0,0,0.4)"/>
    </g>
    <g id="Group_1656" data-name="Group 1656" transform="translate(70 92.849)">
      <path id="Path_1234" data-name="Path 1234" d="M.006-.219v0H0v.006H0V-.214H0a0,0,0,0,1,0,0H0Z" transform="translate(0 0.219)" fill="rgba(0,0,0,0.4)"/>
    </g>
    <g id="Group_1657" data-name="Group 1657" transform="translate(70.006 92.851)">
      <path id="Path_1235" data-name="Path 1235" d="M.021-.154h0v0h0V-.156H.021Z" transform="translate(-0.016 0.156)" fill="rgba(0,0,0,0.4)"/>
    </g>
    <g id="Group_1658" data-name="Group 1658" transform="translate(70.013 92.851)">
      <path id="Path_1236" data-name="Path 1236" d="M.019-.155h0v0h0a0,0,0,0,0,0,0h0Zm0,0h0v0a.007.007,0,0,1,0,0H.016a.005.005,0,0,1,0,0,0,0,0,0,1,0,0Z" transform="translate(-0.016 0.156)" fill="rgba(0,0,0,0.4)"/>
    </g>
    <g id="Group_1659" data-name="Group 1659" transform="translate(70.021 92.851)">
      <path id="Path_1237" data-name="Path 1237" d="M.023-.155h0v.006h0v0h0v0h0v0h0v0h0V-.156H.023Z" transform="translate(-0.016 0.156)" fill="rgba(0,0,0,0.4)"/>
    </g>
    <g id="Group_1660" data-name="Group 1660" transform="translate(70.038 92.849)">
      <path id="Path_1238" data-name="Path 1238" d="M0-.2v0H0v0H0v0H0v0Z" transform="translate(0 0.203)" fill="rgba(0,0,0,0.4)"/>
    </g>
    <g id="Group_1661" data-name="Group 1661" transform="translate(70.045 92.849)">
      <path id="Path_1239" data-name="Path 1239" d="M.023-.213v0h0v0h0v0h0v-.01h0v0h0Z" transform="translate(-0.016 0.219)" fill="rgba(0,0,0,0.4)"/>
    </g>
    <g id="Group_1662" data-name="Group 1662" transform="translate(70.054 92.851)">
      <path id="Path_1240" data-name="Path 1240" d="M.023-.153H.016a.005.005,0,0,1,0,0,0,0,0,0,1,0,0h0v0Zm0,0h0Z" transform="translate(-0.016 0.156)" fill="rgba(0,0,0,0.4)"/>
    </g>
    <g id="Group_1663" data-name="Group 1663" transform="translate(70.068 92.849)">
      <path id="Path_1241" data-name="Path 1241" d="M.031-.2h0l0,.006V-.2h0v.009h0l0-.006v.006h0Z" transform="translate(-0.031 0.203)" fill="rgba(0,0,0,0.4)"/>
    </g>
    <g id="Group_1664" data-name="Group 1664" transform="translate(70.078 92.851)">
      <path id="Path_1242" data-name="Path 1242" d="M.019-.155h0v0h0a0,0,0,0,0,0,0h0Zm0,0h0v0a.007.007,0,0,1,0,0H.016a.005.005,0,0,1,0,0,0,0,0,0,1,0,0Z" transform="translate(-0.016 0.156)" fill="rgba(0,0,0,0.4)"/>
    </g>
    <g id="Group_1665" data-name="Group 1665" transform="translate(70.087 92.851)">
      <path id="Path_1243" data-name="Path 1243" d="M.016-.152v0h0v0h0v.007H.016S.016-.151.016-.152Z" transform="translate(-0.016 0.156)" fill="rgba(0,0,0,0.4)"/>
    </g>
    <g id="Group_1666" data-name="Group 1666" transform="translate(70.096 92.851)">
      <path id="Path_1244" data-name="Path 1244" d="M.023-.153v0h0v0h0v0h0V-.156H.022Z" transform="translate(-0.016 0.156)" fill="rgba(0,0,0,0.4)"/>
    </g>
    <g id="Group_1667" data-name="Group 1667" transform="translate(70.11 92.849)">
      <path id="Path_1245" data-name="Path 1245" d="M.031-.2H.038v0a.007.007,0,0,1,0,0h0v0h0Zm0,0v0h0Z" transform="translate(-0.031 0.203)" fill="rgba(0,0,0,0.4)"/>
    </g>
    <g id="Group_1668" data-name="Group 1668" transform="translate(70.119 92.851)">
      <path id="Path_1246" data-name="Path 1246" d="M.021-.154h0v0h0V-.156H.021Z" transform="translate(-0.016 0.156)" fill="rgba(0,0,0,0.4)"/>
    </g>
    <g id="Group_1669" data-name="Group 1669" transform="translate(70.125 92.851)">
      <path id="Path_1247" data-name="Path 1247" d="M.019-.155h0v0h0a0,0,0,0,0,0,0h0Zm0,0h0v0a.007.007,0,0,1,0,0H.016a.005.005,0,0,1,0,0,0,0,0,0,1,0,0Z" transform="translate(-0.016 0.156)" fill="rgba(0,0,0,0.4)"/>
    </g>
    <g id="Group_1670" data-name="Group 1670" transform="translate(70.132 92.849)">
      <path id="Path_1248" data-name="Path 1248" d="M-.014-.216h0v.009h0Zm0,0h0v0h0Z" transform="translate(0.016 0.219)" fill="rgba(0,0,0,0.4)"/>
    </g>
    <g id="Group_1671" data-name="Group 1671" transform="translate(70.138 92.851)">
      <path id="Path_1249" data-name="Path 1249" d="M.023-.153H.016a.005.005,0,0,1,0,0,0,0,0,0,1,0,0h0v0Zm0,0h0Z" transform="translate(-0.016 0.156)" fill="rgba(0,0,0,0.4)"/>
    </g>
    <g id="Group_1672" data-name="Group 1672" transform="translate(70.147 92.851)">
      <path id="Path_1250" data-name="Path 1250" d="M.022-.156v0h0v0H.016a.005.005,0,0,1,0,0,0,0,0,0,1,0,0H.022Z" transform="translate(-0.016 0.156)" fill="rgba(0,0,0,0.4)"/>
    </g>
    <g id="Group_1673" data-name="Group 1673" transform="translate(70.153 92.849)">
      <path id="Path_1251" data-name="Path 1251" d="M0-.2v0H0v0H0v0H0v0Z" transform="translate(0 0.203)" fill="rgba(0,0,0,0.4)"/>
    </g>
  </g>
</svg>
