<svg xmlns="http://www.w3.org/2000/svg" width="16.99" height="17.002" viewBox="0 0 16.99 17.002">
  <g id="link" transform="translate(-212.48 -73.197)">
    <path id="Path_158" data-name="Path 158" d="M153.22,74.49,150.513,77.2a.443.443,0,0,1-.626-.626l2.707-2.707a3.389,3.389,0,0,0,0-4.787,3.315,3.315,0,0,0-2.394-.984,3.405,3.405,0,0,0-2.394.984L145.1,71.783a3.389,3.389,0,0,0,0,4.787,3.15,3.15,0,0,0,1.118.739.454.454,0,0,1,.246.581.439.439,0,0,1-.425.269.494.494,0,0,1-.179-.022,4.279,4.279,0,0,1-1.409-6.98l2.707-2.707A4.34,4.34,0,0,1,150.2,67.2a4.273,4.273,0,0,1,3.021,7.293Zm-7.16-1.231a.447.447,0,1,0-.336.828,3.485,3.485,0,0,1,1.118.739,3.389,3.389,0,0,1,0,4.787l-2.707,2.707a3.315,3.315,0,0,1-2.394.984,3.378,3.378,0,0,1-2.394-5.773l2.707-2.707a.443.443,0,0,0-.626-.626l-2.707,2.707a4.272,4.272,0,1,0,6.041,6.041l2.707-2.707a4.279,4.279,0,0,0-1.41-6.98Z" transform="translate(75 6)" fill="#686868"/>
  </g>
</svg>
