<svg id="list_1_" data-name="list (1)" xmlns="http://www.w3.org/2000/svg" width="15.457" height="14.396" viewBox="0 0 15.457 14.396">
  <g id="Group_15" data-name="Group 15" transform="translate(4.637 6.351)">
    <g id="Group_14" data-name="Group 14">
      <path id="Path_17" data-name="Path 17" d="M134.524,236h-9.7c-.308,0-.558.379-.558.847s.25.847.558.847h9.7c.308,0,.558-.379.558-.847S134.832,236,134.524,236Z" transform="translate(-124.262 -236)" fill="#a0a0a0"/>
    </g>
  </g>
  <g id="Group_17" data-name="Group 17" transform="translate(4.637 0)">
    <g id="Group_16" data-name="Group 16">
      <path id="Path_18" data-name="Path 18" d="M134.524,86h-9.7c-.308,0-.558.379-.558.847s.25.847.558.847h9.7c.308,0,.558-.379.558-.847S134.832,86,134.524,86Z" transform="translate(-124.262 -86)" fill="#a0a0a0"/>
    </g>
  </g>
  <g id="Group_19" data-name="Group 19" transform="translate(4.637 12.703)">
    <g id="Group_18" data-name="Group 18" transform="translate(0 0)">
      <path id="Path_19" data-name="Path 19" d="M134.524,386h-9.7c-.308,0-.558.379-.558.847s.25.847.558.847h9.7c.308,0,.558-.379.558-.847S134.832,386,134.524,386Z" transform="translate(-124.262 -386)" fill="#a0a0a0"/>
    </g>
  </g>
  <g id="Group_21" data-name="Group 21" transform="translate(0 0.198)">
    <g id="Group_20" data-name="Group 20" transform="translate(0 0)">
      <circle id="Ellipse_2" data-name="Ellipse 2" cx="1" cy="1" r="1" transform="translate(0 0)" fill="#a0a0a0"/>
    </g>
  </g>
  <g id="Group_23" data-name="Group 23" transform="translate(0 6.198)">
    <g id="Group_22" data-name="Group 22" transform="translate(0 0)">
      <circle id="Ellipse_3" data-name="Ellipse 3" cx="1" cy="1" r="1" transform="translate(0 0)" fill="#a0a0a0"/>
    </g>
  </g>
  <g id="Group_25" data-name="Group 25" transform="translate(0 12.198)">
    <g id="Group_24" data-name="Group 24" transform="translate(0 0)">
      <circle id="Ellipse_4" data-name="Ellipse 4" cx="1" cy="1" r="1" transform="translate(0 0)" fill="#a0a0a0"/>
    </g>
  </g>
</svg>
