<svg xmlns="http://www.w3.org/2000/svg" width="102" height="18.055" viewBox="0 0 102 18.055">
  <g id="logo_-_white" data-name="logo - white" transform="translate(-0.026 0)">
    <path id="Path_517" data-name="Path 517" d="M98.6,12.59h6.27c3.693,0,6.721,1.28,6.721,5.421,0,4-3.028,5.745-6.721,5.745h-2.335v6.237H98.6Zm5.95,8.022c2.072,0,3.184-.886,3.184-2.6s-1.112-2.294-3.184-2.294h-2.015v4.9Zm-.41,2.085,2.721-2.515,5.572,9.811h-4.407Z" transform="translate(-65.105 -12.27)" fill="#fff"/>
    <path id="Path_518" data-name="Path 518" d="M140.27,12.59h10.911v3.283h-6.976v3.5h5.938v3.283h-5.938V26.71h7.242v3.283H140.27Z" transform="translate(-89.676 -12.27)" fill="#fff"/>
    <path id="Path_519" data-name="Path 519" d="M177.7,12.59H182l2.827,7.735c.349,1.03.652,2.146,1,3.217h.107c.349-1.071.644-2.187.993-3.217l2.737-7.735h4.3v17.4h-3.586V23.612c0-1.7.32-4.231.5-5.917h-.107l-1.428,4.1-2.462,6.668h-2.187L182.23,21.8l-1.391-4.1h-.107c.189,1.686.5,4.218.5,5.917v6.381H177.7Z" transform="translate(-111.747 -12.27)" fill="#fff"/>
    <path id="Path_520" data-name="Path 520" d="M227.07,20.76c0-5.687,3.213-8.95,7.907-8.95s7.907,3.283,7.907,8.95-3.213,9.105-7.907,9.105S227.07,26.451,227.07,20.76Zm11.781,0c0-3.492-1.5-5.552-3.874-5.552S231.1,17.259,231.1,20.76s1.5,5.7,3.874,5.7S238.851,24.252,238.851,20.76Z" transform="translate(-140.859 -11.81)" fill="#fff"/>
    <path id="Path_521" data-name="Path 521" d="M24,12.858c.119.021.41-.164.546-.2a12.2,12.2,0,0,1,1.428-.382,8.207,8.207,0,0,1,4.1.1c.529.172,1.014.455,1.526.661.283.115.57.226.858.332a39.754,39.754,0,0,0,6.832,1.793,42.649,42.649,0,0,0,5.068.566,39.391,39.391,0,0,0,5.162-.066c-.025,0-.074.062-.094.078-.09.07-.185.135-.279.2a10.5,10.5,0,0,1-1.092.652,12.515,12.515,0,0,1-1.76.776,13.131,13.131,0,0,1-2.372.57,14.021,14.021,0,0,1-2.934.115c-.267-.021-.529-.045-.8-.074a.972.972,0,0,0-.41.029c-.037,0-.1.025-.107.07s.1.1.148.119a1.112,1.112,0,0,0,.259.053l.5.057c.365.041.73.086,1.092.135.554.07,1.112.131,1.641.234a.751.751,0,0,1,.234.057.447.447,0,0,1-.045.025l-.14.078-.217.115-.3.144-.365.168c-.144.062-.283.123-.41.181l-.48.189-.533.181c-.189.062-.382.119-.574.172s-.41.1-.6.148-.41.086-.636.119-.435.062-.652.078-.443.033-.669.037a5.18,5.18,0,0,1-.669-.025l-.267-.029h-.135c-.049,0-.119-.037-.156,0a.033.033,0,0,0,0,.045c.041.078.14.086.217.1l.283.057.386.082.435.09.443.1.41.09.3.078.094.029.053.025a13.242,13.242,0,0,1-1.432.706,7.419,7.419,0,0,1-1.2.41,2.257,2.257,0,0,1-.7.086.948.948,0,0,1-.5-.279,27.2,27.2,0,0,1-4.3-4.641,12.359,12.359,0,0,0-.882-1.026,9.183,9.183,0,0,0-2.052-1.715A13.488,13.488,0,0,0,24,12.858Z" transform="translate(-21.117 -11.959)" fill="#fff"/>
    <path id="Path_522" data-name="Path 522" d="M19.581,15.763a.6.6,0,0,1,.148,0l.148.021a2.311,2.311,0,0,1,.41.066c.135.025.373.074.558.119s.447.119.673.189.509.176.759.275.558.242.821.378.587.316.866.5a10.259,10.259,0,0,1,.874.628,9.532,9.532,0,0,1,1.641,1.641q.616.812,1.231,1.641a18.744,18.744,0,0,0,2.171,2.355c.648.587,1.325,1.141,1.99,1.711.353.3.71.6,1.067.9l.287.234.3.246.3.246.316.254.3.242s5.064,3.693,6.619,4.231a13.024,13.024,0,0,1-9.553-2.827l2.647,2.29s.784.579-.213.369c0,0-4.7-1.12-6.451-2.388l.123.123.32.308.41.41.439.41.369.361a2.286,2.286,0,0,0,.209.189c.07.057.156.09.23.148s.053.041.045.07-.09.045-.123.049h-.373A6.332,6.332,0,0,1,24.362,29.1l1.092,1.756s.488.657-.509.447c0,0-5.281-.336-7.8-8.642a.96.96,0,0,1,0-.107l-.037-.308c0-.152-.029-.308-.041-.464s-.029-.41-.033-.595,0-.46,0-.689a5.171,5.171,0,0,1,.037-.747c.037-.246.049-.517.094-.776a6.249,6.249,0,0,1,.168-.767,5.027,5.027,0,0,1,.242-.706,3.865,3.865,0,0,1,.365-.648,2.872,2.872,0,0,1,.484-.538,2.462,2.462,0,0,1,.62-.41c.09-.041.181-.074.271-.107A1.342,1.342,0,0,1,19.581,15.763Z" transform="translate(-17.01 -14.138)" fill="#fff"/>
  </g>
</svg>
