<svg xmlns="http://www.w3.org/2000/svg" width="65.934" height="65.934" viewBox="0 0 65.934 65.934">
  <g id="logomaster-h" transform="translate(0.368 0.198)">
    <g id="Group_1626" data-name="Group 1626" transform="translate(0 0)">
      <path id="Path_1162" data-name="Path 1162" d="M32.967,0A32.967,32.967,0,1,1,0,32.967,32.967,32.967,0,0,1,32.967,0Z" transform="translate(-0.368 -0.198)" fill="#fff"/>
      <path id="logo-master-h" d="M138.622,75.62l-10.841-5.274,10.841-5.277,10.841,5.277ZM114.511,86.465l3.246,3.284a.9.9,0,0,1,.02,1.244l-3.359,3.62h6.562V86.464Zm24.111,8.6c-7.231,0-12.867-2.19-15.844-5.993v6.293c1.929,5.4,8.882,5.861,15.844,5.861s13.915-.456,15.844-5.861V89.069C151.488,92.872,145.854,95.062,138.622,95.062Zm24.2-.449-3.359-3.619a.9.9,0,0,1,.02-1.244l3.246-3.285h-6.468v8.147Zm-36.2-10.769,11.1,5.4V77.183l-11.1-5.4Zm23.992-12.06-11.1,5.4V89.242l11.1-5.4Zm-12-10.288a.9.9,0,0,0,.9-.9V55.886a.9.9,0,0,0-1.8,0V60.6a.9.9,0,0,0,.9.9Zm9.5,3.933a.9.9,0,0,0,.637-.263l3.326-3.326a.9.9,0,0,0-1.271-1.271l-3.326,3.326a.9.9,0,0,0,.635,1.535Zm-19.628-.263a.9.9,0,0,0,1.272-1.271l-3.326-3.326a.9.9,0,0,0-1.276,1.265Z" transform="translate(-105.786 -47.185)" fill="#009bad"/>
    </g>
  </g>
</svg>
