<svg xmlns="http://www.w3.org/2000/svg" width="23.407" height="23.6" viewBox="0 0 23.407 23.6">
  <path id="love" d="M91.2,1.784a6.241,6.241,0,0,0-9.347-.027,6.245,6.245,0,0,0-9.375,0,7.71,7.71,0,0,0,0,10.231L81.84,22.244l.025-.027,9.362-10.23a7.707,7.707,0,0,0-.025-10.2Zm-9.353.949C79.517.187,75.7-.7,73.19,2.2a6.951,6.951,0,0,0-.227,9.218l8.887,9.694,8.91-9.694a6.949,6.949,0,0,0-.249-9.192c-2.536-2.89-6.326-2.017-8.661.5Z" transform="translate(-70.138 0.763)" fill="#fff" stroke="#089de3" stroke-width="0.8" fill-rule="evenodd"/>
</svg>
