<svg id="navigation-h" xmlns="http://www.w3.org/2000/svg" width="65.934" height="65.934" viewBox="0 0 65.934 65.934">
  <g id="Group_1626" data-name="Group 1626" transform="translate(0 0)">
    <path id="Path_1162" data-name="Path 1162" d="M32.967,0A32.967,32.967,0,1,1,0,32.967,32.967,32.967,0,0,1,32.967,0Z" fill="#fff"/>
    <path id="navigation" d="M139.122,54.249a4.827,4.827,0,1,0-8.449,4.6l-12.9,11.417a5.348,5.348,0,0,0-1.884-1.063l.525-2.959a3.057,3.057,0,1,0-1.384-.246l-.526,2.966c-.078,0-.155-.012-.233-.012a5.316,5.316,0,0,0-2.882.849l-8.329-9.867a3.242,3.242,0,1,0-1.106.868l8.364,9.907a5.325,5.325,0,0,0-1.4,3.594c0,.148.01.294.022.44l-5.482,1.191a2.661,2.661,0,1,0,.3,1.373l5.484-1.192a5.375,5.375,0,0,0,2.386,2.836l-2.238,5.521a3.635,3.635,0,1,0,1.3.527l2.239-5.521a5.308,5.308,0,0,0,5.457-1.76l5.4,3.391a4.893,4.893,0,1,0,.747-1.191l-5.4-3.392a5.321,5.321,0,0,0-.424-5.213L131.6,59.9a4.824,4.824,0,0,0,7.518-5.65Zm-24.855,24a3.947,3.947,0,1,1,3.947-3.947A3.951,3.951,0,0,1,114.267,78.246Z" transform="translate(-84.473 -37.556)" fill="#009bad"/>
  </g>
</svg>
