<svg id="news" xmlns="http://www.w3.org/2000/svg" width="65.934" height="65.934" viewBox="0 0 65.934 65.934">
  <g id="Group_1626" data-name="Group 1626" transform="translate(0 0)">
    <path id="Path_1162" data-name="Path 1162" d="M32.967,0A32.967,32.967,0,1,1,0,32.967,32.967,32.967,0,0,1,32.967,0Z" fill="#009bad"/>
    <path id="noun-news-2197463" d="M103.061,23.332a3.645,3.645,0,0,0-3.644,3.645V32.2h6.029V55.945h0a3.732,3.732,0,0,0,3.733,3.732h22.36a3.36,3.36,0,0,0,3.361-3.359v-2.1h-3.767V25.852h0a2.52,2.52,0,0,0-2.518-2.52Zm.092,1.286h0a2.385,2.385,0,0,1,2.292,2.359v3.961h-4.77V26.977a2.385,2.385,0,0,1,2.478-2.359Zm6.9,3.667H117.8a.344.344,0,0,1,.343.343v7.663a.344.344,0,0,1-.343.345h-7.744a.345.345,0,0,1-.344-.345V28.628a.344.344,0,0,1,.344-.343Zm10.747.437H126.7a.677.677,0,0,1,0,1.353H120.8a.677.677,0,0,1,0-1.353Zm0,3.06H126.7a.678.678,0,0,1,0,1.355H120.8a.678.678,0,0,1,0-1.355Zm0,3.062H126.7a.678.678,0,0,1,0,1.355H120.8a.678.678,0,0,1,0-1.355Zm-10.47,3.062h5.895a.677.677,0,0,1,0,1.355h-5.895a.677.677,0,0,1,0-1.355Zm10.47,0H126.7a.677.677,0,0,1,0,1.355H120.8a.677.677,0,0,1,0-1.355Zm-10.47,3.062h5.895a.678.678,0,0,1,0,1.355h-5.895a.678.678,0,0,1,0-1.355Zm10.47,0H126.7a.678.678,0,0,1,0,1.355H120.8a.678.678,0,0,1,0-1.355Zm-10.47,3.062h5.895a.677.677,0,0,1,0,1.354h-5.895a.677.677,0,0,1,0-1.354Zm10.47,0H126.7a.677.677,0,0,1,0,1.354H120.8a.677.677,0,0,1,0-1.354Zm-10.47,3.06h5.895a.678.678,0,0,1,0,1.355h-5.895a.678.678,0,0,1,0-1.355Zm10.47,0H126.7a.678.678,0,0,1,0,1.355H120.8a.678.678,0,0,1,0-1.355Zm-10.47,3.062h5.895a.678.678,0,0,1,0,1.355h-5.895a.678.678,0,0,1,0-1.355Zm10.47,0H126.7a.678.678,0,0,1,0,1.355H120.8a.678.678,0,0,1,0-1.355Zm-7.894,5.322h20.729v.842h0a2.1,2.1,0,0,1-2.1,2.1H111.973a3.733,3.733,0,0,0,.937-2.472Z" transform="translate(-84.191 -7.987)" fill="#fff"/>
  </g>
</svg>
