<svg xmlns="http://www.w3.org/2000/svg" width="20.577" height="20.576" viewBox="0 0 20.577 20.576">
  <g id="onenote" transform="translate(0 -0.003)">
    <path id="Path_159" data-name="Path 159" d="M13.29,21.006H2.144A2.146,2.146,0,0,1,0,18.862V5.144A2.146,2.146,0,0,1,2.144,3H3.858a.429.429,0,0,1,0,.857H2.144A1.288,1.288,0,0,0,.857,5.144V18.862a1.288,1.288,0,0,0,1.286,1.286H13.29a1.288,1.288,0,0,0,1.283-1.286V5.144a1.288,1.288,0,0,0-1.286-1.286H11.577a.429.429,0,0,1,0-.857h1.715a2.146,2.146,0,0,1,2.144,2.144V18.862a2.146,2.146,0,0,1-2.145,2.144Z" transform="translate(0 -0.427)" fill="#fff"/>
    <path id="Path_160" data-name="Path 160" d="M11.287,5.145h-6A1.288,1.288,0,0,1,4,3.86V2.145a.429.429,0,0,1,.429-.429H6.187a2.144,2.144,0,0,1,4.2,0h1.758a.429.429,0,0,1,.429.429V3.86A1.288,1.288,0,0,1,11.287,5.145ZM4.857,2.573V3.86a.43.43,0,0,0,.429.429h6a.43.43,0,0,0,.429-.429V2.573H10a.429.429,0,0,1-.429-.429A1.286,1.286,0,1,0,7,2.144a.429.429,0,0,1-.429.429Z" transform="translate(-0.571)" fill="#fff"/>
    <path id="Path_161" data-name="Path 161" d="M21.715,18.861a.43.43,0,0,1-.383-.235l-1.105-2.21a2.153,2.153,0,0,1-.226-.96V7.715a1.715,1.715,0,1,1,3.429,0v7.741a2.152,2.152,0,0,1-.226.958L22.1,18.624a.43.43,0,0,1-.383.235Zm0-12a.859.859,0,0,0-.857.857v7.741a1.3,1.3,0,0,0,.136.575l.722,1.443.722-1.443a1.3,1.3,0,0,0,.136-.575V7.715a.859.859,0,0,0-.859-.857Zm1.106,9.368h.009Z" transform="translate(-2.852 -0.855)" fill="#fff"/>
    <path id="Path_162" data-name="Path 162" d="M12.849,9.857H3.418a.429.429,0,1,1,0-.857h9.432a.429.429,0,0,1,0,.857Z" transform="translate(-0.417 -1.282)" fill="#fff"/>
    <path id="Path_163" data-name="Path 163" d="M12.849,12.857H3.418a.429.429,0,1,1,0-.857h9.432a.429.429,0,0,1,0,.857Z" transform="translate(-0.417 -1.71)" fill="#fff"/>
    <path id="Path_164" data-name="Path 164" d="M12.849,15.857H3.418a.429.429,0,1,1,0-.857h9.432a.429.429,0,1,1,0,.857Z" transform="translate(-0.417 -2.138)" fill="#fff"/>
    <path id="Path_165" data-name="Path 165" d="M12.849,18.857H3.418a.429.429,0,1,1,0-.857h9.432a.429.429,0,0,1,0,.857Z" transform="translate(-0.417 -2.566)" fill="#fff"/>
  </g>
</svg>
