<svg xmlns="http://www.w3.org/2000/svg" width="14" height="14.017" viewBox="0 0 14 14.017">
  <g id="open" transform="translate(-179.199 -109.201)">
    <path id="Path_157" data-name="Path 157" d="M193.2,109.612v3.809a.39.39,0,0,1-.78,0v-2.846l-6.15,6.15a.388.388,0,0,1-.551,0,.4.4,0,0,1,0-.576l6.15-6.15h-2.846a.39.39,0,1,1,0-.78h3.809a.368.368,0,0,1,.367.39Zm-.412,6.423a.387.387,0,0,0-.39.39V120.3a2.1,2.1,0,0,1-2.088,2.088H182.09A2.1,2.1,0,0,1,180,120.3v-8.234a2.1,2.1,0,0,1,2.088-2.088h3.832a.39.39,0,0,0,0-.78H182.09a2.894,2.894,0,0,0-2.891,2.891v8.234a2.894,2.894,0,0,0,2.891,2.891h8.215a2.894,2.894,0,0,0,2.891-2.891v-3.878a.412.412,0,0,0-.412-.412Z" fill="#686868"/>
  </g>
</svg>
