<svg xmlns="http://www.w3.org/2000/svg" width="40.069" height="35.093" viewBox="0 0 40.069 35.093">
  <path id="orgchart" d="M36.074,55.99V49.338a1.565,1.565,0,0,0-1.565-1.565H21.6V42.687a5.561,5.561,0,1,0-3.13,0v5.086H5.561A1.565,1.565,0,0,0,4,49.338V55.99a5.56,5.56,0,1,0,3.13,0V50.9H18.469V55.99a5.561,5.561,0,1,0,3.13,0V50.9H32.943V55.99a5.561,5.561,0,1,0,3.13,0ZM17.6,37.353a2.43,2.43,0,1,1,2.43,2.43A2.433,2.433,0,0,1,17.6,37.353ZM7.991,61.324a2.43,2.43,0,1,1-2.43-2.43A2.433,2.433,0,0,1,7.991,61.324Zm14.474,0A2.43,2.43,0,1,1,19.89,58.9c.048,0,.1.007.144.007s.1,0,.144-.007A2.433,2.433,0,0,1,22.465,61.324Zm12.044,2.43a2.43,2.43,0,1,1,2.43-2.43A2.433,2.433,0,0,1,34.509,63.755Z" transform="translate(0 -31.792)" fill="#fff" opacity="0.8"/>
</svg>
