<svg xmlns="http://www.w3.org/2000/svg" width="17.192" height="17.228" viewBox="0 0 17.192 17.228">
  <g id="noun-pin-1168540" transform="translate(-70.365 -22.039)">
    <path id="Path_1255" data-name="Path 1255" d="M108.651,28.655a3.516,3.516,0,0,1-2.856.37l-2.01,2.01a13.121,13.121,0,0,1-.317,4.232c-.793,1.693-3.068.74-5.025-1.111L93.1,38.7c-.106.053-.265.106-.317,0-.106-.106-.106-.265,0-.317l4.549-5.342c-1.9-2.01-2.8-4.284-1.164-5.078a13.122,13.122,0,0,1,4.232-.317l2.01-2.01a3.783,3.783,0,0,1,.37-2.856c.793-1.587,7.458,5.078,5.871,5.871Z" transform="translate(-21.838)" fill="none" stroke="#333" stroke-width="1" fill-rule="evenodd"/>
  </g>
</svg>
