<svg xmlns="http://www.w3.org/2000/svg" width="32.336" height="28.544" viewBox="0 0 32.336 28.544">
  <path id="policies" d="M30.263,35.719h0L29.7,38.481a2.1,2.1,0,0,1-2.057,1.679H3.3A2.1,2.1,0,0,1,1.24,37.641L3.581,26.167A2.215,2.215,0,0,1,5.074,24.5h0c.053-.017.107-.032.162-.046l.008,0c.051-.012.1-.023.155-.032l.05-.007c.04-.006.081-.011.122-.015.06,0,.121-.008.182-.008H31.281a1.056,1.056,0,0,1,1.056,1.024,1.069,1.069,0,0,1-.021.242Zm-.01-12.958A1.86,1.86,0,0,0,28.405,21.1h-.847v1.662ZM1.982,25.84a3.865,3.865,0,0,1,3.092-3.018v-4.5H2.179A2.182,2.182,0,0,0,0,20.505V35.554ZM25.926,12.532V22.761H6.706V12.532a.918.918,0,0,1,.916-.916H25.01A.917.917,0,0,1,25.926,12.532Zm-2.349,7.228a.816.816,0,0,0-.816-.816H9.872a.816.816,0,1,0,0,1.632H22.761A.816.816,0,0,0,23.577,19.761Zm0-4.215a.816.816,0,0,0-.816-.816H9.872a.816.816,0,1,0,0,1.632H22.761A.816.816,0,0,0,23.577,15.546Z" transform="translate(0 -11.616)" fill="#333" opacity="0.4"/>
</svg>
