<svg xmlns="http://www.w3.org/2000/svg" width="37.522" height="33.122" viewBox="0 0 37.522 33.122">
  <path id="polices" d="M35.116,39.584h0l-.654,3.2a2.436,2.436,0,0,1-2.387,1.949H3.826a2.436,2.436,0,0,1-2.387-2.923L4.156,28.5a2.57,2.57,0,0,1,1.732-1.931h0c.062-.02.124-.038.188-.053l.01,0c.059-.014.12-.027.18-.037l.058-.008c.047-.007.094-.013.141-.017.07-.006.14-.009.211-.009H36.3a1.225,1.225,0,0,1,1.225,1.189,1.241,1.241,0,0,1-.025.281ZM35.1,24.549A2.158,2.158,0,0,0,32.96,22.62h-.982v1.929ZM2.3,28.121a4.484,4.484,0,0,1,3.588-3.5V19.4H2.529A2.532,2.532,0,0,0,0,21.931V39.393ZM30.084,12.679V24.549H7.782V12.679a1.065,1.065,0,0,1,1.063-1.063H29.02A1.064,1.064,0,0,1,30.084,12.679Zm-2.726,8.387a.947.947,0,0,0-.947-.947H11.455a.947.947,0,1,0,0,1.894H26.411A.947.947,0,0,0,27.358,21.067Zm0-4.89a.947.947,0,0,0-.947-.947H11.455a.947.947,0,1,0,0,1.894H26.411A.947.947,0,0,0,27.358,16.176Z" transform="translate(0 -11.616)" fill="#fff" opacity="0.8"/>
</svg>
