<svg xmlns="http://www.w3.org/2000/svg" width="21.22" height="18.189" viewBox="0 0 21.22 18.189">
  <path id="publish" d="M105,85.915V72.274A2.274,2.274,0,0,1,107.274,70h16.673a2.274,2.274,0,0,1,2.274,2.274V85.915a2.274,2.274,0,0,1-2.274,2.274H107.274A2.274,2.274,0,0,1,105,85.915Zm19.7-9.851H106.516v9.851a.758.758,0,0,0,.758.758h16.673a.758.758,0,0,0,.758-.758Zm-9.852,4.86-.314.314a.758.758,0,1,1-1.071-1.071l1.607-1.607a.757.757,0,0,1,1.071,0l1.607,1.607a.758.758,0,0,1-1.071,1.071l-.314-.314v2.715a.758.758,0,0,1-1.516,0Zm9.852-6.376V72.274a.758.758,0,0,0-.758-.758H107.274a.758.758,0,0,0-.758.758v2.274Zm-4.547-2.274a.758.758,0,1,0,.758.759A.759.759,0,0,0,120.157,72.274Zm2.274,1.516h.758a.758.758,0,1,0,0-1.516h-.758a.758.758,0,1,0,0,1.516Z" transform="translate(-105 -70)" fill="#009bad" fill-rule="evenodd"/>
</svg>
