<svg xmlns="http://www.w3.org/2000/svg" width="33.181" height="33.181" viewBox="0 0 33.181 33.181">
  <path id="quicklinks" d="M29.725,26.269a3.43,3.43,0,0,0-1.257.245L24.33,22.377a9.6,9.6,0,0,0,0-11.572l4.138-4.137a3.452,3.452,0,1,0-2.2-3.212,3.43,3.43,0,0,0,.245,1.257L22.375,8.851a9.6,9.6,0,0,0-11.569,0L6.668,4.713a3.452,3.452,0,1,0-3.212,2.2,3.43,3.43,0,0,0,1.257-.245l4.138,4.138a9.6,9.6,0,0,0,0,11.571L4.713,26.513a3.452,3.452,0,1,0,2.2,3.212,3.43,3.43,0,0,0-.245-1.257l4.138-4.138a9.6,9.6,0,0,0,11.569,0l4.138,4.138a3.418,3.418,0,0,0-.245,1.255,3.456,3.456,0,1,0,3.456-3.456ZM20.5,17.17a4.524,4.524,0,0,0-5.685,6.072,6.91,6.91,0,0,1-4.056-2.981,3.325,3.325,0,0,0,1.521-2.744,1.349,1.349,0,0,1,1.076-1.309c2.859-.617,3.889-3.7,2.931-6.5a5.47,5.47,0,0,1,2.2.265c.065,2.986,1.77,5.468,4.843,5.1a6.916,6.916,0,0,1,.127,1C21.488,16.52,22.472,17.97,20.5,17.17Z" fill="#fff" opacity="0.8"/>
</svg>
