<svg xmlns="http://www.w3.org/2000/svg" width="28" height="27" viewBox="0 0 28 27">
  <g id="Quicklinks" transform="translate(-156 -168)">
    <g id="Group_2107" data-name="Group 2107" transform="translate(5 7)">
      <rect id="Rectangle_1493" data-name="Rectangle 1493" width="28" height="27" rx="5" transform="translate(151 161)" fill="#047f8d"/>
    </g>
    <path id="Path_2400" data-name="Path 2400" d="M162.725,102.839a3.449,3.449,0,1,1-4.878-4.878l3.833-3.833a3.458,3.458,0,0,1,4.878,0,.739.739,0,1,1-1.045,1.045,1.951,1.951,0,0,0-2.787,0l-3.833,3.833a1.971,1.971,0,1,0,2.787,2.787l3.658-3.658a.739.739,0,1,1,1.045,1.045ZM169,96.568a3.458,3.458,0,0,1-4.878,0h0a.739.739,0,1,1,1.045-1.045,1.951,1.951,0,0,0,2.787,0l3.833-3.832A1.971,1.971,0,0,0,169,88.9l-3.658,3.658a.739.739,0,1,1-1.045-1.045l3.658-3.658a3.449,3.449,0,0,1,4.878,4.878L169,96.568Z" transform="translate(4.662 85.652)" fill="#f3f6f9"/>
  </g>
</svg>
