<svg xmlns="http://www.w3.org/2000/svg" width="39.5" height="39.5" viewBox="0 0 39.5 39.5">
  <g id="microsoft-excel-seeklogo.com" transform="translate(-170 -90)">
    <path id="Path_523" data-name="Path 523" d="M239.812,103.75H226.645A1.654,1.654,0,0,0,225,105.4v6.995l14.813,8.641,7.406,3.125,7.406-3.125v-8.641Z" transform="translate(-45.124 -11.281)" fill="#21a366"/>
    <path id="Path_524" data-name="Path 524" d="M225,151.875h14.813v8.641H225Z" transform="translate(-45.124 -50.766)" fill="#107c41" fill-rule="evenodd"/>
    <path id="Path_525" data-name="Path 525" d="M320.667,103.75H307.5v8.641h14.813V105.4A1.654,1.654,0,0,0,320.667,103.75Z" transform="translate(-112.813 -11.281)" fill="#33c481"/>
    <path id="Path_526" data-name="Path 526" d="M239.812,200H225v15.636a1.654,1.654,0,0,0,1.646,1.646h26.334a1.654,1.654,0,0,0,1.646-1.646v-6.995Z" transform="translate(-45.124 -90.25)" fill="#185c37"/>
    <path id="Path_527" data-name="Path 527" d="M307.5,200h14.813v8.641H307.5Z" transform="translate(-112.813 -90.25)" fill="#107c41" fill-rule="evenodd"/>
    <g id="Group_428" data-name="Group 428" transform="translate(170 98.641)">
      <path id="Path_528" data-name="Path 528" d="M235.7,138.125H225v23.453h10.7a1.658,1.658,0,0,0,1.646-1.646V139.771A1.658,1.658,0,0,0,235.7,138.125Z" transform="translate(-215.125 -138.125)" fill="rgba(0,0,0,0.09)"/>
      <g id="Group_427" data-name="Group 427" transform="translate(9.875 1.234)">
        <path id="Path_529" data-name="Path 529" d="M234.464,145H225v23.453h9.464a1.658,1.658,0,0,0,1.646-1.646V146.646A1.658,1.658,0,0,0,234.464,145Z" transform="translate(-225 -145)" fill="rgba(0,0,0,0.2)"/>
        <path id="Path_530" data-name="Path 530" d="M234.464,145H225v20.984h9.464a1.658,1.658,0,0,0,1.646-1.646V146.646A1.658,1.658,0,0,0,234.464,145Z" transform="translate(-225 -145)" fill="rgba(0,0,0,0.2)"/>
        <path id="Path_531" data-name="Path 531" d="M233.229,145H225v20.984h8.229a1.658,1.658,0,0,0,1.646-1.646V146.646A1.658,1.658,0,0,0,233.229,145Z" transform="translate(-225 -145)" fill="rgba(0,0,0,0.2)"/>
      </g>
      <path id="Path_532" data-name="Path 532" d="M171.646,145H188.1a1.654,1.654,0,0,1,1.646,1.646V163.1a1.654,1.654,0,0,1-1.646,1.646H171.646A1.654,1.654,0,0,1,170,163.1V146.646A1.654,1.654,0,0,1,171.646,145Z" transform="translate(-170 -143.766)" fill="#107c41"/>
      <path id="Path_533" data-name="Path 533" d="M194.292,177.969l3.994-6.189-3.658-6.155h2.944l2,3.934q.275.56.379.835h.026q.2-.447.413-.87l2.135-3.9h2.7l-3.753,6.12,3.848,6.224h-2.875l-2.307-4.321a3.629,3.629,0,0,1-.275-.577h-.034a2.729,2.729,0,0,1-.267.559l-2.376,4.339Z" transform="translate(-189.93 -160.687)" fill="#fff"/>
    </g>
    <path id="Path_534" data-name="Path 534" d="M170,90h39.5v39.5H170Z" transform="translate(0)" fill="none" fill-rule="evenodd"/>
  </g>
</svg>
