<svg xmlns="http://www.w3.org/2000/svg" width="40.5" height="36.45" viewBox="0 0 40.5 36.45">
  <g id="icons8-microsoft-word-2019" transform="translate(-4 -6)">
    <path id="Path_535" data-name="Path 535" d="M42.609,6H15.766A1.766,1.766,0,0,0,14,7.766v7.35H44.375V7.766A1.766,1.766,0,0,0,42.609,6Z" transform="translate(0.125 0)" fill="#2d92d4"/>
    <path id="Path_536" data-name="Path 536" d="M14,33.054v7.292a1.766,1.766,0,0,0,1.765,1.766H42.609a1.766,1.766,0,0,0,1.766-1.766V33.054Z" transform="translate(0.125 0.338)" fill="#2150a9"/>
    <path id="Path_537" data-name="Path 537" d="M14,15H44.375v9.115H14Z" transform="translate(0.125 0.113)" fill="#2d83d4"/>
    <path id="Path_538" data-name="Path 538" d="M14,24.005H44.375v9.163H14Z" transform="translate(0.125 0.225)" fill="#2e70c9"/>
    <path id="Path_539" data-name="Path 539" d="M22.548,34.25H5.7a1.7,1.7,0,0,1-1.7-1.7V15.7A1.7,1.7,0,0,1,5.7,14H22.548a1.7,1.7,0,0,1,1.7,1.7V32.548A1.7,1.7,0,0,1,22.548,34.25Z" transform="translate(0 0.1)" fill="#00488d"/>
    <path id="Path_540" data-name="Path 540" d="M18.538,19l-1.565,7.355L15.238,19H13.023l-1.789,7.583L9.621,19H7.641l2.373,10.125H12.4L14.13,21.34l1.735,7.785h2.279L20.518,19Z" transform="translate(0.046 0.162)" fill="#fff"/>
  </g>
</svg>
