<svg xmlns="http://www.w3.org/2000/svg" width="16" height="16" viewBox="0 0 16 16">
  <g id="recent-h" transform="translate(-161.251 -403)">
    <path id="Path_1712" data-name="Path 1712" d="M341.494,183.818h-4.106a.513.513,0,0,1-.513-.513v-3.422a.513.513,0,0,1,1.027,0v2.908h3.593a.513.513,0,0,1,0,1.027Z" transform="translate(-168.137 227.696)" fill="#009bad"/>
    <path id="Path_1713" data-name="Path 1713" d="M153.422,91.414a8.007,8.007,0,1,1,5.655-2.345,8,8,0,0,1-5.655,2.345Zm0-14.97a6.98,6.98,0,1,0,4.928,2.043,6.974,6.974,0,0,0-4.928-2.043Z" transform="translate(15.829 327.586)" fill="#009bad"/>
  </g>
</svg>
