<svg xmlns="http://www.w3.org/2000/svg" width="18.557" height="18.56" viewBox="0 0 18.557 18.56">
  <g id="instagram-sketched" transform="translate(-0.449 0)">
    <path id="Path_140" data-name="Path 140" d="M18.958,5.457a6.782,6.782,0,0,0-.431-2.252A4.754,4.754,0,0,0,15.811.49,6.8,6.8,0,0,0,13.559.058C12.566.011,12.25,0,9.73,0S6.9.011,5.905.054A6.784,6.784,0,0,0,3.654.486,4.529,4.529,0,0,0,2.008,1.559,4.57,4.57,0,0,0,.938,3.2,6.8,6.8,0,0,0,.507,5.453C.459,6.447.449,6.762.449,9.282S.459,12.117.5,13.107a6.782,6.782,0,0,0,.432,2.252A4.754,4.754,0,0,0,3.65,18.074a6.8,6.8,0,0,0,2.252.431c.99.044,1.305.054,3.825.054s2.835-.011,3.825-.054a6.78,6.78,0,0,0,2.251-.431,4.747,4.747,0,0,0,2.716-2.716,6.8,6.8,0,0,0,.431-2.252c.043-.99.054-1.305.054-3.825s0-2.835-.047-3.825Zm-1.671,7.578a5.087,5.087,0,0,1-.319,1.722,3.079,3.079,0,0,1-1.762,1.762,5.105,5.105,0,0,1-1.722.319c-.979.044-1.273.054-3.749.054s-2.774-.011-3.749-.054a5.085,5.085,0,0,1-1.722-.319A2.856,2.856,0,0,1,3.2,15.826,2.886,2.886,0,0,1,2.5,14.76a5.106,5.106,0,0,1-.319-1.722c-.044-.979-.054-1.273-.054-3.749s.011-2.774.054-3.749A5.085,5.085,0,0,1,2.5,3.818a2.821,2.821,0,0,1,.7-1.066A2.881,2.881,0,0,1,4.267,2.06,5.109,5.109,0,0,1,5.989,1.74c.979-.043,1.273-.054,3.749-.054s2.774.011,3.749.054a5.087,5.087,0,0,1,1.722.319,2.854,2.854,0,0,1,1.066.692,2.885,2.885,0,0,1,.693,1.066,5.108,5.108,0,0,1,.319,1.722c.043.979.054,1.273.054,3.749s-.011,2.766-.054,3.745Zm0,0" transform="translate(0 0)" fill="#e51f4b"/>
    <path id="Path_141" data-name="Path 141" d="M129.717,124.5a4.768,4.768,0,1,0,4.768,4.768A4.769,4.769,0,0,0,129.717,124.5Zm0,7.861a3.093,3.093,0,1,1,3.093-3.093,3.093,3.093,0,0,1-3.093,3.093Zm0,0" transform="translate(-119.986 -119.986)" fill="#e51f4b"/>
    <path id="Path_142" data-name="Path 142" d="M364.676,89.715a1.113,1.113,0,1,1-1.113-1.113A1.113,1.113,0,0,1,364.676,89.715Zm0,0" transform="translate(-348.876 -85.389)" fill="#e51f4b"/>
  </g>
</svg>
