<svg xmlns="http://www.w3.org/2000/svg" width="23.299" height="18.931" viewBox="0 0 23.299 18.931">
  <g id="twitter" transform="translate(0 -48)">
    <g id="Group_81" data-name="Group 81" transform="translate(0 48)">
      <path id="Path_143" data-name="Path 143" d="M23.3,50.241A9.959,9.959,0,0,1,20.547,51a4.75,4.75,0,0,0,2.1-2.64,9.546,9.546,0,0,1-3.029,1.156,4.776,4.776,0,0,0-8.262,3.266,4.918,4.918,0,0,0,.111,1.089,13.52,13.52,0,0,1-9.845-5A4.778,4.778,0,0,0,3.09,55.255a4.717,4.717,0,0,1-2.158-.588v.052a4.8,4.8,0,0,0,3.827,4.693,4.767,4.767,0,0,1-1.252.157,4.224,4.224,0,0,1-.9-.082,4.822,4.822,0,0,0,4.463,3.327,9.6,9.6,0,0,1-5.922,2.037A8.947,8.947,0,0,1,0,64.787a13.447,13.447,0,0,0,7.328,2.144,13.5,13.5,0,0,0,13.6-13.592c0-.211-.007-.415-.017-.617A9.529,9.529,0,0,0,23.3,50.241Z" transform="translate(0 -48)" fill="#1c9deb"/>
    </g>
  </g>
</svg>
