<svg xmlns="http://www.w3.org/2000/svg" width="31" height="32.615" viewBox="0 0 31 32.615">
  <g id="sales" transform="translate(-13.525 0.004)">
    <g id="Group_162" data-name="Group 162" transform="translate(13.525 11.543)">
      <g id="Group_161" data-name="Group 161" transform="translate(0 0)">
        <path id="Path_175" data-name="Path 175" d="M43.826,166.571h-1.4V148.208a1.639,1.639,0,0,0-1.712-1.55H37.595a1.639,1.639,0,0,0-1.712,1.55v18.366H32.336V156.527a1.639,1.639,0,0,0-1.712-1.55H27.5a1.639,1.639,0,0,0-1.712,1.55v10.044H22.242v-5.2a1.639,1.639,0,0,0-1.712-1.55H17.407a1.639,1.639,0,0,0-1.712,1.55v5.2h-1.47a.663.663,0,0,0-.6.271.533.533,0,0,0,0,.61.663.663,0,0,0,.6.272h29.6a.663.663,0,0,0,.6-.272.533.533,0,0,0,0-.61.663.663,0,0,0-.6-.272Zm-22.859,0h-4v-5.2a.42.42,0,0,1,.438-.4h3.122a.42.42,0,0,1,.438.4v5.2Zm10.094,0h-4V156.527a.42.42,0,0,1,.438-.4h3.122a.42.42,0,0,1,.438.4Zm10.094,0h-4V148.208a.42.42,0,0,1,.438-.4h3.122a.42.42,0,0,1,.438.4v18.366Z" transform="translate(-13.525 -146.658)" fill="#023756"/>
      </g>
    </g>
    <g id="Group_164" data-name="Group 164" transform="translate(13.525 -0.004)">
      <g id="Group_163" data-name="Group 163" transform="translate(0)">
        <path id="Path_176" data-name="Path 176" d="M128.229.827A.784.784,0,0,0,127.4,0h-4.8a.79.79,0,1,0,0,1.573h2.939l-7.778,7.779-2.933-2.933a.79.79,0,0,0-1.113,0L99.578,20.563a.79.79,0,0,0,1.113,1.113L114.279,8.088l2.933,2.933a.79.79,0,0,0,1.113,0l8.331-8.335v2.66a.79.79,0,1,0,1.573,0V.865A.039.039,0,0,0,128.229.827Z" transform="translate(-99.393 0.004)" fill="#023756"/>
      </g>
    </g>
    <g id="Group_166" data-name="Group 166" transform="translate(17.694 18.502)">
      <g id="Group_165" data-name="Group 165" transform="translate(0 0)">
        <circle id="Ellipse_58" data-name="Ellipse 58" cx="0.787" cy="0.787" r="0.787" fill="#023756"/>
      </g>
    </g>
  </g>
</svg>
