<svg xmlns="http://www.w3.org/2000/svg" width="38.295" height="40.291" viewBox="0 0 38.295 40.291">
  <g id="sales" transform="translate(-13.525 0.004)" opacity="0.4">
    <g id="Group_162" data-name="Group 162" transform="translate(13.525 11.543)">
      <g id="Group_161" data-name="Group 161" transform="translate(0 0)">
        <path id="Path_175" data-name="Path 175" d="M50.957,173.826H49.232V148.773a2.117,2.117,0,0,0-2.115-2.115H43.259a2.117,2.117,0,0,0-2.115,2.115v25.057H36.762V160.122a2.117,2.117,0,0,0-2.115-2.115H30.79a2.117,2.117,0,0,0-2.115,2.115v13.7H24.293v-7.1a2.117,2.117,0,0,0-2.115-2.115H18.32a2.117,2.117,0,0,0-2.115,2.115v7.1H14.389a.79.79,0,1,0,0,1.573H50.957a.79.79,0,1,0,0-1.573Zm-28.238,0H17.781v-7.1a.542.542,0,0,1,.541-.541H22.18a.542.542,0,0,1,.541.541v7.1Zm12.469,0H30.251v-13.7a.542.542,0,0,1,.541-.541h3.857a.542.542,0,0,1,.541.541Zm12.469,0H42.72V148.773a.542.542,0,0,1,.541-.541h3.857a.542.542,0,0,1,.541.541v25.057Z" transform="translate(-13.525 -146.658)" fill="#333"/>
      </g>
    </g>
    <g id="Group_164" data-name="Group 164" transform="translate(20.393 -0.004)">
      <g id="Group_163" data-name="Group 163" transform="translate(0)">
        <path id="Path_176" data-name="Path 176" d="M128.229.827A.784.784,0,0,0,127.4,0h-4.8a.79.79,0,1,0,0,1.573h2.939l-7.778,7.779-2.933-2.933a.79.79,0,0,0-1.113,0L99.578,20.563a.79.79,0,0,0,1.113,1.113L114.279,8.088l2.933,2.933a.79.79,0,0,0,1.113,0l8.331-8.335v2.66a.79.79,0,1,0,1.573,0V.865A.039.039,0,0,0,128.229.827Z" transform="translate(-99.393 0.004)" fill="#333"/>
      </g>
    </g>
    <g id="Group_166" data-name="Group 166" transform="translate(17.694 23.077)">
      <g id="Group_165" data-name="Group 165" transform="translate(0 0)">
        <circle id="Ellipse_58" data-name="Ellipse 58" cx="0.787" cy="0.787" r="0.787" fill="#333"/>
      </g>
    </g>
  </g>
</svg>
