<svg xmlns="http://www.w3.org/2000/svg" width="20.279" height="21.472" viewBox="0 0 20.279 21.472">
  <g id="save" transform="translate(-201.25 -131.25)">
    <path id="Path_2573" data-name="Path 2573" d="M288.75,359.346a.6.6,0,0,1,.6-.6H296.5a.6.6,0,0,1,0,1.193h-7.157A.6.6,0,0,1,288.75,359.346Z" transform="translate(-81.536 -211.993)" fill="#009bad"/>
    <path id="Path_2574" data-name="Path 2574" d="M289.346,393.75a.6.6,0,1,0,0,1.193H296.5a.6.6,0,1,0,0-1.193Z" transform="translate(-81.536 -244.607)" fill="#009bad"/>
    <path id="Path_2575" data-name="Path 2575" d="M215.588,131.25a1.789,1.789,0,0,1,1.4.672l4.152,5.19a1.789,1.789,0,0,1,.392,1.118v12.7a1.789,1.789,0,0,1-1.789,1.789h-16.7a1.789,1.789,0,0,1-1.789-1.789V133.039a1.789,1.789,0,0,1,1.789-1.789Zm-13.145,1.789a.6.6,0,0,1,.6-.6h1.789V139a1.789,1.789,0,0,0,1.789,1.789h8.35A1.789,1.789,0,0,0,216.757,139v-5.457l3.448,4.31a.6.6,0,0,1,.131.373v12.7a.6.6,0,0,1-.6.6H217.95v-5.368a1.789,1.789,0,0,0-1.789-1.789h-9.543a1.789,1.789,0,0,0-1.789,1.789v5.368h-1.789a.6.6,0,0,1-.6-.6ZM206.021,139v-6.561h4.771v4.175a.6.6,0,0,0,.6.6h2.386a.6.6,0,0,0,.6-.6v-4.175h1.193V139a.6.6,0,0,1-.6.6h-8.35A.6.6,0,0,1,206.021,139Zm7.157-6.561h-1.193v3.579h1.193Zm-7.157,13.718v5.368h10.736v-5.368a.6.6,0,0,0-.6-.6h-9.543A.6.6,0,0,0,206.021,146.161Z" fill="#009bad" fill-rule="evenodd"/>
  </g>
</svg>
