<svg xmlns="http://www.w3.org/2000/svg" width="17.193" height="18.5" viewBox="0 0 17.193 18.5">
  <g id="setting" transform="translate(-75.471 -941)">
    <path id="Path_2301" data-name="Path 2301" d="M124.787,31.251,123.578,30.2a7.124,7.124,0,0,0,0-2.7l1.209-1.048a1.182,1.182,0,0,0,.25-1.486l-.855-1.482a1.182,1.182,0,0,0-1.411-.526l-1.514.522a7.023,7.023,0,0,0-2.337-1.352l-.305-1.571a1.184,1.184,0,0,0-1.161-.958h-1.71a1.184,1.184,0,0,0-1.161.958l-.305,1.571a7.019,7.019,0,0,0-2.337,1.352l-1.514-.522a1.182,1.182,0,0,0-1.411.526l-.855,1.482a1.183,1.183,0,0,0,.249,1.486L109.62,27.5a7.118,7.118,0,0,0,0,2.7l-1.209,1.048a1.183,1.183,0,0,0-.25,1.486l.855,1.482a1.183,1.183,0,0,0,1.411.526l1.514-.522a7.023,7.023,0,0,0,2.337,1.352l.305,1.571a1.184,1.184,0,0,0,1.161.958h1.71a1.184,1.184,0,0,0,1.161-.958l.305-1.571a7.019,7.019,0,0,0,2.337-1.352l1.514.522a1.182,1.182,0,0,0,1.411-.526l.855-1.482a1.183,1.183,0,0,0-.249-1.487Zm-.267,1.188-.855,1.483a.585.585,0,0,1-.7.259l-1.68-.579a.3.3,0,0,0-.3.062,6.439,6.439,0,0,1-2.417,1.4.3.3,0,0,0-.2.227l-.339,1.743a.587.587,0,0,1-.575.475h-1.71a.587.587,0,0,1-.575-.475l-.339-1.743a.3.3,0,0,0-.2-.227,6.437,6.437,0,0,1-2.417-1.4.3.3,0,0,0-.3-.062l-1.68.58a.585.585,0,0,1-.7-.26l-.855-1.483a.585.585,0,0,1,.124-.736l1.341-1.163a.3.3,0,0,0,.1-.29,6.508,6.508,0,0,1,0-2.792.3.3,0,0,0-.1-.29L108.8,26a.585.585,0,0,1-.123-.736l.855-1.483a.585.585,0,0,1,.7-.259l1.68.579a.3.3,0,0,0,.3-.062,6.439,6.439,0,0,1,2.417-1.4.3.3,0,0,0,.2-.227l.339-1.743a.587.587,0,0,1,.575-.474h1.71a.587.587,0,0,1,.575.475l.339,1.743a.3.3,0,0,0,.2.227,6.437,6.437,0,0,1,2.417,1.4.3.3,0,0,0,.3.062l1.68-.58a.585.585,0,0,1,.7.26l.855,1.483A.585.585,0,0,1,124.4,26l-1.341,1.163a.3.3,0,0,0-.1.29,6.507,6.507,0,0,1,0,2.792.3.3,0,0,0,.1.29L124.4,31.7h0a.586.586,0,0,1,.123.736Z" transform="translate(-32.531 921.397)" fill="#fff"/>
    <path id="Path_2302" data-name="Path 2302" d="M259.041,185.69a3.35,3.35,0,1,0,3.35,3.35A3.354,3.354,0,0,0,259.041,185.69Zm0,6.1a2.753,2.753,0,1,1,2.753-2.753A2.756,2.756,0,0,1,259.041,191.793Z" transform="translate(-174.974 761.21)" fill="#fff"/>
  </g>
</svg>
