<svg xmlns="http://www.w3.org/2000/svg" width="16.653" height="17.497" viewBox="0 0 16.653 17.497">
  <path id="setting-blue" d="M126.735,52.488h-2.5a.626.626,0,0,1-.626-.475l-.451-1.8a6.925,6.925,0,0,1-2.146-1.25l-1.784.519a.626.626,0,0,1-.713-.287l-1.252-2.162h0a.624.624,0,0,1,.088-.794l1.37-1.25a6.575,6.575,0,0,1,0-2.5l-1.37-1.25a.625.625,0,0,1-.106-.762l1.252-2.162h0a.626.626,0,0,1,.732-.319l1.79.512h0a6.928,6.928,0,0,1,2.146-1.25l.444-1.793a.626.626,0,0,1,.626-.475h2.5a.626.626,0,0,1,.626.475l.451,1.8a6.925,6.925,0,0,1,2.146,1.25L131.742,38a.626.626,0,0,1,.713.287l1.252,2.162h0a.624.624,0,0,1-.088.794l-1.37,1.25a6.576,6.576,0,0,1,0,2.5l1.37,1.25a.624.624,0,0,1,.106.762l-1.252,2.162h0a.626.626,0,0,1-.714.287l-1.79-.512h0a6.927,6.927,0,0,1-2.147,1.25l-.463,1.825a.626.626,0,0,1-.626.475Zm-2.015-1.25h1.527l.419-1.662a.625.625,0,0,1,.426-.45,5.634,5.634,0,0,0,2.259-1.306.627.627,0,0,1,.626-.144l1.652.475.739-1.325-1.252-1.212a.624.624,0,0,1-.175-.625,5.429,5.429,0,0,0,0-2.6.624.624,0,0,1,.175-.525l1.252-1.194-.764-1.343-1.652.475a.627.627,0,0,1-.626-.144,5.634,5.634,0,0,0-2.259-1.306.625.625,0,0,1-.425-.45l-.394-1.662H124.72L124.3,37.9h0a.625.625,0,0,1-.426.45,5.635,5.635,0,0,0-2.259,1.306.627.627,0,0,1-.626.144l-1.627-.475-.764,1.325,1.252,1.212a.624.624,0,0,1,.175.625,5.429,5.429,0,0,0,0,2.6.624.624,0,0,1-.175.525L118.6,46.827l.764,1.319,1.652-.475a.626.626,0,0,1,.626.144A5.635,5.635,0,0,0,123.9,49.12a.625.625,0,0,1,.425.45Zm.764-4.374a3.127,3.127,0,1,1,2.213-.915A3.131,3.131,0,0,1,125.484,46.864Zm0-5a1.876,1.876,0,1,0,1.328.549A1.879,1.879,0,0,0,125.484,41.865Z" transform="translate(-117.157 -34.991)" fill="#013552" opacity="0.9"/>
</svg>
