<svg xmlns="http://www.w3.org/2000/svg" width="15.72" height="14.79" viewBox="0 0 15.72 14.79">
  <g id="noun-share-4241699" transform="translate(-73.195 -27.996)">
    <path id="Path_1252" data-name="Path 1252" d="M272.452,28.168a.445.445,0,0,0-.266-.167c-.007,0-.012,0-.019,0s-.012,0-.019,0a.328.328,0,0,0-.261.117.448.448,0,0,0-.106.3v2.372a4.279,4.279,0,0,0-4.581,2.841c-1.431,3.769.556,7.53.641,7.688a.356.356,0,0,0,.309.2.312.312,0,0,0,.075-.009.4.4,0,0,0,.285-.353c.424-3.408,2.067-4.908,3.271-5.558v3.137a.432.432,0,0,0,.213.385.326.326,0,0,0,.39-.065l5.137-5.172a.47.47,0,0,0,0-.641Zm.057,9.642v-2.84a.447.447,0,0,0-.154-.345.323.323,0,0,0-.332-.054,6.311,6.311,0,0,0-2.585,2.016,7.757,7.757,0,0,0-1.432,3.212,8.665,8.665,0,0,1-.14-5.825,3.467,3.467,0,0,1,3.46-2.356c.173,0,.332.01.476.023v.447h0a.368.368,0,1,0,.728,0V29.365l4.194,4.2Z" transform="translate(-188.732 0)"/>
    <path id="Path_1253" data-name="Path 1253" d="M96.444,42.692a.342.342,0,0,0-.341.342v2.922a2.306,2.306,0,0,1-2.3,2.308H85.137a2.306,2.306,0,0,1-2.3-2.308V37.348a2.306,2.306,0,0,1,2.3-2.308H89a.342.342,0,0,0,0-.684H85.137a2.99,2.99,0,0,0-2.981,2.992v8.607a2.99,2.99,0,0,0,2.981,2.992H93.8a2.99,2.99,0,0,0,2.981-2.992V43.034a.342.342,0,0,0-.341-.342Z" transform="translate(-8.961 -6.161)"/>
    <path id="Path_1254" data-name="Path 1254" d="M430.729,164.9a.355.355,0,0,0-.109.255.363.363,0,0,0,.109.259.351.351,0,0,0,.255.106.361.361,0,0,0,.364-.364.353.353,0,0,0-.106-.255A.37.37,0,0,0,430.729,164.9Z" transform="translate(-347.229 -132.799)"/>
  </g>
</svg>
