<svg xmlns="http://www.w3.org/2000/svg" width="20.016" height="20.014" viewBox="0 0 20.016 20.014">
  <path id="icons8-microsoft-sharepoint_1_" data-name="icons8-microsoft-sharepoint (1)" d="M11.559,0l-.025.013L.325,2.122a.4.4,0,0,0-.325.4V17.447a.4.4,0,0,0,.325.4L11.534,20a.4.4,0,0,0,.475-.388v-2.84a2.451,2.451,0,0,0,.4.038,2.4,2.4,0,0,0,2.4-2.3,4.907,4.907,0,0,0,2.54-2.114A2.4,2.4,0,1,0,17.614,7.6c-.078,0-.161,0-.238.013A4.894,4.894,0,0,0,14.8,5.462,2.387,2.387,0,0,0,12.41,3.2a2.448,2.448,0,0,0-.4.025V.4a.4.4,0,0,0-.134-.3A.4.4,0,0,0,11.559,0Zm-.35.876V19.136L.8,17.122V2.848ZM12.41,4a1.568,1.568,0,0,1,1.6,1.6,1.568,1.568,0,0,1-1.6,1.6,1.652,1.652,0,0,1-.4-.05v-3.1A1.427,1.427,0,0,1,12.41,4ZM5.842,6.163a5.017,5.017,0,0,0-1.113.113,3.251,3.251,0,0,0-.926.4,2.085,2.085,0,0,0-.638.688,2.073,2.073,0,0,0,.2,2.239,3.143,3.143,0,0,0,1.276.876c.241.12.438.208.638.288s.366.2.525.275a2.45,2.45,0,0,1,.325.325.676.676,0,0,1,.113.4.7.7,0,0,1-.075.275.668.668,0,0,1-.238.238,1.231,1.231,0,0,1-.4.163,2.455,2.455,0,0,1-.563.038,3.174,3.174,0,0,1-1.038-.2,2.874,2.874,0,0,1-.963-.55v1.639a2.749,2.749,0,0,0,.913.275,5.471,5.471,0,0,0,1.163.125,5.122,5.122,0,0,0,1.126-.125,3.125,3.125,0,0,0,.913-.363,1.754,1.754,0,0,0,.651-.676,3.317,3.317,0,0,0,.238-1.038,2.359,2.359,0,0,0-.125-.763,2.246,2.246,0,0,0-.4-.6,1.752,1.752,0,0,0-.6-.475,5.1,5.1,0,0,0-.8-.4c-.2-.08-.4-.17-.563-.25a4.426,4.426,0,0,1-.438-.238,1.758,1.758,0,0,1-.275-.275.765.765,0,0,1-.088-.325.708.708,0,0,1,.088-.313A.688.688,0,0,1,5,7.677a1.219,1.219,0,0,1,.4-.15,2.1,2.1,0,0,1,.525-.05,1.61,1.61,0,0,1,.438.05,1.959,1.959,0,0,1,.438.075,1.99,1.99,0,0,1,.438.163,3.615,3.615,0,0,1,.4.238V6.438a4.79,4.79,0,0,0-.8-.2A6.732,6.732,0,0,0,5.842,6.163Zm8.87.113a4.088,4.088,0,0,1,1.864,1.564,2.4,2.4,0,0,0-.025,4.316A4.072,4.072,0,0,1,14.7,13.694a2.394,2.394,0,0,0-2.289-1.689,2.447,2.447,0,0,0-.4.025V7.964a2.451,2.451,0,0,0,.4.038A2.393,2.393,0,0,0,14.712,6.276Zm2.9,2.127a1.6,1.6,0,1,1-1.6,1.6A1.594,1.594,0,0,1,17.614,8.4Zm-5.2,4.4a1.6,1.6,0,1,1,0,3.2,1.652,1.652,0,0,1-.4-.05v-3.1A1.427,1.427,0,0,1,12.41,12.806Z" transform="translate(0 0.007)" fill="#009bad"/>
</svg>
