<svg xmlns="http://www.w3.org/2000/svg" xmlns:xlink="http://www.w3.org/1999/xlink" width="40" height="40" viewBox="0 0 40 40">
  <defs>
    <linearGradient id="linear-gradient" x1="0.214" y1="0.101" x2="0.641" y2="0.696" gradientUnits="objectBoundingBox">
      <stop offset="0" stop-color="#048489"/>
      <stop offset="1" stop-color="#03676a"/>
    </linearGradient>
    <linearGradient id="linear-gradient-2" x1="0.196" y1="0.125" x2="0.858" y2="0.943" gradientUnits="objectBoundingBox">
      <stop offset="0" stop-color="#18939a"/>
      <stop offset="0.41" stop-color="#168c93"/>
      <stop offset="1" stop-color="#117981"/>
    </linearGradient>
    <linearGradient id="linear-gradient-3" y1="0.5" x2="1" y2="0.5" gradientUnits="objectBoundingBox">
      <stop offset="0" stop-color="#37c6d0"/>
      <stop offset="1" stop-color="#37c6d0"/>
    </linearGradient>
    <linearGradient id="linear-gradient-4" x1="0.029" y1="0.029" x2="0.971" y2="0.971" gradientUnits="objectBoundingBox">
      <stop offset="0" stop-color="#058f92"/>
      <stop offset="1" stop-color="#027074"/>
    </linearGradient>
  </defs>
  <g id="icons8-microsoft-sharepoint-2019" transform="translate(-4 -4)">
    <path id="Path_149" data-name="Path 149" d="M23,4A12,12,0,1,0,35,16,12,12,0,0,0,23,4Z" fill="url(#linear-gradient)"/>
    <path id="Path_150" data-name="Path 150" d="M33.5,16A10.5,10.5,0,1,0,44,26.5,10.5,10.5,0,0,0,33.5,16Z" fill="url(#linear-gradient-2)"/>
    <path id="Path_151" data-name="Path 151" d="M24,28a8,8,0,1,0,8,8A8,8,0,0,0,24,28Z" fill="url(#linear-gradient-3)"/>
    <path id="Path_152" data-name="Path 152" d="M22.319,13H11.393A11.959,11.959,0,0,0,23,28c.04,0,.078-.006.118-.006l.009.056A7.946,7.946,0,0,0,16.069,37h6.25A3.681,3.681,0,0,0,26,33.319V16.681A3.681,3.681,0,0,0,22.319,13Z" opacity="0.05"/>
    <path id="Path_153" data-name="Path 153" d="M16,36h6.213a3.121,3.121,0,0,0,3.121-3.121V16.454a3.121,3.121,0,0,0-3.121-3.121h-10.9A11.969,11.969,0,0,0,23,28c.04,0,.078-.006.118-.006l.009.056A8,8,0,0,0,16,36Z" opacity="0.07"/>
    <path id="Path_154" data-name="Path 154" d="M22.106,13.667H11.231A11.991,11.991,0,0,0,23,28c.04,0,.078-.006.118-.006l.009.056A8,8,0,0,0,16.07,35h6.037a2.56,2.56,0,0,0,2.56-2.56V16.227A2.561,2.561,0,0,0,22.106,13.667Z" opacity="0.09"/>
    <path id="Path_155" data-name="Path 155" d="M22,34H6a2,2,0,0,1-2-2V16a2,2,0,0,1,2-2H22a2,2,0,0,1,2,2V32A2,2,0,0,1,22,34Z" fill="url(#linear-gradient-4)"/>
    <path id="Path_156" data-name="Path 156" d="M10.432,28.75v-2.3a8.958,8.958,0,0,0,2.9,1.048c.3,0,2.138.088,2.138-1.041,0-1.633-5.082-1.494-5.082-4.725,0-.536.066-3.059,4.133-3.059a9.755,9.755,0,0,1,2.628.4v2.147a3.871,3.871,0,0,0-2.5-.718c-1.877,0-2.04.883-2.04,1.041,0,1.359,5,1.544,5,4.711S14,29.325,13.434,29.325A13.847,13.847,0,0,1,10.432,28.75Z" fill="#fff"/>
  </g>
</svg>
