<svg xmlns="http://www.w3.org/2000/svg" width="15.467" height="17.208" viewBox="0 0 15.467 17.208">
  <path id="sharedwithme-h" d="M155.187,99.576a2.967,2.967,0,0,0-2.3,1.06l-4.289-2.22a2.973,2.973,0,0,0,.3-1.337,3.352,3.352,0,0,0-.3-1.337l4.289-2.22a3.005,3.005,0,0,0,2.3,1.06,3.053,3.053,0,1,0,0-6.106,3.108,3.108,0,0,0-3.053,3.1,3.211,3.211,0,0,0,.2,1.11l-4.365,2.246a3.013,3.013,0,0,0-2.145-.883,3.053,3.053,0,0,0,.025,6.106A3.013,3.013,0,0,0,148,99.273l4.365,2.246a3.211,3.211,0,0,0-.2,1.11,3.053,3.053,0,1,0,3.028-3.053Zm0-10.016a2.044,2.044,0,1,1-2.044,2.018,2.03,2.03,0,0,1,2.044-2.018Zm-9.335,9.588A2.044,2.044,0,1,1,147.9,97.1,2.051,2.051,0,0,1,145.851,99.147Zm9.335,5.5a2.044,2.044,0,1,1,2.044-2.044A2.051,2.051,0,0,1,155.187,104.647Z" transform="translate(-142.799 -88.474)" fill="#009bad"/>
</svg>
