<svg xmlns="http://www.w3.org/2000/svg" width="26.916" height="24.8" viewBox="0 0 26.916 24.8">
  <path id="shareasemail" d="M146.715,78.962a2.951,2.951,0,0,0-2.947-2.948h-2.961l2-2.98a.317.317,0,0,0-.123-.46l-5.749-2.828a.317.317,0,0,0-.446.366l.4,1.5a8.272,8.272,0,0,0-5.194,4.4h-7.946a2.95,2.95,0,0,0-2.947,2.948V90.556a2.951,2.951,0,0,0,2.947,2.947h20.021a2.936,2.936,0,0,0,2.131-.917.318.318,0,0,0,.031-.034,2.932,2.932,0,0,0,.785-2Zm-9.36-6.821a.316.316,0,0,0,.224-.388l-.3-1.13,4.8,2.36L139.1,77.427l-.31-1.156a.318.318,0,0,0-.35-.231,10.089,10.089,0,0,0-6.818,4.029,7.48,7.48,0,0,1,5.733-7.927Zm-5.908,4.507A9.591,9.591,0,0,0,131,80.37l.045.721a.316.316,0,0,0,.239.288.31.31,0,0,0,.078.009.317.317,0,0,0,.269-.149l.382-.614a9.264,9.264,0,0,1,6.237-3.916l.417,1.555a.317.317,0,0,0,.569.095l1.145-1.711h3.385a2.3,2.3,0,0,1,1.4.475l-11.41,7.261-11.409-7.261a2.318,2.318,0,0,1,1.4-.475Zm14.635,13.908a2.3,2.3,0,0,1-.459,1.378L137.085,86.6a.317.317,0,0,0-.336.537l8.417,5.26a2.3,2.3,0,0,1-1.4.475H123.746a2.3,2.3,0,0,1-1.4-.475l8.417-5.26a.317.317,0,0,0-.336-.537l-8.537,5.336a2.3,2.3,0,0,1-.459-1.378V78.963a2.3,2.3,0,0,1,.459-1.379l11.7,7.443a.317.317,0,0,0,.34,0l11.7-7.442a2.3,2.3,0,0,1,.46,1.378V90.556Z" transform="translate(-120.299 -69.203)" fill="#686868" stroke="#707070" stroke-width="1"/>
</svg>
