<svg xmlns="http://www.w3.org/2000/svg" width="16.284" height="15.645" viewBox="0 0 16.284 15.645">
  <path id="starred-h" d="M160.552,82.046a.146.146,0,0,1-.128.093l-4.613.257a.145.145,0,0,0-.084.258l3.581,2.919a.145.145,0,0,1,.049.15l-1.181,4.467a.146.146,0,0,0,.22.16l3.883-2.5a.146.146,0,0,1,.158,0l3.883,2.5a.146.146,0,0,0,.22-.16l-1.182-4.467a.145.145,0,0,1,.049-.15l3.581-2.919a.145.145,0,0,0-.084-.258l-4.613-.257a.145.145,0,0,1-.128-.093l-1.67-4.308a.145.145,0,0,0-.271,0Zm4.663-1.314-1.365-3.521a1.6,1.6,0,0,0-2.986,0L159.5,80.732l-3.77.21a1.6,1.6,0,0,0-.923,2.84l2.927,2.386-.965,3.65a1.6,1.6,0,0,0,2.416,1.755l3.173-2.046,3.173,2.046a1.6,1.6,0,0,0,2.415-1.755l-.965-3.65,2.927-2.386a1.6,1.6,0,0,0-.923-2.84Z" transform="translate(-154.215 -76.189)" fill="#009bad" fill-rule="evenodd"/>
</svg>
