<svg xmlns="http://www.w3.org/2000/svg" width="13.95" height="13.146" viewBox="0 0 13.95 13.146">
  <path id="Starred" d="M123.379,58.921a.977.977,0,0,0-.534-1.642l-3.473-.5h0a.306.306,0,0,1-.241-.176l-1.564-3.108a.977.977,0,0,0-1.746,0l-1.557,3.082a.326.326,0,0,1-.248.176l-3.473.528a.971.971,0,0,0-.534,1.668l2.5,2.372a.319.319,0,0,1,.1.287l-.567,3.258a1.062,1.062,0,0,0,1.544,1.108l2.965-1.525a.306.306,0,0,1,.3,0l2.965,1.531h0a1.062,1.062,0,0,0,1.544-1.108l-.567-3.258a.319.319,0,0,1,.1-.287Z" transform="translate(-109.703 -52.955)" fill="#009bad"/>
</svg>
