<svg xmlns="http://www.w3.org/2000/svg" width="108.637" height="108.637" viewBox="0 0 108.637 108.637">
  <path id="success" d="M187.3,69.1a3.881,3.881,0,0,1,0,5.51l-34.919,34.919a3.882,3.882,0,0,1-2.755,1.125h-.233a3.879,3.879,0,0,1-2.793-1.474l-15.52-19.4a3.88,3.88,0,1,1,6.052-4.812l12.8,15.986L181.788,69.1a3.881,3.881,0,0,1,5.51,0Zm26.343,20.215a54.318,54.318,0,1,1-15.909-38.409A54.32,54.32,0,0,1,213.641,89.316Zm-7.76,0a46.559,46.559,0,1,0-13.637,32.922A46.557,46.557,0,0,0,205.881,89.316Z" transform="translate(-105.004 -34.998)" fill="#009bad"/>
</svg>
