<svg xmlns="http://www.w3.org/2000/svg" width="26" height="24" viewBox="0 0 26 24">
  <g id="table-folder" transform="translate(-377 -450)">
    <rect id="Rectangle_1514" data-name="Rectangle 1514" width="26" height="24" rx="5" transform="translate(377 450)" fill="#009bad"/>
    <path id="Path_2283" data-name="Path 2283" d="M124.774,113.12H112.14a.52.52,0,0,0-.259.067.431.431,0,0,0-.174.181l-2.017,4.069h13.661l1.856-3.74a.369.369,0,0,0-.038-.391.492.492,0,0,0-.4-.186Zm-3.966,4h-2.8a.161.161,0,1,1,0-.319h2.8a.161.161,0,1,1,0,.319Zm2.184,0h-1.15a.161.161,0,1,1,0-.319h1.15a.161.161,0,1,1,0,.319ZM112.141,112.8h11.148v-3.06a.39.39,0,0,0-.138-.293.51.51,0,0,0-.335-.122h-5.186a1.839,1.839,0,0,1-1.27-.491l-.95-.913h0a1.127,1.127,0,0,0-.782-.3h-4.56a.511.511,0,0,0-.335.122.39.39,0,0,0-.138.293v8.794l1.778-3.587a.765.765,0,0,1,.309-.321.923.923,0,0,1,.459-.12Zm-1.817-.667a.184.184,0,0,1-.365,0v-2.474a.184.184,0,0,1,.365,0Zm0-3.355h0a.184.184,0,0,1-.365,0V108.1a.184.184,0,0,1,.365,0Z" transform="translate(272.847 349.601)" fill="#fff"/>
  </g>
</svg>
