<svg id="table-image" xmlns="http://www.w3.org/2000/svg" width="26" height="24" viewBox="0 0 26 24">
  <rect id="Rectangle_1515" data-name="Rectangle 1515" width="26" height="24" rx="5" fill="#009bad"/>
  <path id="Path_2284" data-name="Path 2284" d="M104.452,41.419Zm8.8-6.405a1.594,1.594,0,1,0,1.594,1.594A1.574,1.574,0,0,0,113.248,35.014Zm-2.42,12.81H123.7a.479.479,0,0,0,.427-.712l-4.612-9.252a.484.484,0,0,0-.854,0l-2.733,5.466a.484.484,0,0,1-.854,0l-.939-1.879a.484.484,0,0,0-.854,0L110.4,47.112a.5.5,0,0,0,.427.712Z" transform="translate(-103.658 -30.978)" fill="#fff"/>
</svg>
