<svg xmlns="http://www.w3.org/2000/svg" width="24.953" height="26.019" viewBox="0 0 24.953 26.019">
  <g id="temp" transform="translate(-70.109 -17.499)">
    <path id="Path_1267" data-name="Path 1267" d="M299.311,166.918a3.043,3.043,0,0,0-1.061-1.536.5.5,0,1,1,.612-.8,4.057,4.057,0,0,1,1.414,2.049.5.5,0,0,1-.965.287Z" transform="translate(-217.457 -140.218)" fill="#fff"/>
    <path id="Path_1268" data-name="Path 1268" d="M175.33,68.061a5.033,5.033,0,0,1,9.07-4.292.5.5,0,0,1-.872.5,4.026,4.026,0,0,0-7.257,3.433.5.5,0,0,1-.941.358Z" transform="translate(-100.068 -41.73)" fill="#fff"/>
    <path id="Path_1269" data-name="Path 1269" d="M273.945,20.518a.5.5,0,0,1-.5-.5V18a.5.5,0,1,1,1.006,0v2.013A.5.5,0,0,1,273.945,20.518Z" transform="translate(-193.978)" fill="#fff"/>
    <path id="Path_1270" data-name="Path 1270" d="M174.47,61.423,173.047,60a.5.5,0,0,1,.712-.712l1.423,1.423a.5.5,0,0,1-.712.712Z" transform="translate(-98.062 -39.726)" fill="#fff"/>
    <path id="Path_1271" data-name="Path 1271" d="M133.768,160.69h-2.013a.5.5,0,0,1,0-1.006h2.013a.5.5,0,0,1,0,1.006Z" transform="translate(-58.33 -135.644)" fill="#fff"/>
    <path id="Path_1272" data-name="Path 1272" d="M343.2,61.423a.5.5,0,0,1,0-.712l1.423-1.423a.5.5,0,1,1,.712.712l-1.423,1.423A.5.5,0,0,1,343.2,61.423Z" transform="translate(-260.382 -39.726)" fill="#fff"/>
    <path id="Path_1273" data-name="Path 1273" d="M495.424,174.765a.5.5,0,0,1-.5-.5,4.5,4.5,0,0,0-.356-1.763.5.5,0,0,1,.927-.392,5.5,5.5,0,0,1,.435,2.154.5.5,0,0,1-.5.5Z" transform="translate(-404.891 -147.203)" fill="#fff"/>
    <path id="Path_1274" data-name="Path 1274" d="M107.126,120.09h-15.1a4.529,4.529,0,0,1-.5-9.029,4.026,4.026,0,0,1,5.939-3.57,5.537,5.537,0,0,1,9.559.524,3.527,3.527,0,0,1,3.475,4.528,4.486,4.486,0,0,1,1.153,3.018,4.534,4.534,0,0,1-4.529,4.529Zm-15.1-8.051a3.522,3.522,0,1,0,0,7.044h15.1a3.521,3.521,0,0,0,2.448-6.053.5.5,0,0,1-.116-.551,2.518,2.518,0,0,0-2.672-3.437.5.5,0,0,1-.529-.3,4.53,4.53,0,0,0-8.175-.316.5.5,0,0,1-.744.171,3.018,3.018,0,0,0-4.773,2.866.5.5,0,0,1-.5.575Z" transform="translate(-16.592 -83.471)" fill="#fff"/>
    <path id="Path_1275" data-name="Path 1275" d="M454.055,413.868a.5.5,0,0,1,0-.712l1.761-1.761a.5.5,0,1,1,.712.712l-1.761,1.761A.5.5,0,0,1,454.055,413.868Z" transform="translate(-366.142 -375.635)" fill="#fff"/>
    <path id="Path_1276" data-name="Path 1276" d="M382.965,479.751a.5.5,0,0,1,0-.712l2.013-2.013a.5.5,0,0,1,.712.712l-2.013,2.013A.5.5,0,0,1,382.965,479.751Z" transform="translate(-298.322 -438.246)" fill="#fff"/>
    <path id="Path_1277" data-name="Path 1277" d="M366.555,413.868a.5.5,0,0,1,0-.712l1.761-1.761a.5.5,0,1,1,.712.712l-1.761,1.761A.5.5,0,0,1,366.555,413.868Z" transform="translate(-282.667 -375.635)" fill="#fff"/>
    <path id="Path_1278" data-name="Path 1278" d="M295.465,479.751a.5.5,0,0,1,0-.712l2.013-2.013a.5.5,0,0,1,.712.712l-2.013,2.013A.5.5,0,0,1,295.465,479.751Z" transform="translate(-214.848 -438.246)" fill="#fff"/>
    <path id="Path_1279" data-name="Path 1279" d="M279.055,413.868a.5.5,0,0,1,0-.712l1.761-1.761a.5.5,0,1,1,.712.712l-1.761,1.761A.5.5,0,0,1,279.055,413.868Z" transform="translate(-199.193 -375.635)" fill="#fff"/>
    <path id="Path_1280" data-name="Path 1280" d="M207.965,479.751a.5.5,0,0,1,0-.712l2.013-2.013a.5.5,0,0,1,.712.712l-2.013,2.013A.5.5,0,0,1,207.965,479.751Z" transform="translate(-131.373 -438.246)" fill="#fff"/>
    <path id="Path_1281" data-name="Path 1281" d="M191.555,413.868a.5.5,0,0,1,0-.712l1.761-1.761a.5.5,0,1,1,.712.712l-1.761,1.761A.5.5,0,0,1,191.555,413.868Z" transform="translate(-115.718 -375.635)" fill="#fff"/>
    <path id="Path_1282" data-name="Path 1282" d="M120.465,479.751a.5.5,0,0,1,0-.712l2.013-2.013a.5.5,0,0,1,.712.712l-2.013,2.013A.5.5,0,0,1,120.465,479.751Z" transform="translate(-47.899 -438.246)" fill="#fff"/>
    <g id="Group_1687" data-name="Group 1687" transform="translate(70.117 43.024)">
      <path id="Path_1283" data-name="Path 1283" d="M.422-3.886a.131.131,0,0,1-.027.01.116.116,0,0,1-.029,0A.1.1,0,0,1,.292-3.9a.092.092,0,0,1-.027-.07.091.091,0,0,1,.027-.07.1.1,0,0,1,.073-.026.116.116,0,0,1,.029,0,.142.142,0,0,1,.027.01v.038A.109.109,0,0,0,.4-4.024a.08.08,0,0,0-.027,0,.052.052,0,0,0-.04.017.064.064,0,0,0-.014.045.065.065,0,0,0,.014.045.053.053,0,0,0,.04.016.091.091,0,0,0,.027,0,.1.1,0,0,0,.026-.014Z" transform="translate(-0.266 4.062)" fill="#fff"/>
    </g>
    <g id="Group_1688" data-name="Group 1688" transform="translate(70.31 43.07)">
      <path id="Path_1284" data-name="Path 1284" d="M.556-3.022l-.012,0H.533a.032.032,0,0,0-.027.012A.049.049,0,0,0,.5-2.985v.063H.453v-.137H.5v.022a.05.05,0,0,1,.019-.019.053.053,0,0,1,.027-.006H.555Z" transform="translate(-0.453 3.063)" fill="#fff"/>
    </g>
    <g id="Group_1689" data-name="Group 1689" transform="translate(70.424 43.07)">
      <path id="Path_1285" data-name="Path 1285" d="M.382-2.991v.012h-.1a.036.036,0,0,0,.012.024.042.042,0,0,0,.027.007.114.114,0,0,0,.029,0,.143.143,0,0,0,.029-.013v.034a.139.139,0,0,1-.031.009l-.031,0a.083.083,0,0,1-.058-.019.07.07,0,0,1-.021-.054.069.069,0,0,1,.02-.052.079.079,0,0,1,.056-.019.07.07,0,0,1,.052.019.071.071,0,0,1,.019.052ZM.337-3.006a.025.025,0,0,0-.008-.019.025.025,0,0,0-.019-.008.03.03,0,0,0-.021.007.033.033,0,0,0-.01.02Z" transform="translate(-0.234 3.063)" fill="#fff"/>
    </g>
    <g id="Group_1690" data-name="Group 1690" transform="translate(70.594 43.07)">
      <path id="Path_1286" data-name="Path 1286" d="M.306-2.984a.037.037,0,0,0-.021.005.015.015,0,0,0-.006.014.017.017,0,0,0,.005.013.025.025,0,0,0,.016,0,.028.028,0,0,0,.021-.009.03.03,0,0,0,.009-.022v-.005ZM.374-3v.078H.329v-.02a.054.054,0,0,1-.02.018.057.057,0,0,1-.027.006A.05.05,0,0,1,.247-2.93a.044.044,0,0,1-.013-.032A.041.041,0,0,1,.251-3,.094.094,0,0,1,.3-3.01H.329v0a.015.015,0,0,0-.009-.015A.05.05,0,0,0,.3-3.033a.122.122,0,0,0-.027,0l-.022.008v-.033L.275-3.06l.029,0a.079.079,0,0,1,.054.015A.06.06,0,0,1,.374-3Z" transform="translate(-0.234 3.063)" fill="#fff"/>
    </g>
    <g id="Group_1691" data-name="Group 1691" transform="translate(70.757 43.035)">
      <path id="Path_1287" data-name="Path 1287" d="M.144-3.844v.04H.189v.031H.144v.059a.017.017,0,0,0,0,.013.03.03,0,0,0,.016,0H.185v.032H.148A.052.052,0,0,1,.11-3.678.051.051,0,0,1,.1-3.714v-.059H.078V-3.8H.1v-.04Z" transform="translate(-0.078 3.844)" fill="#fff"/>
    </g>
    <g id="Group_1692" data-name="Group 1692" transform="translate(70.884 43.07)">
      <path id="Path_1288" data-name="Path 1288" d="M.382-2.991v.012h-.1a.036.036,0,0,0,.012.024.042.042,0,0,0,.027.007.114.114,0,0,0,.029,0,.143.143,0,0,0,.029-.013v.034a.139.139,0,0,1-.031.009l-.031,0a.083.083,0,0,1-.058-.019.07.07,0,0,1-.021-.054.069.069,0,0,1,.02-.052.079.079,0,0,1,.056-.019.07.07,0,0,1,.052.019.071.071,0,0,1,.019.052ZM.337-3.006a.025.025,0,0,0-.008-.019.025.025,0,0,0-.019-.008.03.03,0,0,0-.021.007.033.033,0,0,0-.01.02Z" transform="translate(-0.234 3.063)" fill="#fff"/>
    </g>
    <g id="Group_1693" data-name="Group 1693" transform="translate(71.056 43.02)">
      <path id="Path_1289" data-name="Path 1289" d="M.354-4.082v-.074H.4v.191H.354v-.02a.062.062,0,0,1-.02.018.054.054,0,0,1-.025.006.052.052,0,0,1-.042-.02A.082.082,0,0,1,.25-4.034a.081.081,0,0,1,.016-.052.053.053,0,0,1,.042-.02A.052.052,0,0,1,.333-4.1a.064.064,0,0,1,.021.018Zm-.029.089A.025.025,0,0,0,.346-4a.052.052,0,0,0,.008-.031.048.048,0,0,0-.008-.029.024.024,0,0,0-.022-.011A.025.025,0,0,0,.3-4.064.05.05,0,0,0,.3-4.034.055.055,0,0,0,.3-4,.025.025,0,0,0,.324-3.993Z" transform="translate(-0.25 4.156)" fill="#fff"/>
    </g>
    <g id="Group_1694" data-name="Group 1694" transform="translate(71.333 43.02)">
      <path id="Path_1290" data-name="Path 1290" d="M.526-3.993A.025.025,0,0,0,.548-4a.052.052,0,0,0,.008-.031.048.048,0,0,0-.008-.029.024.024,0,0,0-.022-.011A.025.025,0,0,0,.5-4.063.05.05,0,0,0,.5-4.034.055.055,0,0,0,.5-4,.025.025,0,0,0,.526-3.993ZM.5-4.082A.059.059,0,0,1,.517-4.1a.057.057,0,0,1,.026-.006.052.052,0,0,1,.042.02A.079.079,0,0,1,.6-4.034a.08.08,0,0,1-.017.052.052.052,0,0,1-.042.02.057.057,0,0,1-.026-.006A.055.055,0,0,1,.5-3.985v.02H.453v-.191H.5Z" transform="translate(-0.453 4.156)" fill="#fff"/>
    </g>
    <g id="Group_1695" data-name="Group 1695" transform="translate(71.495 43.074)">
      <path id="Path_1291" data-name="Path 1291" d="M.063-2.984H.106l.037.093.032-.093H.219l-.058.15a.077.077,0,0,1-.02.032.048.048,0,0,1-.031.009H.085v-.029H.1a.03.03,0,0,0,.017,0,.025.025,0,0,0,.008-.012v0Z" transform="translate(-0.063 2.984)" fill="#fff"/>
    </g>
    <g id="Group_1696" data-name="Group 1696" transform="translate(71.767 43.028)">
      <path id="Path_1292" data-name="Path 1292" d="M.5-3.984H.547V-3.8H.5Z" transform="translate(-0.5 3.984)" fill="#fff"/>
    </g>
    <g id="Group_1697" data-name="Group 1697" transform="translate(71.848 43.07)">
      <path id="Path_1293" data-name="Path 1293" d="M.356-3.055v.035a.075.075,0,0,0-.018-.009l-.019,0A.037.037,0,0,0,.29-3.02a.041.041,0,0,0-.01.029.042.042,0,0,0,.01.03.037.037,0,0,0,.029.011.064.064,0,0,0,.019,0,.051.051,0,0,0,.017-.009v.036L.335-2.92l-.022,0a.083.083,0,0,1-.058-.019.07.07,0,0,1-.021-.054.067.067,0,0,1,.021-.052.082.082,0,0,1,.058-.019l.022,0,.021.006Z" transform="translate(-0.234 3.062)" fill="#fff"/>
    </g>
    <g id="Group_1698" data-name="Group 1698" transform="translate(71.997 43.07)">
      <path id="Path_1294" data-name="Path 1294" d="M.31-3.031a.026.026,0,0,0-.022.011.05.05,0,0,0-.007.029.055.055,0,0,0,.007.031.026.026,0,0,0,.022.01.027.027,0,0,0,.022-.01A.052.052,0,0,0,.34-2.991.048.048,0,0,0,.332-3.02.026.026,0,0,0,.31-3.031Zm0-.032a.075.075,0,0,1,.055.019.069.069,0,0,1,.02.052.072.072,0,0,1-.02.054.076.076,0,0,1-.055.019.077.077,0,0,1-.055-.019.071.071,0,0,1-.02-.054.068.068,0,0,1,.02-.052A.076.076,0,0,1,.31-3.062Z" transform="translate(-0.234 3.063)" fill="#fff"/>
    </g>
    <g id="Group_1699" data-name="Group 1699" transform="translate(72.18 43.07)">
      <path id="Path_1295" data-name="Path 1295" d="M.592-3.006v.084H.547v-.064c0-.012,0-.02,0-.024a.022.022,0,0,0,0-.01.014.014,0,0,0-.007-.006l-.009,0A.026.026,0,0,0,.5-3.019.052.052,0,0,0,.5-2.989v.068H.453v-.137H.5v.02a.061.061,0,0,1,.021-.018.054.054,0,0,1,.024-.006.044.044,0,0,1,.036.015.061.061,0,0,1,.013.042Z" transform="translate(-0.453 3.062)" fill="#fff"/>
    </g>
    <g id="Group_1700" data-name="Group 1700" transform="translate(72.449 43.028)">
      <path id="Path_1296" data-name="Path 1296" d="M.5-3.984H.56l.042.1.042-.1H.7V-3.8H.66v-.134l-.042.1H.587l-.042-.1V-3.8H.5Z" transform="translate(-0.5 3.984)" fill="#fff"/>
    </g>
    <g id="Group_1701" data-name="Group 1701" transform="translate(72.687 43.07)">
      <path id="Path_1297" data-name="Path 1297" d="M.306-2.984a.037.037,0,0,0-.021.005.015.015,0,0,0-.006.014.017.017,0,0,0,.005.013.025.025,0,0,0,.016,0,.028.028,0,0,0,.021-.009.03.03,0,0,0,.009-.022v-.005ZM.374-3v.078H.329v-.02a.054.054,0,0,1-.02.018.057.057,0,0,1-.027.006A.05.05,0,0,1,.247-2.93a.044.044,0,0,1-.013-.032A.041.041,0,0,1,.251-3,.094.094,0,0,1,.3-3.01H.329v0a.015.015,0,0,0-.009-.015A.05.05,0,0,0,.3-3.033a.122.122,0,0,0-.027,0l-.022.008v-.033L.275-3.06l.029,0a.079.079,0,0,1,.054.015A.06.06,0,0,1,.374-3Z" transform="translate(-0.234 3.063)" fill="#fff"/>
    </g>
    <g id="Group_1702" data-name="Group 1702" transform="translate(72.867 43.07)">
      <path id="Path_1298" data-name="Path 1298" d="M.556-3.022l-.012,0H.533a.032.032,0,0,0-.027.012A.049.049,0,0,0,.5-2.985v.063H.453v-.137H.5v.022a.05.05,0,0,1,.019-.019.053.053,0,0,1,.027-.006H.555Z" transform="translate(-0.453 3.063)" fill="#fff"/>
    </g>
    <g id="Group_1703" data-name="Group 1703" transform="translate(72.991 43.02)">
      <path id="Path_1299" data-name="Path 1299" d="M.453-4.156H.5v.1l.05-.05H.6L.532-4.04.6-3.965H.551L.5-4.023v.058H.453Z" transform="translate(-0.453 4.156)" fill="#fff"/>
    </g>
    <g id="Group_1704" data-name="Group 1704" transform="translate(73.148 43.07)">
      <path id="Path_1300" data-name="Path 1300" d="M.382-2.991v.012h-.1a.036.036,0,0,0,.012.024.042.042,0,0,0,.027.007.114.114,0,0,0,.029,0,.143.143,0,0,0,.029-.013v.034a.139.139,0,0,1-.031.009l-.031,0a.083.083,0,0,1-.058-.019.07.07,0,0,1-.021-.054.069.069,0,0,1,.02-.052.079.079,0,0,1,.056-.019.07.07,0,0,1,.052.019.071.071,0,0,1,.019.052ZM.337-3.006a.025.025,0,0,0-.008-.019.025.025,0,0,0-.019-.008.03.03,0,0,0-.021.007.033.033,0,0,0-.01.02Z" transform="translate(-0.234 3.063)" fill="#fff"/>
    </g>
    <g id="Group_1705" data-name="Group 1705" transform="translate(73.312 43.035)">
      <path id="Path_1301" data-name="Path 1301" d="M.144-3.844v.04H.189v.031H.144v.059a.017.017,0,0,0,0,.013.03.03,0,0,0,.016,0H.185v.032H.148A.052.052,0,0,1,.11-3.678.051.051,0,0,1,.1-3.714v-.059H.078V-3.8H.1v-.04Z" transform="translate(-0.078 3.844)" fill="#fff"/>
    </g>
    <g id="Group_1706" data-name="Group 1706" transform="translate(70.109 43.272)">
      <path id="Path_1302" data-name="Path 1302" d="M.216-4.156v.029H.192a.021.021,0,0,0-.014,0,.016.016,0,0,0,0,.012v.01H.213v.031H.175v.106H.131v-.106H.109V-4.1H.131v-.01a.042.042,0,0,1,.012-.033.061.061,0,0,1,.04-.011Z" transform="translate(-0.109 4.156)" fill="#fff"/>
    </g>
    <g id="Group_1707" data-name="Group 1707" transform="translate(70.235 43.322)">
      <path id="Path_1303" data-name="Path 1303" d="M.556-3.022l-.012,0H.533a.032.032,0,0,0-.027.012A.049.049,0,0,0,.5-2.985v.063H.453v-.137H.5v.022a.05.05,0,0,1,.019-.019.053.053,0,0,1,.027-.006H.555Z" transform="translate(-0.453 3.063)" fill="#fff"/>
    </g>
    <g id="Group_1708" data-name="Group 1708" transform="translate(70.349 43.322)">
      <path id="Path_1304" data-name="Path 1304" d="M.31-3.031a.026.026,0,0,0-.022.011.05.05,0,0,0-.007.029.055.055,0,0,0,.007.031.026.026,0,0,0,.022.01.027.027,0,0,0,.022-.01A.052.052,0,0,0,.34-2.991.048.048,0,0,0,.332-3.02.026.026,0,0,0,.31-3.031Zm0-.032a.075.075,0,0,1,.055.019.069.069,0,0,1,.02.052.072.072,0,0,1-.02.054.076.076,0,0,1-.055.019.077.077,0,0,1-.055-.019.071.071,0,0,1-.02-.054.068.068,0,0,1,.02-.052A.076.076,0,0,1,.31-3.062Z" transform="translate(-0.234 3.063)" fill="#fff"/>
    </g>
    <g id="Group_1709" data-name="Group 1709" transform="translate(70.532 43.322)">
      <path id="Path_1305" data-name="Path 1305" d="M.581-3.037A.055.055,0,0,1,.6-3.055a.048.048,0,0,1,.026-.007.043.043,0,0,1,.035.015.061.061,0,0,1,.013.042v.084H.63v-.072a.008.008,0,0,0,0,0V-3a.04.04,0,0,0,0-.022.015.015,0,0,0-.014-.006.023.023,0,0,0-.02.011.055.055,0,0,0-.006.029v.068H.542v-.072a.063.063,0,0,0,0-.029.014.014,0,0,0-.014-.006A.022.022,0,0,0,.5-3.019.055.055,0,0,0,.5-2.989v.068H.453v-.137H.5v.02a.054.054,0,0,1,.018-.018.05.05,0,0,1,.024-.006.045.045,0,0,1,.025.007.043.043,0,0,1,.017.019Z" transform="translate(-0.453 3.063)" fill="#fff"/>
    </g>
    <g id="Group_1710" data-name="Group 1710" transform="translate(70.864 43.286)">
      <path id="Path_1306" data-name="Path 1306" d="M.144-3.844v.04H.189v.031H.144v.059a.017.017,0,0,0,0,.013.03.03,0,0,0,.016,0H.185v.032H.148A.052.052,0,0,1,.11-3.678.051.051,0,0,1,.1-3.714v-.059H.078V-3.8H.1v-.04Z" transform="translate(-0.078 3.844)" fill="#fff"/>
    </g>
    <g id="Group_1711" data-name="Group 1711" transform="translate(71.002 43.272)">
      <path id="Path_1307" data-name="Path 1307" d="M.592-4.049v.084H.547v-.064c0-.012,0-.02,0-.024a.022.022,0,0,0,0-.01A.014.014,0,0,0,.537-4.07l-.009,0A.026.026,0,0,0,.5-4.062.052.052,0,0,0,.5-4.032v.068H.453v-.191H.5v.074A.061.061,0,0,1,.519-4.1a.054.054,0,0,1,.024-.006.044.044,0,0,1,.036.015.061.061,0,0,1,.013.042Z" transform="translate(-0.453 4.156)" fill="#fff"/>
    </g>
    <g id="Group_1712" data-name="Group 1712" transform="translate(71.171 43.322)">
      <path id="Path_1308" data-name="Path 1308" d="M.382-2.991v.012h-.1a.036.036,0,0,0,.012.024.042.042,0,0,0,.027.007.114.114,0,0,0,.029,0,.143.143,0,0,0,.029-.013v.034a.139.139,0,0,1-.031.009l-.031,0a.083.083,0,0,1-.058-.019.07.07,0,0,1-.021-.054.069.069,0,0,1,.02-.052.079.079,0,0,1,.056-.019.07.07,0,0,1,.052.019.071.071,0,0,1,.019.052ZM.337-3.006a.025.025,0,0,0-.008-.019.025.025,0,0,0-.019-.008.03.03,0,0,0-.021.007.033.033,0,0,0-.01.02Z" transform="translate(-0.234 3.063)" fill="#fff"/>
    </g>
    <g id="Group_1713" data-name="Group 1713" transform="translate(71.441 43.28)">
      <path id="Path_1309" data-name="Path 1309" d="M.5-3.984H.553l.066.126v-.126H.665V-3.8H.611L.545-3.927V-3.8H.5Z" transform="translate(-0.5 3.984)" fill="#fff"/>
    </g>
    <g id="Group_1714" data-name="Group 1714" transform="translate(71.639 43.322)">
      <path id="Path_1310" data-name="Path 1310" d="M.31-3.031a.026.026,0,0,0-.022.011.05.05,0,0,0-.007.029.055.055,0,0,0,.007.031.026.026,0,0,0,.022.01.027.027,0,0,0,.022-.01A.052.052,0,0,0,.34-2.991.048.048,0,0,0,.332-3.02.026.026,0,0,0,.31-3.031Zm0-.032a.075.075,0,0,1,.055.019.069.069,0,0,1,.02.052.072.072,0,0,1-.02.054.076.076,0,0,1-.055.019.077.077,0,0,1-.055-.019.071.071,0,0,1-.02-.054.068.068,0,0,1,.02-.052A.076.076,0,0,1,.31-3.062Z" transform="translate(-0.234 3.063)" fill="#fff"/>
    </g>
    <g id="Group_1715" data-name="Group 1715" transform="translate(71.821 43.326)">
      <path id="Path_1311" data-name="Path 1311" d="M.422-2.9v-.083H.466v.064c0,.011,0,.019,0,.024a.019.019,0,0,0,0,.01.023.023,0,0,0,.007.007l.01,0a.026.026,0,0,0,.022-.011.049.049,0,0,0,.008-.029v-.068H.561v.137H.517v-.02A.068.068,0,0,1,.5-2.849a.052.052,0,0,1-.024.006.046.046,0,0,1-.037-.014A.066.066,0,0,1,.422-2.9Z" transform="translate(-0.422 2.984)" fill="#fff"/>
    </g>
    <g id="Group_1716" data-name="Group 1716" transform="translate(72.002 43.322)">
      <path id="Path_1312" data-name="Path 1312" d="M.592-3.006v.084H.547v-.064c0-.012,0-.02,0-.024a.022.022,0,0,0,0-.01.014.014,0,0,0-.007-.006l-.009,0A.026.026,0,0,0,.5-3.019.052.052,0,0,0,.5-2.989v.068H.453v-.137H.5v.02a.061.061,0,0,1,.021-.018.054.054,0,0,1,.024-.006.044.044,0,0,1,.036.015.061.061,0,0,1,.013.042Z" transform="translate(-0.453 3.062)" fill="#fff"/>
    </g>
    <g id="Group_1717" data-name="Group 1717" transform="translate(72.27 43.28)">
      <path id="Path_1313" data-name="Path 1313" d="M.5-3.984H.578a.082.082,0,0,1,.054.016.053.053,0,0,1,.019.044.055.055,0,0,1-.019.045.084.084,0,0,1-.054.015H.547V-3.8H.5Zm.047.035V-3.9H.573a.03.03,0,0,0,.021-.006A.025.025,0,0,0,.6-3.925a.023.023,0,0,0-.008-.019A.03.03,0,0,0,.573-3.95Z" transform="translate(-0.5 3.984)" fill="#fff"/>
    </g>
    <g id="Group_1718" data-name="Group 1718" transform="translate(72.453 43.322)">
      <path id="Path_1314" data-name="Path 1314" d="M.556-3.022l-.012,0H.533a.032.032,0,0,0-.027.012A.049.049,0,0,0,.5-2.985v.063H.453v-.137H.5v.022a.05.05,0,0,1,.019-.019.053.053,0,0,1,.027-.006H.555Z" transform="translate(-0.453 3.063)" fill="#fff"/>
    </g>
    <g id="Group_1719" data-name="Group 1719" transform="translate(72.567 43.322)">
      <path id="Path_1315" data-name="Path 1315" d="M.31-3.031a.026.026,0,0,0-.022.011.05.05,0,0,0-.007.029.055.055,0,0,0,.007.031.026.026,0,0,0,.022.01.027.027,0,0,0,.022-.01A.052.052,0,0,0,.34-2.991.048.048,0,0,0,.332-3.02.026.026,0,0,0,.31-3.031Zm0-.032a.075.075,0,0,1,.055.019.069.069,0,0,1,.02.052.072.072,0,0,1-.02.054.076.076,0,0,1-.055.019.077.077,0,0,1-.055-.019.071.071,0,0,1-.02-.054.068.068,0,0,1,.02-.052A.076.076,0,0,1,.31-3.062Z" transform="translate(-0.234 3.063)" fill="#fff"/>
    </g>
    <g id="Group_1720" data-name="Group 1720" transform="translate(72.72 43.272)">
      <path id="Path_1316" data-name="Path 1316" d="M-.158-4.1h.045v.135a.059.059,0,0,1-.014.042.047.047,0,0,1-.038.015H-.188V-3.94H-.18a.02.02,0,0,0,.017-.006.033.033,0,0,0,.005-.022Zm0-.054h.045v.036H-.158Z" transform="translate(0.188 4.156)" fill="#fff"/>
    </g>
    <g id="Group_1721" data-name="Group 1721" transform="translate(72.826 43.322)">
      <path id="Path_1317" data-name="Path 1317" d="M.382-2.991v.012h-.1a.036.036,0,0,0,.012.024.042.042,0,0,0,.027.007.114.114,0,0,0,.029,0,.143.143,0,0,0,.029-.013v.034a.139.139,0,0,1-.031.009l-.031,0a.083.083,0,0,1-.058-.019.07.07,0,0,1-.021-.054.069.069,0,0,1,.02-.052.079.079,0,0,1,.056-.019.07.07,0,0,1,.052.019.071.071,0,0,1,.019.052ZM.337-3.006a.025.025,0,0,0-.008-.019.025.025,0,0,0-.019-.008.03.03,0,0,0-.021.007.033.033,0,0,0-.01.02Z" transform="translate(-0.234 3.063)" fill="#fff"/>
    </g>
    <g id="Group_1722" data-name="Group 1722" transform="translate(72.996 43.322)">
      <path id="Path_1318" data-name="Path 1318" d="M.356-3.055v.035a.075.075,0,0,0-.018-.009l-.019,0A.037.037,0,0,0,.29-3.02a.041.041,0,0,0-.01.029.042.042,0,0,0,.01.03.037.037,0,0,0,.029.011.064.064,0,0,0,.019,0,.051.051,0,0,0,.017-.009v.036L.335-2.92l-.022,0a.083.083,0,0,1-.058-.019.07.07,0,0,1-.021-.054.067.067,0,0,1,.021-.052.082.082,0,0,1,.058-.019l.022,0,.021.006Z" transform="translate(-0.234 3.062)" fill="#fff"/>
    </g>
    <g id="Group_1723" data-name="Group 1723" transform="translate(73.138 43.286)">
      <path id="Path_1319" data-name="Path 1319" d="M.144-3.844v.04H.189v.031H.144v.059a.017.017,0,0,0,0,.013.03.03,0,0,0,.016,0H.185v.032H.148A.052.052,0,0,1,.11-3.678.051.051,0,0,1,.1-3.714v-.059H.078V-3.8H.1v-.04Z" transform="translate(-0.078 3.844)" fill="#fff"/>
    </g>
  </g>
</svg>
