<svg xmlns="http://www.w3.org/2000/svg" width="21.063" height="21.061" viewBox="0 0 21.063 21.061">
  <g id="MyTeams_icon" transform="translate(0.1 0.1)">
    <g id="Group_183" data-name="Group 183" transform="translate(7.407)">
      <g id="Group_182" data-name="Group 182" transform="translate(0)">
        <path id="Path_149" data-name="Path 149" d="M183.143,0a3.029,3.029,0,1,0,3.035,3.03A3.029,3.029,0,0,0,183.143,0Zm0,5.388A2.357,2.357,0,1,1,185.5,3.03,2.357,2.357,0,0,1,183.143,5.388Z" transform="translate(-180.12)" fill="#fff" stroke="#fff" stroke-width="0.2"/>
      </g>
    </g>
    <g id="Group_185" data-name="Group 185" transform="translate(6.045 6.731)">
      <g id="Group_184" data-name="Group 184">
        <path id="Path_150" data-name="Path 150" d="M152.932,163.9h-2.7a3.036,3.036,0,0,0-3.035,3.026v5.047h1.347v6.057h6.065v-6.057h1.347v-5.047h.008A3.031,3.031,0,0,0,152.932,163.9Zm2.365,7.4h-1.351v6.057h-2.02v-4.709h-.673v4.709h-2.019V171.3h-1.349v-4.373a2.363,2.363,0,0,1,2.357-2.357h2.7a2.357,2.357,0,0,1,2.357,2.357Z" transform="translate(-147.2 -163.9)" fill="#fff" stroke="#fff" stroke-width="0.2"/>
      </g>
    </g>
    <g id="Group_187" data-name="Group 187" transform="translate(1.322 3.7)">
      <g id="Group_186" data-name="Group 186" transform="translate(0)">
        <path id="Path_151" data-name="Path 151" d="M34.383,90.1a2.374,2.374,0,1,0,2.378,2.374A2.374,2.374,0,0,0,34.383,90.1Zm0,4.073a1.7,1.7,0,1,1,1.7-1.7A1.7,1.7,0,0,1,34.383,94.173Z" transform="translate(-32.014 -90.1)" fill="#fff" stroke="#fff" stroke-width="0.2"/>
      </g>
    </g>
    <g id="Group_189" data-name="Group 189" transform="translate(0 9.059)">
      <g id="Group_188" data-name="Group 188" transform="translate(0 0)">
        <path id="Path_152" data-name="Path 152" d="M5.376,227.018v4.709H4.038v-3.363H3.363v3.363H1.686v-4.709H.7l-.024-3.884a1.885,1.885,0,0,1,1.906-1.86H5.348V220.6H2.579A2.567,2.567,0,0,0,0,223.138l.028,4.554h.988V232.4H6.051v-4.709h.673v-.673Z" transform="translate(0 -220.6)" fill="#fff" stroke="#fff" stroke-width="0.2"/>
      </g>
    </g>
    <g id="Group_191" data-name="Group 191" transform="translate(14.799 3.7)">
      <g id="Group_190" data-name="Group 190" transform="translate(0 0)">
        <path id="Path_153" data-name="Path 153" d="M362.583,90.1a2.374,2.374,0,1,0,2.378,2.374,2.374,2.374,0,0,0-2.378-2.374Zm0,4.073a1.7,1.7,0,1,1,1.7-1.7,1.7,1.7,0,0,1-1.7,1.7Z" transform="translate(-360.214 -90.1)" fill="#fff" stroke="#fff" stroke-width="0.2"/>
      </g>
    </g>
    <g id="Group_193" data-name="Group 193" transform="translate(14.138 9.063)">
      <g id="Group_192" data-name="Group 192" transform="translate(0 0)">
        <path id="Path_154" data-name="Path 154" d="M348.444,220.7h-2.8v.673h2.8a1.883,1.883,0,0,1,1.906,1.856l-.024,3.884h-.988v4.709h-1.675v-3.363h-.675v3.363h-1.337v-4.709H344.3v.673h.673V232.5h5.034v-4.709H351l.028-4.554A2.561,2.561,0,0,0,348.444,220.7Z" transform="translate(-344.3 -220.7)" fill="#fff" stroke="#fff" stroke-width="0.2"/>
      </g>
    </g>
  </g>
</svg>
