<svg xmlns="http://www.w3.org/2000/svg" width="20.849" height="20.879" viewBox="0 0 20.849 20.879">
  <g id="Group_195" data-name="Group 195" transform="translate(0.101 0.131)">
    <g id="Group_194" data-name="Group 194" transform="translate(-0.001 0)">
      <path id="Path_155" data-name="Path 155" d="M20.646,7.9a.325.325,0,0,0-.014-.07.344.344,0,0,0-.02-.057.309.309,0,0,0-.035-.053.324.324,0,0,0-.046-.053c-.006,0-.008-.011-.014-.016L17.208,5.077V2.412A1.032,1.032,0,0,0,16.176,1.38h-3.73L10.953.22A1.021,1.021,0,0,0,9.7.22L8.2,1.38H4.474A1.032,1.032,0,0,0,3.441,2.412V5.077L.132,7.647c-.006.005-.009.011-.014.016a.323.323,0,0,0-.046.053.307.307,0,0,0-.035.053.34.34,0,0,0-.02.057A.326.326,0,0,0,0,7.9c0,.007,0,.014,0,.02v11.7a1.021,1.021,0,0,0,.2.607.01.01,0,0,0,0,.01.044.044,0,0,1,.011.01,1.027,1.027,0,0,0,.814.406H19.617a1.028,1.028,0,0,0,.816-.408s.007,0,.009-.008,0-.007.005-.01a1.021,1.021,0,0,0,.2-.607V7.919A.138.138,0,0,0,20.646,7.9ZM10.118.763a.33.33,0,0,1,.41,0l.794.616h-2Zm-9,19.2,9-6.991a.331.331,0,0,1,.41,0l9,6.991Zm18.843-.536-9.009-7a1.021,1.021,0,0,0-1.255,0l-9.01,7V8.443l5.64,4.38a.344.344,0,1,0,.422-.544L1.021,7.829,3.441,5.948v2.66a.344.344,0,0,0,.688,0v-6.2a.344.344,0,0,1,.344-.344h11.7a.344.344,0,0,1,.344.344v6.2a.344.344,0,1,0,.688,0V5.948L19.63,7.83,13.89,12.287a.344.344,0,1,0,.422.544l5.65-4.387V19.429Z" transform="translate(0 -0.004)" fill="#fff" stroke="#fff" stroke-width="0.2"/>
      <path id="Path_156" data-name="Path 156" d="M161.834,73.744V72.367a4.13,4.13,0,1,0-4.13,4.13.344.344,0,1,0,0-.688,3.442,3.442,0,1,1,3.442-3.442v1.377a.688.688,0,1,1-1.377,0V72.367a.344.344,0,1,0-.688,0,1.377,1.377,0,1,1-1.377-1.377.344.344,0,0,0,0-.688,2.065,2.065,0,1,0,1.391,3.587,1.373,1.373,0,0,0,2.738-.145Z" transform="translate(-147.379 -65.485)" fill="#fff" stroke="#fff" stroke-width="0.2"/>
    </g>
  </g>
</svg>
