<svg xmlns="http://www.w3.org/2000/svg" width="14.28" height="18" viewBox="0 0 14.28 18">
  <path id="trash-h" d="M226.475,110.157h-3.067a2.961,2.961,0,0,0-5.806,0h-3.066a1.172,1.172,0,0,0-1.171,1.171v1.559a1.172,1.172,0,0,0,1.171,1.171h9.075a.585.585,0,0,0,0-1.171h-9.075v-1.559h11.939v1.559h-.438a.583.583,0,0,0-.226.046.57.57,0,0,0-.089.059.3.3,0,0,0-.158.154.573.573,0,0,0-.064.095.612.612,0,0,0-.022.1.558.558,0,0,0-.027.121l-.221,10.575h0a.587.587,0,0,1-.584.572h-8.283a.587.587,0,0,1-.584-.573l-.178-8.543a.585.585,0,0,0-.585-.573H215a.585.585,0,0,0-.573.6l.178,8.542h0a1.763,1.763,0,0,0,1.755,1.72h8.283a1.763,1.763,0,0,0,1.755-1.719l.209-10.028h0a1.159,1.159,0,0,0,1.035-1.143v-1.559a1.172,1.172,0,0,0-1.171-1.171Zm-5.969-1.209a1.788,1.788,0,0,1,1.686,1.209H218.82a1.788,1.788,0,0,1,1.686-1.209Zm-2.446,13.666-.048-6.36a.585.585,0,0,1,.581-.59.6.6,0,0,1,.59.581l.048,6.36a.585.585,0,0,1-.581.59h0A.585.585,0,0,1,218.06,122.614Zm4.3.581h0a.585.585,0,0,1-.581-.59l.048-6.36a.585.585,0,0,1,.585-.581h0a.585.585,0,0,1,.581.59l-.048,6.36a.585.585,0,0,1-.585.581Z" transform="translate(-213.366 -107.777)" fill="#009bad"/>
</svg>
