<svg xmlns="http://www.w3.org/2000/svg" width="22.106" height="16.769" viewBox="0 0 22.106 16.769">
  <g id="upload" transform="translate(-84 -1211.339)">
    <path id="Path_2259" data-name="Path 2259" d="M103.451,89.6a6.632,6.632,0,0,0-4.761,2.019,6.914,6.914,0,0,0-1.817,3.537,5.671,5.671,0,0,0,1.051,11.213H109.7a4.925,4.925,0,0,0,.436-9.818,6.947,6.947,0,0,0-1.93-4.932,6.617,6.617,0,0,0-4.753-2.019Zm0,1.48a5.167,5.167,0,0,1,3.732,1.58,5.516,5.516,0,0,1,1.517,4.493h0a.753.753,0,0,0,.174.581.713.713,0,0,0,.539.251h.285a3.454,3.454,0,0,1,0,6.9H97.924a4.2,4.2,0,0,1-.375-8.369h0a.712.712,0,0,0,.434-.207.747.747,0,0,0,.212-.44,5.474,5.474,0,0,1,1.517-3.214,5.186,5.186,0,0,1,3.739-1.58Zm0,4.439a.637.637,0,0,0-.488.193l-2.643,2.466a.761.761,0,0,0-.045,1.048.74.74,0,0,0,1.021.046l1.434-1.341v4.739a.721.721,0,1,0,1.442,0V97.927l1.434,1.341a.733.733,0,0,0,.976-1.094l-2.643-2.466a.6.6,0,0,0-.488-.193Z" transform="translate(-8.398 1121.743)" fill="#fff" opacity="0.7"/>
  </g>
</svg>
