<svg xmlns="http://www.w3.org/2000/svg" width="22.193" height="16" viewBox="0 0 22.193 16">
  <path id="upload" d="M120.292,106.4a6.448,6.448,0,0,0-6.411,5.7,5.16,5.16,0,0,0,.476,10.3H127a4.387,4.387,0,0,0,0-8.774h-.306a6.453,6.453,0,0,0-6.4-7.226Zm0,5.419a.45.45,0,0,1,.347.129l2.839,2.581a.524.524,0,0,1,.04.734.55.55,0,0,1-.734.032l-1.976-1.8v5.548a.516.516,0,1,1-1.032,0V113.5l-1.976,1.8a.54.54,0,0,1-.734-.032.53.53,0,0,1,.04-.734l2.839-2.581a.562.562,0,0,1,.347-.129Z" transform="translate(-109.195 -106.4)" fill="#009bad" opacity="0.8"/>
</svg>
