<svg id="vechicle_req" data-name="vechicle req" xmlns="http://www.w3.org/2000/svg" width="32" height="32" viewBox="0 0 32 32">
  <g id="Group_175" data-name="Group 175" transform="translate(12.8 14.4)">
    <g id="Group_174" data-name="Group 174">
      <path id="Path_195" data-name="Path 195" d="M195.2,216a3.2,3.2,0,1,0,3.2,3.2A3.2,3.2,0,0,0,195.2,216Zm0,5.333a2.133,2.133,0,1,1,2.133-2.133A2.136,2.136,0,0,1,195.2,221.333Z" transform="translate(-192 -216)" fill="#003558"/>
    </g>
  </g>
  <g id="Group_177" data-name="Group 177">
    <g id="Group_176" data-name="Group 176">
      <path id="Path_196" data-name="Path 196" d="M16,0A16,16,0,1,0,32,16,16.018,16.018,0,0,0,16,0Zm0,30.933A14.933,14.933,0,1,1,30.933,16,14.95,14.95,0,0,1,16,30.933Z" fill="#003558"/>
    </g>
  </g>
  <g id="Group_179" data-name="Group 179" transform="translate(3.2 3.2)">
    <g id="Group_178" data-name="Group 178">
      <path id="Path_197" data-name="Path 197" d="M60.8,48A12.8,12.8,0,1,0,73.6,60.8,12.815,12.815,0,0,0,60.8,48Zm0,1.067a11.75,11.75,0,0,1,10.949,7.522l-4,1.332a5.763,5.763,0,0,1-4.173-.2,6.85,6.85,0,0,0-5.558,0l-.2.09a5.791,5.791,0,0,1-3.834.3l-4.273-1.14A11.751,11.751,0,0,1,60.8,49.067ZM49.067,60.8c0-.109.005-.216.008-.324l.37.123a14.22,14.22,0,0,1,9.639,11.807A11.751,11.751,0,0,1,49.067,60.8ZM60.8,72.533c-.212,0-.422-.006-.631-.017A15.283,15.283,0,0,0,49.783,59.588l-.627-.209a11.665,11.665,0,0,1,.253-1.385l4.3,1.147a6.86,6.86,0,0,0,4.542-.358l.2-.09a5.781,5.781,0,0,1,4.693,0,6.828,6.828,0,0,0,4.943.238l4-1.332a11.644,11.644,0,0,1,.358,1.779l-.627.209A15.283,15.283,0,0,0,61.431,72.516C61.222,72.527,61.012,72.533,60.8,72.533Zm1.716-.127A14.22,14.22,0,0,1,72.155,60.6l.37-.123c0,.108.008.215.008.324A11.751,11.751,0,0,1,62.516,72.407Z" transform="translate(-48 -48)" fill="#003558"/>
    </g>
  </g>
</svg>
