<svg id="vehicle_request-h" data-name="vehicle request-h" xmlns="http://www.w3.org/2000/svg" width="42" height="42" viewBox="0 0 42 42">
  <g id="Group_175" data-name="Group 175" transform="translate(16.8 18.9)">
    <g id="Group_174" data-name="Group 174">
      <path id="Path_195" data-name="Path 195" d="M196.2,216a4.2,4.2,0,1,0,4.2,4.2A4.2,4.2,0,0,0,196.2,216Zm0,7a2.8,2.8,0,1,1,2.8-2.8A2.8,2.8,0,0,1,196.2,223Z" transform="translate(-192 -216)" fill="#009bad"/>
    </g>
  </g>
  <g id="Group_177" data-name="Group 177">
    <g id="Group_176" data-name="Group 176">
      <path id="Path_196" data-name="Path 196" d="M21,0A21,21,0,1,0,42,21,21.024,21.024,0,0,0,21,0Zm0,40.6A19.6,19.6,0,1,1,40.6,21,19.622,19.622,0,0,1,21,40.6Z" fill="#009bad"/>
    </g>
  </g>
  <g id="Group_179" data-name="Group 179" transform="translate(4.2 4.2)">
    <g id="Group_178" data-name="Group 178">
      <path id="Path_197" data-name="Path 197" d="M64.8,48A16.8,16.8,0,1,0,81.6,64.8,16.819,16.819,0,0,0,64.8,48Zm0,1.4a15.422,15.422,0,0,1,14.37,9.872L73.925,61.02a7.564,7.564,0,0,1-5.478-.265,8.991,8.991,0,0,0-7.295,0l-.265.118a7.6,7.6,0,0,1-5.032.4l-5.609-1.5A15.424,15.424,0,0,1,64.8,49.4ZM49.4,64.8c0-.143.007-.284.011-.425l.486.162a18.663,18.663,0,0,1,12.651,15.5A15.423,15.423,0,0,1,49.4,64.8ZM64.8,80.2c-.278,0-.554-.008-.828-.023A20.059,20.059,0,0,0,50.34,63.209l-.823-.274a15.311,15.311,0,0,1,.331-1.818l5.646,1.506a9,9,0,0,0,5.962-.47l.265-.118a7.588,7.588,0,0,1,6.16,0,8.962,8.962,0,0,0,6.487.312L79.613,60.6a15.283,15.283,0,0,1,.47,2.335l-.823.274A20.058,20.058,0,0,0,65.628,80.177C65.354,80.192,65.078,80.2,64.8,80.2Zm2.252-.166A18.663,18.663,0,0,1,79.7,64.537l.486-.162c0,.142.011.283.011.425A15.423,15.423,0,0,1,67.052,80.034Z" transform="translate(-48 -48)" fill="#009bad"/>
    </g>
  </g>
</svg>
