<svg xmlns="http://www.w3.org/2000/svg" width="85" height="76" viewBox="0 0 85 76">
  <g id="white-folder" transform="translate(-0.037 -0.318)">
    <rect id="Rectangle_1514" data-name="Rectangle 1514" width="85" height="76" rx="4" transform="translate(0.037 0.318)" fill="#009bad"/>
    <path id="Path_2283" data-name="Path 2283" d="M158.317,125.276H117.765a1.668,1.668,0,0,0-.832.216,1.385,1.385,0,0,0-.559.581L109.9,139.133h43.85l5.958-12a1.183,1.183,0,0,0-.123-1.256,1.581,1.581,0,0,0-1.269-.6ZM145.589,138.11h-9a.516.516,0,1,1,0-1.024h9a.517.517,0,1,1,0,1.024Zm7.011,0h-3.692a.516.516,0,1,1,0-1.024H152.6a.517.517,0,1,1,0,1.024Zm-34.832-13.858H153.55v-9.824a1.252,1.252,0,0,0-.444-.94,1.639,1.639,0,0,0-1.074-.391H135.385a5.9,5.9,0,0,1-4.077-1.575l-3.048-2.93h0a3.617,3.617,0,0,0-2.51-.973H111.112a1.639,1.639,0,0,0-1.074.391,1.251,1.251,0,0,0-.444.941v28.227l5.708-11.512a2.456,2.456,0,0,1,.991-1.03,2.964,2.964,0,0,1,1.475-.384Zm-5.833-2.14a.59.59,0,0,1-1.17,0v-7.941a.59.59,0,0,1,1.17,0Zm0-10.768h0a.59.59,0,0,1-1.17,0v-2.185a.59.59,0,0,1,1.17,0Z" transform="translate(-92.13 -84.443)" fill="#fff"/>
  </g>
</svg>
