<svg xmlns="http://www.w3.org/2000/svg" width="46.847" height="28.801" viewBox="0 0 46.847 28.801">
  <g id="Group_435" data-name="Group 435" transform="translate(-133 -385)">
    <path id="Path_118" data-name="Path 118" d="M24.02,13.416c.2.034.7-.264.9-.332a20.493,20.493,0,0,1,2.356-.63,13.542,13.542,0,0,1,6.783.169c.867.284,1.665.751,2.518,1.09.467.19.941.372,1.415.542a65.589,65.589,0,0,0,11.272,2.958,68.976,68.976,0,0,0,8.334.934,66.217,66.217,0,0,0,8.516-.108c-.041,0-.122.1-.156.122-.149.115-.3.223-.46.332a17.325,17.325,0,0,1-1.8,1.076,20.349,20.349,0,0,1-2.9,1.239,22.259,22.259,0,0,1-3.913.941,23.15,23.15,0,0,1-4.84.183c-.44-.027-.873-.068-1.313-.122a1.641,1.641,0,0,0-.677.047c-.054.02-.162.047-.176.115-.014.1.169.176.244.2a1.827,1.827,0,0,0,.426.081c.278.034.555.061.833.095.6.068,1.2.142,1.8.223.914.115,1.828.223,2.735.386a1.241,1.241,0,0,1,.386.095c-.007-.007-.068.041-.074.047L56,23.225c-.122.068-.244.129-.366.19l-.487.244c-.2.095-.4.19-.6.278-.237.1-.467.2-.7.3-.264.108-.528.21-.8.3-.291.108-.582.21-.88.3s-.63.2-.948.278-.663.169-1,.244-.7.142-1.043.2-.718.1-1.076.135-.731.054-1.1.054a10.143,10.143,0,0,1-1.11-.041l-.44-.041c-.074-.007-.149-.02-.223-.027s-.2-.061-.257.02a.061.061,0,0,0,0,.074c.074.129.23.135.366.162.156.034.311.061.467.095.21.041.42.088.636.129.244.047.481.1.724.156s.487.108.724.162c.217.047.433.1.65.149.162.041.332.081.494.129.054.014.108.034.156.047.007,0,.088.041.088.041a21.892,21.892,0,0,1-2.363,1.171,12.021,12.021,0,0,1-1.984.677,3.7,3.7,0,0,1-1.158.142,1.586,1.586,0,0,1-.826-.433A45.1,45.1,0,0,1,35.881,20.7a18.245,18.245,0,0,0-1.462-1.686,15.088,15.088,0,0,0-3.392-2.83A22.576,22.576,0,0,0,24.02,13.416Z" transform="translate(113.732 372.894)" fill="#acacac"/>
    <path id="Path_119" data-name="Path 119" d="M21.224,15.768a.98.98,0,0,1,.244.007c.081.014.162.02.244.027.23.027.454.068.677.108.3.054.616.122.914.2.372.095.745.2,1.11.311.426.135.846.284,1.259.454.46.19.921.393,1.367.623.487.25.968.521,1.428.819a16.6,16.6,0,0,1,1.449,1.036,15.937,15.937,0,0,1,2.674,2.728c.684.894,1.361,1.8,2.051,2.688a30.83,30.83,0,0,0,3.581,3.879c1.07.968,2.187,1.889,3.283,2.83.582.5,1.171.988,1.76,1.476l.474.393c.162.135.325.271.487.4s.338.271.508.413l.521.42c.162.135.332.264.5.4,0,0,8.354,6.1,10.92,6.98a21.471,21.471,0,0,1-15.76-4.671l4.367,3.778s1.293.955-.359.616c0,0-7.751-1.848-10.642-3.94l.2.2c.176.169.345.338.521.508.23.223.46.454.7.677s.481.474.724.7c.2.2.406.393.609.6.108.108.223.217.338.311s.257.149.379.244c.034.027.088.068.074.115-.02.068-.149.074-.2.081-.081.007-.169.014-.257.014-.122,0-.25-.02-.372-.014,0,0-4.867.244-7.894-3.371l1.8,2.9s.806,1.083-.839.738c0,0-8.713-.562-12.842-14.257a1.58,1.58,0,0,1-.027-.176c-.02-.169-.041-.332-.061-.5-.027-.257-.054-.515-.068-.772-.027-.325-.041-.657-.054-.982C17,24.372,17,23.993,17,23.614c.007-.413.027-.826.061-1.232.034-.426.088-.853.156-1.279a11.737,11.737,0,0,1,.278-1.266,8.717,8.717,0,0,1,.426-1.2,6.859,6.859,0,0,1,.6-1.07,4.737,4.737,0,0,1,.8-.887,4.284,4.284,0,0,1,1.022-.65,4.009,4.009,0,0,1,.447-.169A3.041,3.041,0,0,1,21.224,15.768Z" transform="translate(116 371.712)" fill="#acacac"/>
  </g>
</svg>
