<svg xmlns="http://www.w3.org/2000/svg" width="28.54" height="28.544" viewBox="0 0 28.54 28.544">
  <g id="notes" transform="translate(-0.038)">
    <g id="Group_126" data-name="Group 126" transform="translate(23.619 9.985)">
      <g id="Group_125" data-name="Group 125">
        <path id="Path_113" data-name="Path 113" d="M427.086,179.685a2.51,2.51,0,0,0-3.532.306l-.542.642,3.844,3.225.518-.639A2.5,2.5,0,0,0,427.086,179.685Z" transform="translate(-423.012 -179.099)" fill="#009bad"/>
      </g>
    </g>
    <g id="Group_128" data-name="Group 128" transform="translate(15.234 19.542)">
      <g id="Group_127" data-name="Group 127">
        <path id="Path_114" data-name="Path 114" d="M274.221,350.534l-.286.339a2.529,2.529,0,0,0-.517,1.029l-.777,3.253a.837.837,0,0,0,1.146.962l3.07-1.331a2.53,2.53,0,0,0,.922-.687l.287-.34Z" transform="translate(-272.617 -350.534)" fill="#009bad"/>
      </g>
    </g>
    <g id="Group_130" data-name="Group 130" transform="translate(17.917 12.796)">
      <g id="Group_129" data-name="Group 129">
        <path id="Path_115" data-name="Path 115" d="M325.356,229.517l-4.623,5.47,3.844,3.225,4.623-5.47Z" transform="translate(-320.733 -229.517)" fill="#009bad"/>
      </g>
    </g>
    <g id="Group_132" data-name="Group 132" transform="translate(16.763 0.128)">
      <g id="Group_131" data-name="Group 131">
        <path id="Path_116" data-name="Path 116" d="M304.275,5.874,301.1,2.855a2.468,2.468,0,0,0-1.059-.561v4.89H305A2.519,2.519,0,0,0,304.275,5.874Z" transform="translate(-300.039 -2.294)" fill="#009bad"/>
      </g>
    </g>
    <g id="Group_134" data-name="Group 134" transform="translate(0.038)">
      <g id="Group_133" data-name="Group 133">
        <path id="Path_117" data-name="Path 117" d="M14.408,20.521a4.215,4.215,0,0,1,.861-1.713L21.78,11.1V6.69H15.927a.836.836,0,0,1-.836-.836V0H2.547A2.512,2.512,0,0,0,.038,2.509V26.035a2.512,2.512,0,0,0,2.509,2.509H19.272a2.512,2.512,0,0,0,2.509-2.509V24.058l-.109.128a4.2,4.2,0,0,1-1.531,1.141L17.068,26.66a2.509,2.509,0,0,1-3.438-2.885ZM4.219,5.017h8.362a.836.836,0,1,1,0,1.672H4.219a.836.836,0,1,1,0-1.672Zm0,5.073H17.6a.836.836,0,0,1,0,1.672H4.219a.836.836,0,1,1,0-1.672ZM10.909,21.8H4.219a.836.836,0,1,1,0-1.672h6.69a.836.836,0,0,1,0,1.672Zm-6.69-5.017a.836.836,0,1,1,0-1.672H14.254a.836.836,0,0,1,0,1.672Z" transform="translate(-0.038)" fill="#009bad"/>
      </g>
    </g>
  </g>
</svg>
