<svg xmlns="http://www.w3.org/2000/svg" width="28.596" height="28.596" viewBox="0 0 28.596 28.596">
  <path id="global-network" d="M25.617,22.638a2.956,2.956,0,0,0-1.083.211l-3.566-3.565a8.277,8.277,0,0,0,0-9.973l3.566-3.565a2.975,2.975,0,1,0-1.9-2.768,2.956,2.956,0,0,0,.211,1.083L19.283,7.628a8.276,8.276,0,0,0-9.97,0L5.747,4.062a2.975,2.975,0,1,0-2.768,1.9,2.956,2.956,0,0,0,1.083-.211L7.628,9.313a8.276,8.276,0,0,0,0,9.972L4.062,22.849a2.975,2.975,0,1,0,1.9,2.768,2.956,2.956,0,0,0-.211-1.083l3.566-3.566a8.276,8.276,0,0,0,9.97,0l3.566,3.566a2.945,2.945,0,0,0-.211,1.082,2.979,2.979,0,1,0,2.979-2.979ZM17.665,14.8a3.9,3.9,0,0,0-4.9,5.233,5.955,5.955,0,0,1-3.5-2.569A2.866,2.866,0,0,0,10.58,15.1a1.163,1.163,0,0,1,.927-1.128c2.464-.531,3.352-3.185,2.526-5.6a4.714,4.714,0,0,1,1.893.229c.056,2.574,1.525,4.712,4.174,4.394a5.96,5.96,0,0,1,.11.859C18.518,14.237,19.366,15.487,17.665,14.8Z" fill="#009bad"/>
</svg>
