<svg xmlns="http://www.w3.org/2000/svg" width="34.531" height="30.243" viewBox="0 0 34.531 30.243">
  <path id="hierarchical-structure" d="M31.088,52.646V46.914a1.349,1.349,0,0,0-1.349-1.349H18.615V41.182a4.792,4.792,0,1,0-2.7,0v4.383H4.792a1.349,1.349,0,0,0-1.349,1.349v5.732a4.792,4.792,0,1,0,2.7,0V48.262h9.776v4.383a4.792,4.792,0,1,0,2.7,0V48.262h9.776v4.383a4.792,4.792,0,1,0,2.7,0ZM15.171,36.584a2.094,2.094,0,1,1,2.094,2.094A2.1,2.1,0,0,1,15.171,36.584ZM6.886,57.243a2.094,2.094,0,1,1-2.094-2.094A2.1,2.1,0,0,1,6.886,57.243Zm12.474,0a2.094,2.094,0,1,1-2.219-2.09c.041,0,.082.006.124.006s.083,0,.124-.006A2.1,2.1,0,0,1,19.36,57.243Zm10.379,2.094a2.094,2.094,0,1,1,2.094-2.094A2.1,2.1,0,0,1,29.739,59.337Z" transform="translate(0 -31.792)" fill="#009bad"/>
</svg>
